G04*
G04 #@! TF.GenerationSoftware,Altium Limited,Altium Designer,25.0.2 (28)*
G04*
G04 Layer_Color=16711935*
%FSLAX25Y25*%
%MOIN*%
G70*
G04*
G04 #@! TF.SameCoordinates,92B628A6-D60A-4015-8E16-F054796CA4EE*
G04*
G04*
G04 #@! TF.FilePolarity,Positive*
G04*
G01*
G75*
%ADD11C,0.00394*%
%ADD113C,0.00197*%
D11*
X201742Y5943D02*
Y38817D01*
X162372D02*
X201742D01*
X162372Y5943D02*
Y38817D01*
Y5943D02*
X201742D01*
X195685Y140748D02*
X208284D01*
Y153346D01*
X195685D02*
X208284D01*
X195685Y140748D02*
Y153346D01*
X72146Y29191D02*
Y94348D01*
X197Y29191D02*
X72146D01*
X197D02*
Y94348D01*
X72146D01*
X197Y151048D02*
X72146D01*
X197Y85891D02*
Y151048D01*
Y85891D02*
X72146D01*
Y151048D01*
X2106Y235532D02*
Y268406D01*
X40354D01*
Y235532D02*
Y268406D01*
X2106Y235532D02*
X40354D01*
X108150Y160366D02*
X126850D01*
Y143634D02*
Y160366D01*
X108150Y143634D02*
X126850D01*
X108150D02*
Y160366D01*
X79267Y145967D02*
Y161321D01*
Y145967D02*
X101314D01*
Y161321D01*
X79267D02*
X101314D01*
D113*
X158490Y59712D02*
X174828D01*
Y48688D02*
Y59712D01*
X158490Y48688D02*
X174828D01*
X158490D02*
Y59712D01*
X215965Y59412D02*
X232303D01*
Y48388D02*
Y59412D01*
X215965Y48388D02*
X232303D01*
X215965D02*
Y59412D01*
X236686Y279084D02*
Y284123D01*
Y279084D02*
X246450D01*
Y284123D01*
X236686D02*
X246450D01*
X236686Y283784D02*
Y288823D01*
Y283784D02*
X246450D01*
Y288823D01*
X236686D02*
X246450D01*
X236047Y289094D02*
X241953D01*
Y300905D01*
X236047D02*
X241953D01*
X236047Y289094D02*
Y300905D01*
X248193Y302260D02*
Y309740D01*
X234807D02*
X248193D01*
X234807Y302260D02*
Y309740D01*
Y302260D02*
X248193D01*
X251480Y278382D02*
X256520D01*
X251480Y268618D02*
Y278382D01*
Y268618D02*
X256520D01*
Y278382D01*
X243453Y211491D02*
Y222909D01*
X237547Y211491D02*
X243453D01*
X237547D02*
Y222909D01*
X243453D01*
X237547Y199891D02*
Y211309D01*
X243453D01*
Y199891D02*
Y211309D01*
X237547Y199891D02*
X243453D01*
X197789Y32718D02*
X221411D01*
Y9096D02*
Y32718D01*
X197789Y9096D02*
X221411D01*
X197789D02*
Y32718D01*
X142568D02*
X166190D01*
Y9096D02*
Y32718D01*
X142568Y9096D02*
X166190D01*
X142568D02*
Y32718D01*
X7420Y225811D02*
X31042D01*
X7420Y202189D02*
Y225811D01*
Y202189D02*
X31042D01*
Y225811D01*
X7420Y202847D02*
X31042D01*
X7420Y179224D02*
Y202847D01*
Y179224D02*
X31042D01*
Y202847D01*
X7420Y179834D02*
X31042D01*
X7420Y156212D02*
Y179834D01*
Y156212D02*
X31042D01*
Y179834D01*
X162480Y59918D02*
Y69682D01*
X167520D01*
Y59918D02*
Y69682D01*
X162480Y59918D02*
X167520D01*
X141198Y86180D02*
X162852D01*
X141198Y56849D02*
Y86180D01*
Y56849D02*
X162852D01*
Y86180D01*
X125069Y46176D02*
X151840D01*
Y33224D02*
Y46176D01*
X125069Y33224D02*
X151840D01*
X125069D02*
Y46176D01*
X236411Y33224D02*
Y46176D01*
X209639D02*
X236411D01*
X209639Y33224D02*
Y46176D01*
Y33224D02*
X236411D01*
X182639D02*
Y46176D01*
Y33224D02*
X209411D01*
Y46176D01*
X182639D02*
X209411D01*
X152289Y33224D02*
X179060D01*
X152289D02*
Y46176D01*
X179060D01*
Y33224D02*
Y46176D01*
X171035Y240327D02*
X200365D01*
Y218673D02*
Y240327D01*
X171035Y218673D02*
X200365D01*
X171035D02*
Y240327D01*
X211078Y311890D02*
X216984D01*
X211078Y300473D02*
Y311890D01*
Y300473D02*
X216984D01*
Y311890D01*
X212865Y312290D02*
X224676D01*
X212865D02*
Y318195D01*
X224676D01*
Y312290D02*
Y318195D01*
X217521Y300079D02*
X223427D01*
Y311890D01*
X217521D02*
X223427D01*
X217521Y300079D02*
Y311890D01*
X223553Y311707D02*
X233395D01*
X223553Y302062D02*
Y311707D01*
Y302062D02*
X233395D01*
Y311707D01*
X243169Y310571D02*
Y315610D01*
X233405D02*
X243169D01*
X233405Y310571D02*
Y315610D01*
Y310571D02*
X243169D01*
X237350Y253837D02*
X251524D01*
Y278640D01*
X237350D02*
X251524D01*
X237350Y253837D02*
Y278640D01*
X241047Y289094D02*
Y300905D01*
X246953D01*
Y289094D02*
Y300905D01*
X241047Y289094D02*
X246953D01*
X1201Y268366D02*
X13760D01*
X1201D02*
Y290925D01*
X13760D01*
Y268366D02*
Y290925D01*
X197688Y244669D02*
X208712D01*
X197688Y228331D02*
Y244669D01*
Y228331D02*
X208712D01*
Y244669D01*
X197688Y194669D02*
X208712D01*
X197688Y178331D02*
Y194669D01*
Y178331D02*
X208712D01*
Y194669D01*
X206180Y215382D02*
X211220D01*
X206180Y205618D02*
Y215382D01*
Y205618D02*
X211220D01*
Y215382D01*
X206180Y241382D02*
X211220D01*
X206180Y231618D02*
Y241382D01*
Y231618D02*
X211220D01*
Y241382D01*
X171035Y192673D02*
Y214327D01*
Y192673D02*
X200365D01*
Y214327D01*
X171035D02*
X200365D01*
X142643Y146675D02*
Y156320D01*
X137761Y146675D02*
X142643D01*
X137761D02*
Y156320D01*
X142643D01*
X203147Y116153D02*
X214565D01*
Y110247D02*
Y116153D01*
X203147Y110247D02*
X214565D01*
X203147D02*
Y116153D01*
X209080Y116062D02*
Y125826D01*
X214120D01*
Y116062D02*
Y125826D01*
X209080Y116062D02*
X214120D01*
X188691Y119191D02*
Y130609D01*
X194597D01*
Y119191D02*
Y130609D01*
X188691Y119191D02*
X194597D01*
X191634Y109252D02*
X203051D01*
X191634D02*
Y115157D01*
X203051D01*
Y109252D02*
Y115157D01*
X199721Y129680D02*
X209485D01*
X199721D02*
Y134720D01*
X209485D01*
Y129680D02*
Y134720D01*
X194597Y130691D02*
Y142109D01*
X188691Y130691D02*
X194597D01*
X188691D02*
Y142109D01*
X194597D01*
X205873Y138378D02*
Y154717D01*
X216896D01*
Y138378D02*
Y154717D01*
X205873Y138378D02*
X216896D01*
X194922Y143209D02*
Y152854D01*
X190040Y143209D02*
X194922D01*
X190040D02*
Y152854D01*
X194922D01*
X189355Y153728D02*
X199119D01*
X189355D02*
Y158767D01*
X199119D01*
Y153728D02*
Y158767D01*
X199455D02*
X209219D01*
Y153728D02*
Y158767D01*
X199455Y153728D02*
X209219D01*
X199455D02*
Y158767D01*
X214041Y126539D02*
Y136184D01*
X209159Y126539D02*
X214041D01*
X209159D02*
Y136184D01*
X214041D01*
X136882Y139980D02*
Y145020D01*
X127118D02*
X136882D01*
X127118Y139980D02*
Y145020D01*
Y139980D02*
X136882D01*
X118862Y256480D02*
Y261520D01*
Y256480D02*
X128626D01*
Y261520D01*
X118862D02*
X128626D01*
X149260Y156265D02*
X154143D01*
X149260Y146619D02*
Y156265D01*
Y146619D02*
X154143D01*
Y156265D01*
X143482Y156280D02*
X148521D01*
X143482Y146516D02*
Y156280D01*
Y146516D02*
X148521D01*
Y156280D01*
X127180Y156382D02*
X132220D01*
X127180Y146618D02*
Y156382D01*
Y146618D02*
X132220D01*
Y156382D01*
X132082Y156324D02*
X137121D01*
X132082Y146560D02*
Y156324D01*
Y146560D02*
X137121D01*
Y156324D01*
X109618Y141980D02*
Y147020D01*
Y141980D02*
X119382D01*
Y147020D01*
X109618D02*
X119382D01*
X158980Y226382D02*
X164020D01*
X158980Y216618D02*
Y226382D01*
Y216618D02*
X164020D01*
Y226382D01*
X46575Y273020D02*
Y284043D01*
X30236D02*
X46575D01*
X30236Y273020D02*
Y284043D01*
Y273020D02*
X46575D01*
X43287Y270512D02*
Y275551D01*
X33524D02*
X43287D01*
X33524Y270512D02*
Y275551D01*
Y270512D02*
X43287D01*
X77059Y253933D02*
X81941D01*
Y263579D01*
X77059D02*
X81941D01*
X77059Y253933D02*
Y263579D01*
X63814Y161606D02*
Y253929D01*
X156137D01*
Y161606D02*
Y253929D01*
X63814Y161606D02*
X156137D01*
X48031Y321791D02*
Y344429D01*
X311969D01*
Y321791D02*
Y344429D01*
X48031Y321791D02*
X311969D01*
X48031Y341791D02*
X311969D01*
Y364429D01*
X48031D02*
X311969D01*
X48031Y341791D02*
Y364429D01*
X162559Y241677D02*
Y251323D01*
X167441D01*
Y241677D02*
Y251323D01*
X162559Y241677D02*
X167441D01*
X164020Y171118D02*
Y180882D01*
X158980Y171118D02*
X164020D01*
X158980D02*
Y180882D01*
X164020D01*
X156780Y241618D02*
Y251382D01*
X161820D01*
Y241618D02*
Y251382D01*
X156780Y241618D02*
X161820D01*
X55980Y195118D02*
Y204882D01*
X61020D01*
Y195118D02*
Y204882D01*
X55980Y195118D02*
X61020D01*
X55980Y170118D02*
Y179882D01*
X61020D01*
Y170118D02*
Y179882D01*
X55980Y170118D02*
X61020D01*
X164520Y196818D02*
Y206582D01*
X159480Y196818D02*
X164520D01*
X159480D02*
Y206582D01*
X164520D01*
X101118Y154980D02*
X110882D01*
X101118D02*
Y160020D01*
X110882D01*
Y154980D02*
Y160020D01*
X55980Y214618D02*
Y224382D01*
X61020D01*
Y214618D02*
Y224382D01*
X55980Y214618D02*
X61020D01*
X67118Y253980D02*
X76882D01*
X67118D02*
Y259020D01*
X76882D01*
Y253980D02*
Y259020D01*
X157177Y241441D02*
X166823D01*
Y236559D02*
Y241441D01*
X157177Y236559D02*
X166823D01*
X157177D02*
Y241441D01*
X97321Y261441D02*
X106967D01*
Y256559D02*
Y261441D01*
X97321Y256559D02*
X106967D01*
X97321D02*
Y261441D01*
X97318Y267220D02*
X107082D01*
Y262180D02*
Y267220D01*
X97318Y262180D02*
X107082D01*
X97318D02*
Y267220D01*
X78577Y141159D02*
X88223D01*
X78577D02*
Y146041D01*
X88223D01*
Y141159D02*
Y146041D01*
X92377Y146041D02*
X102023D01*
Y141159D02*
Y146041D01*
X92377Y141159D02*
X102023D01*
X92377D02*
Y146041D01*
X65024Y270512D02*
X74787D01*
X65024D02*
Y275551D01*
X74787D01*
Y270512D02*
Y275551D01*
X61736Y273020D02*
X78075D01*
X61736D02*
Y284043D01*
X78075D01*
Y273020D02*
Y284043D01*
X208712Y202331D02*
Y218669D01*
X197688Y202331D02*
X208712D01*
X197688D02*
Y218669D01*
X208712D01*
X211220Y181618D02*
Y191382D01*
X206180Y181618D02*
X211220D01*
X206180D02*
Y191382D01*
X211220D01*
X78598Y65748D02*
Y75512D01*
X83637D01*
Y65748D02*
Y75512D01*
X78598Y65748D02*
X83637D01*
X69805Y62811D02*
Y79150D01*
X80829D01*
Y62811D02*
Y79150D01*
X69805Y62811D02*
X80829D01*
X78398Y122948D02*
Y132712D01*
X83437D01*
Y122948D02*
Y132712D01*
X78398Y122948D02*
X83437D01*
X69705Y119661D02*
Y135999D01*
X80729D01*
Y119661D02*
Y135999D01*
X69705Y119661D02*
X80729D01*
X206006Y299597D02*
Y315935D01*
X194982Y299597D02*
X206006D01*
X194982D02*
Y315935D01*
X206006D01*
X189495Y278677D02*
X194377D01*
Y288323D01*
X189495D02*
X194377D01*
X189495Y278677D02*
Y288323D01*
X183595Y278677D02*
X188477D01*
Y288323D01*
X183595D02*
X188477D01*
X183595Y278677D02*
Y288323D01*
X177861Y278618D02*
X182900D01*
Y288382D01*
X177861D02*
X182900D01*
X177861Y278618D02*
Y288382D01*
X169155Y307884D02*
Y312766D01*
Y307884D02*
X178801D01*
Y312766D01*
X169155D02*
X178801D01*
X169155Y307766D02*
X178801D01*
Y302884D02*
Y307766D01*
X169155Y302884D02*
X178801D01*
X169155D02*
Y307766D01*
X169096Y317845D02*
X178860D01*
Y312805D02*
Y317845D01*
X169096Y312805D02*
X178860D01*
X169096D02*
Y317845D01*
X193012Y275984D02*
X204035D01*
Y292323D01*
X193012D02*
X204035D01*
X193012Y275984D02*
Y292323D01*
X59079Y281517D02*
X80732D01*
Y310847D01*
X59079D02*
X80732D01*
X59079Y281517D02*
Y310847D01*
X27579Y281366D02*
X49232D01*
Y310697D01*
X27579D02*
X49232D01*
X27579Y281366D02*
Y310697D01*
X171035Y168673D02*
Y190327D01*
Y168673D02*
X200365D01*
Y190327D01*
X171035D02*
X200365D01*
X198635Y85865D02*
X220289D01*
X198635Y56535D02*
Y85865D01*
Y56535D02*
X220289D01*
Y85865D01*
X179139Y303132D02*
X188785D01*
Y295258D02*
Y303132D01*
X179139Y295258D02*
X188785D01*
X179139D02*
Y303132D01*
X178403Y270215D02*
Y299152D01*
X154387Y270215D02*
X178403D01*
X154387D02*
Y299152D01*
X178403D01*
X30247Y154591D02*
X36153D01*
Y166009D01*
X30247D02*
X36153D01*
X30247Y154591D02*
Y166009D01*
X30247Y177509D02*
X36153D01*
X30247Y166091D02*
Y177509D01*
Y166091D02*
X36153D01*
Y177509D01*
X52535Y182547D02*
X63953D01*
X52535D02*
Y188453D01*
X63953D01*
Y182547D02*
Y188453D01*
X57697Y323185D02*
X80827D01*
Y308815D02*
Y323185D01*
X57697Y308815D02*
X80827D01*
X57697D02*
Y323185D01*
X26197D02*
X49327D01*
Y308815D02*
Y323185D01*
X26197Y308815D02*
X49327D01*
X26197D02*
Y323185D01*
X164328Y46515D02*
Y60885D01*
X141198D02*
X164328D01*
X141198Y46515D02*
Y60885D01*
Y46515D02*
X164328D01*
X151797Y86547D02*
Y92453D01*
Y86547D02*
X163214D01*
Y92453D01*
X151797D02*
X163214D01*
X152234Y86547D02*
Y92453D01*
X140817D02*
X152234D01*
X140817Y86547D02*
Y92453D01*
Y86547D02*
X152234D01*
X198673Y46015D02*
X221803D01*
X198673D02*
Y60385D01*
X221803D01*
Y46015D02*
Y60385D01*
X209254Y91953D02*
X220671D01*
Y86047D02*
Y91953D01*
X209254Y86047D02*
X220671D01*
X209254D02*
Y91953D01*
X198254Y86047D02*
X209671D01*
X198254D02*
Y91953D01*
X209671D01*
Y86047D02*
Y91953D01*
X190547Y290291D02*
X196453D01*
Y301709D01*
X190547D02*
X196453D01*
X190547Y290291D02*
Y301709D01*
X197935Y301979D02*
Y313790D01*
X192030Y301979D02*
X197935D01*
X192030D02*
Y313790D01*
X197935D01*
X207453Y290094D02*
Y301905D01*
X201547Y290094D02*
X207453D01*
X201547D02*
Y301905D01*
X207453D01*
X187040Y302175D02*
Y313593D01*
X192946D01*
Y302175D02*
Y313593D01*
X187040Y302175D02*
X192946D01*
X195547Y301906D02*
X201453D01*
X195547Y290095D02*
Y301906D01*
Y290095D02*
X201453D01*
Y301906D01*
M02*
