G04*
G04 #@! TF.GenerationSoftware,Altium Limited,Altium Designer,25.0.2 (28)*
G04*
G04 Layer_Physical_Order=3*
G04 Layer_Color=128*
%FSLAX25Y25*%
%MOIN*%
G70*
G04*
G04 #@! TF.SameCoordinates,92B628A6-D60A-4015-8E16-F054796CA4EE*
G04*
G04*
G04 #@! TF.FilePolarity,Negative*
G04*
G01*
G75*
%ADD82C,0.00800*%
%ADD87C,0.02500*%
%ADD89C,0.04000*%
G04:AMPARAMS|DCode=103|XSize=59.181mil|YSize=59.181mil|CornerRadius=0mil|HoleSize=0mil|Usage=FLASHONLY|Rotation=0.000|XOffset=0mil|YOffset=0mil|HoleType=Round|Shape=Relief|Width=4mil|Gap=4mil|Entries=4|*
%AMTHD103*
7,0,0,0.05918,0.05118,0.00400,45*
%
%ADD103THD103*%
%ADD104C,0.03556*%
%ADD105C,0.02965*%
G04:AMPARAMS|DCode=106|XSize=53.276mil|YSize=53.276mil|CornerRadius=0mil|HoleSize=0mil|Usage=FLASHONLY|Rotation=0.000|XOffset=0mil|YOffset=0mil|HoleType=Round|Shape=Relief|Width=4mil|Gap=4mil|Entries=4|*
%AMTHD106*
7,0,0,0.05328,0.04528,0.00400,45*
%
%ADD106THD106*%
%ADD107C,0.05131*%
%ADD108C,0.05918*%
G04:AMPARAMS|DCode=109|XSize=74.929mil|YSize=74.929mil|CornerRadius=0mil|HoleSize=0mil|Usage=FLASHONLY|Rotation=0.000|XOffset=0mil|YOffset=0mil|HoleType=Round|Shape=Relief|Width=4mil|Gap=4mil|Entries=4|*
%AMTHD109*
7,0,0,0.07493,0.06693,0.00400,45*
%
%ADD109THD109*%
%ADD110C,0.13320*%
%ADD111C,0.01981*%
%ADD112C,0.02800*%
D82*
X75500Y154500D02*
X80705Y159705D01*
X111000Y160000D02*
X117500D01*
X126500Y139500D02*
Y160000D01*
X117500Y170000D02*
X122000D01*
X111000Y155000D02*
Y160000D01*
X122000D02*
Y170000D01*
X117500Y160000D02*
Y170000D01*
X106000Y155000D02*
X111000D01*
X122000Y160000D02*
X126500D01*
X106000Y139500D02*
X126500D01*
X106000D02*
Y155000D01*
X104500Y138500D02*
Y153500D01*
X92049Y159705D02*
Y169705D01*
X88349Y159705D02*
Y169705D01*
X75500Y138500D02*
X104500D01*
X80705Y159705D02*
X88349D01*
X101000Y153500D02*
Y159705D01*
X91124Y169705D02*
X92049D01*
Y159705D02*
X101000D01*
X88349Y169705D02*
X89275D01*
X91124D01*
X101000Y153500D02*
X104500D01*
X75500Y138500D02*
Y154500D01*
D87*
X212000Y266000D02*
X232000Y286000D01*
Y296000D01*
X227000Y323000D02*
X234000Y316000D01*
X251000D01*
X232000Y296000D02*
X238000Y302000D01*
X248000D01*
X254000Y296000D01*
X268000D02*
X269000Y297000D01*
X268000Y316000D02*
X269000Y315000D01*
Y297000D02*
Y315000D01*
X251000Y316000D02*
X268000D01*
X254000Y296000D02*
X268000D01*
X152000Y272000D02*
X158000Y266000D01*
X189000Y327000D02*
Y362000D01*
X193000Y323000D02*
X227000D01*
X158000Y266000D02*
X212000D01*
X189000Y327000D02*
X193000Y323000D01*
X152000Y272000D02*
Y362000D01*
X189000D01*
D89*
X0Y4724D02*
G03*
X4724Y0I4724J0D01*
G01*
X137284D02*
G03*
X142008Y4724I0J4724D01*
G01*
X146732Y9449D02*
G03*
X142008Y4724I0J-4724D01*
G01*
X222008Y4724D02*
G03*
X217284Y9449I-4724J0D01*
G01*
X222008Y4724D02*
G03*
X226732Y0I4724J0D01*
G01*
X350276D02*
G03*
X355000Y4724I0J4724D01*
G01*
Y145098D02*
G03*
X351220Y148878I-3779J0D01*
G01*
X347441Y152657D02*
G03*
X351220Y148878I3779J0D01*
G01*
Y228681D02*
G03*
X347441Y224902I0J-3779D01*
G01*
X351220Y228681D02*
G03*
X355000Y232461I0J3779D01*
G01*
Y372795D02*
G03*
X350276Y377520I-4724J0D01*
G01*
X226732D02*
G03*
X222008Y372795I0J-4724D01*
G01*
X217284Y368071D02*
G03*
X222008Y372795I0J4724D01*
G01*
X142008D02*
G03*
X146732Y368071I4724J0D01*
G01*
X142008Y372795D02*
G03*
X137284Y377520I-4724J0D01*
G01*
X4724D02*
G03*
X0Y372795I0J-4724D01*
G01*
Y232441D02*
G03*
X3779Y228661I3779J0D01*
G01*
X7559Y224882D02*
G03*
X3779Y228661I-3779J0D01*
G01*
Y148858D02*
G03*
X7559Y152638I0J3779D01*
G01*
X3779Y148858D02*
G03*
X0Y145079I0J-3779D01*
G01*
X4724Y0D02*
X137284D01*
X146732Y9449D02*
X217284Y9449D01*
X226732Y0D02*
X350276D01*
X355000Y4724D02*
Y145098D01*
X226732Y377520D02*
X350276D01*
X146732Y368071D02*
X217284D01*
X4724Y377520D02*
X137284D01*
X355000Y232461D02*
Y372795D01*
X0Y232441D02*
Y372795D01*
X7559Y152638D02*
Y224882D01*
X0Y4724D02*
Y145079D01*
X347441Y152657D02*
Y224902D01*
D103*
X204679Y27600D02*
D03*
X149457D02*
D03*
X25924Y218921D02*
D03*
Y195957D02*
D03*
Y172944D02*
D03*
D104*
X214521Y27600D02*
D03*
X209600D02*
D03*
X154379D02*
D03*
X159300D02*
D03*
X25924Y209079D02*
D03*
Y214000D02*
D03*
Y186114D02*
D03*
Y191035D02*
D03*
Y163101D02*
D03*
Y168023D02*
D03*
D105*
X92479Y17913D02*
D03*
X97400D02*
D03*
X102321D02*
D03*
X107243D02*
D03*
X112164D02*
D03*
X186979Y27400D02*
D03*
X182057D02*
D03*
X177136D02*
D03*
X172215D02*
D03*
D106*
X117085Y17913D02*
D03*
X191900Y27400D02*
D03*
D107*
X115000Y347520D02*
D03*
X125000D02*
D03*
X55000Y327520D02*
D03*
Y337520D02*
D03*
X65000Y327520D02*
D03*
Y337520D02*
D03*
X75000Y327520D02*
D03*
Y337520D02*
D03*
X85000Y327520D02*
D03*
Y337520D02*
D03*
X95000Y327520D02*
D03*
Y337520D02*
D03*
X105000Y327520D02*
D03*
Y337520D02*
D03*
X115000Y327520D02*
D03*
Y337520D02*
D03*
X125000Y327520D02*
D03*
Y337520D02*
D03*
X135000Y327520D02*
D03*
Y337520D02*
D03*
X145000Y327520D02*
D03*
Y337520D02*
D03*
X155000Y327520D02*
D03*
Y337520D02*
D03*
X165000Y327520D02*
D03*
Y337520D02*
D03*
X175000Y327520D02*
D03*
Y337520D02*
D03*
X185000Y327520D02*
D03*
Y337520D02*
D03*
X195000Y327520D02*
D03*
Y337520D02*
D03*
X205000Y327520D02*
D03*
Y337520D02*
D03*
X225000Y327520D02*
D03*
Y337520D02*
D03*
X235000Y327520D02*
D03*
Y337520D02*
D03*
X245000Y327520D02*
D03*
Y337520D02*
D03*
X255000Y327520D02*
D03*
Y337520D02*
D03*
X265000Y327520D02*
D03*
Y337520D02*
D03*
X275000Y327520D02*
D03*
Y337520D02*
D03*
X285000Y327520D02*
D03*
Y337520D02*
D03*
X295000Y327520D02*
D03*
Y337520D02*
D03*
X305000Y327520D02*
D03*
Y337520D02*
D03*
Y357520D02*
D03*
Y347520D02*
D03*
X295000Y357520D02*
D03*
Y347520D02*
D03*
X285000Y357520D02*
D03*
Y347520D02*
D03*
X275000Y357520D02*
D03*
Y347520D02*
D03*
X265000Y357520D02*
D03*
Y347520D02*
D03*
X255000Y357520D02*
D03*
Y347520D02*
D03*
X245000Y357520D02*
D03*
Y347520D02*
D03*
X235000Y357520D02*
D03*
Y347520D02*
D03*
X225000Y357520D02*
D03*
Y347520D02*
D03*
X215000Y357520D02*
D03*
Y347520D02*
D03*
X185000Y357520D02*
D03*
Y347520D02*
D03*
X175000Y357520D02*
D03*
Y347520D02*
D03*
X165000Y357520D02*
D03*
Y347520D02*
D03*
X155000Y357520D02*
D03*
Y347520D02*
D03*
X145000Y357520D02*
D03*
Y347520D02*
D03*
X135000Y357520D02*
D03*
Y347520D02*
D03*
X125000Y357520D02*
D03*
X115000D02*
D03*
X105000D02*
D03*
Y347520D02*
D03*
X95000Y357520D02*
D03*
Y347520D02*
D03*
X85000Y357520D02*
D03*
Y347520D02*
D03*
X75000Y357520D02*
D03*
Y347520D02*
D03*
X65000Y357520D02*
D03*
X55000D02*
D03*
Y347520D02*
D03*
X65000D02*
D03*
D108*
X7480Y274646D02*
D03*
Y284646D02*
D03*
D109*
X215000Y327520D02*
D03*
Y337520D02*
D03*
X205000Y347520D02*
D03*
Y357520D02*
D03*
X195000Y347520D02*
D03*
Y357520D02*
D03*
D110*
X35000D02*
D03*
X325000D02*
D03*
X335000Y20000D02*
D03*
X20000D02*
D03*
D111*
X56791Y166831D02*
D03*
X80957Y180316D02*
D03*
X271500Y158814D02*
D03*
Y163186D02*
D03*
X271654Y219685D02*
D03*
Y223228D02*
D03*
Y226772D02*
D03*
Y229921D02*
D03*
X220600Y236162D02*
D03*
X146000Y236058D02*
D03*
X271654Y233071D02*
D03*
X229800Y235200D02*
D03*
X146358Y238918D02*
D03*
X146898Y241752D02*
D03*
X190500Y218700D02*
D03*
X346260Y332480D02*
D03*
X332480Y304921D02*
D03*
X346260Y277362D02*
D03*
X332480Y249803D02*
D03*
Y194685D02*
D03*
Y139567D02*
D03*
X346260Y112008D02*
D03*
X332480Y84449D02*
D03*
X346260Y56890D02*
D03*
X318701Y332480D02*
D03*
X304921Y304921D02*
D03*
X318701Y277362D02*
D03*
X304921Y249803D02*
D03*
X318701Y222244D02*
D03*
X304921Y194685D02*
D03*
X318701Y167126D02*
D03*
X304921Y139567D02*
D03*
X318701Y112008D02*
D03*
X304921Y84449D02*
D03*
X318701Y56890D02*
D03*
X304921Y29331D02*
D03*
X291142Y277362D02*
D03*
Y222244D02*
D03*
X277362Y194685D02*
D03*
X291142Y167126D02*
D03*
X277362Y139567D02*
D03*
X291142Y112008D02*
D03*
X277362Y84449D02*
D03*
X291142Y56890D02*
D03*
X277362Y29331D02*
D03*
X263583Y277362D02*
D03*
X249803Y194685D02*
D03*
X263583Y167126D02*
D03*
X249803Y139567D02*
D03*
X263583Y112008D02*
D03*
X249803Y84449D02*
D03*
X263583Y56890D02*
D03*
X249803Y29331D02*
D03*
X236024Y277362D02*
D03*
X222244Y194685D02*
D03*
X236024Y167126D02*
D03*
Y112008D02*
D03*
Y56890D02*
D03*
X222244Y29331D02*
D03*
X167126Y84449D02*
D03*
X180905Y56890D02*
D03*
X167126Y29331D02*
D03*
X153347Y112008D02*
D03*
X139567Y29331D02*
D03*
X125787Y277362D02*
D03*
Y222244D02*
D03*
X112008Y194685D02*
D03*
X125787Y112008D02*
D03*
Y56890D02*
D03*
X84449Y84449D02*
D03*
Y29331D02*
D03*
X56890Y304921D02*
D03*
X70669Y112008D02*
D03*
Y56890D02*
D03*
X56890Y29331D02*
D03*
X128400Y178200D02*
D03*
X62600Y171600D02*
D03*
X74000Y176000D02*
D03*
X88113Y185594D02*
D03*
X76406Y186058D02*
D03*
X157176Y185312D02*
D03*
X158100Y203801D02*
D03*
X143504Y202559D02*
D03*
X131693Y226181D02*
D03*
Y202559D02*
D03*
X137598Y190748D02*
D03*
X125787Y237992D02*
D03*
X119882Y226181D02*
D03*
Y202559D02*
D03*
X125787Y190748D02*
D03*
X113976Y237992D02*
D03*
X108071Y202559D02*
D03*
X113976Y190748D02*
D03*
X102165Y237992D02*
D03*
X96260Y226181D02*
D03*
Y202559D02*
D03*
X90354Y237992D02*
D03*
Y190748D02*
D03*
X36400Y120800D02*
D03*
X74014Y180403D02*
D03*
X45000Y73100D02*
D03*
X36500Y64400D02*
D03*
X40600Y81900D02*
D03*
X45100Y129900D02*
D03*
X40600Y137800D02*
D03*
X147400Y185100D02*
D03*
X142900Y159900D02*
D03*
X116500Y177686D02*
D03*
X131579Y180137D02*
D03*
X140551Y170374D02*
D03*
X138816Y172781D02*
D03*
X121300Y177500D02*
D03*
X136644Y175455D02*
D03*
X134269Y177951D02*
D03*
X108674Y172074D02*
D03*
X111807Y173507D02*
D03*
X99000Y178800D02*
D03*
X104864Y181100D02*
D03*
X97293Y170248D02*
D03*
X103100Y170900D02*
D03*
X92500Y184399D02*
D03*
X170844Y159577D02*
D03*
X168300Y161900D02*
D03*
X169000Y178500D02*
D03*
X183000Y164286D02*
D03*
X186544Y133000D02*
D03*
Y127000D02*
D03*
X203500Y139600D02*
D03*
X188000Y174500D02*
D03*
X145000Y132000D02*
D03*
X136445D02*
D03*
X128500D02*
D03*
X103700Y132200D02*
D03*
X140500Y132000D02*
D03*
X108200Y131314D02*
D03*
X133000Y132000D02*
D03*
X138631Y142500D02*
D03*
X155000Y263500D02*
D03*
X108000Y318500D02*
D03*
X114500D02*
D03*
X122500Y320000D02*
D03*
X126000Y319000D02*
D03*
X212046Y263646D02*
D03*
X208700Y295800D02*
D03*
X200500Y314500D02*
D03*
X198000Y275200D02*
D03*
X120000Y317500D02*
D03*
X121634Y304916D02*
D03*
X133000Y317000D02*
D03*
X126000Y288000D02*
D03*
X129500D02*
D03*
X135000Y314000D02*
D03*
X120000Y300000D02*
D03*
X52000Y299500D02*
D03*
X81800Y301500D02*
D03*
Y294600D02*
D03*
X95723Y279796D02*
D03*
X101400Y283700D02*
D03*
X234500Y295000D02*
D03*
X278937Y249016D02*
D03*
X278150Y256594D02*
D03*
X274016Y259154D02*
D03*
X24500Y299500D02*
D03*
X38500Y262000D02*
D03*
Y257000D02*
D03*
X188100Y186200D02*
D03*
X261319Y202953D02*
D03*
X218910Y181500D02*
D03*
X219900Y184800D02*
D03*
X158200Y259200D02*
D03*
X173800Y251800D02*
D03*
X162400Y256700D02*
D03*
X73800Y187300D02*
D03*
X182500Y185600D02*
D03*
X221714Y187600D02*
D03*
X254626Y206102D02*
D03*
X212900Y195200D02*
D03*
Y200200D02*
D03*
X59100Y242000D02*
D03*
X59500Y250600D02*
D03*
X81300Y240000D02*
D03*
X38500Y247000D02*
D03*
X222700Y238700D02*
D03*
X235300Y209100D02*
D03*
Y212700D02*
D03*
X231300Y241200D02*
D03*
X73700Y196400D02*
D03*
X73600Y191300D02*
D03*
X142964Y232023D02*
D03*
X143000Y228000D02*
D03*
X145892Y230000D02*
D03*
X142770Y235330D02*
D03*
X135200Y244100D02*
D03*
X129400Y244600D02*
D03*
X164600Y191900D02*
D03*
X182300Y193400D02*
D03*
X158500Y212200D02*
D03*
X159800Y191300D02*
D03*
X161000Y214900D02*
D03*
X165700Y209100D02*
D03*
X164900Y212800D02*
D03*
X182500Y218700D02*
D03*
X187900Y192600D02*
D03*
X142665Y222877D02*
D03*
X145951Y213382D02*
D03*
Y217882D02*
D03*
X135400Y195100D02*
D03*
X147400Y191000D02*
D03*
X140600Y194755D02*
D03*
X144200Y193555D02*
D03*
X145831Y224234D02*
D03*
X40500Y195000D02*
D03*
X36900Y190400D02*
D03*
X99205Y188758D02*
D03*
X49922Y67222D02*
D03*
X69922Y67722D02*
D03*
X50000Y124000D02*
D03*
X70000Y124500D02*
D03*
X33400Y179000D02*
D03*
X33200Y153300D02*
D03*
X62650Y175058D02*
D03*
X107932Y160392D02*
D03*
X110000Y152000D02*
D03*
X132557Y170966D02*
D03*
X146600Y160700D02*
D03*
X152200D02*
D03*
X149400D02*
D03*
X157351Y178165D02*
D03*
X186800Y122188D02*
D03*
X216400Y134212D02*
D03*
X207264Y137000D02*
D03*
X196300Y139400D02*
D03*
X216300Y118188D02*
D03*
X196800Y161000D02*
D03*
X201388D02*
D03*
X187637Y150831D02*
D03*
X86922Y68222D02*
D03*
X87000Y125000D02*
D03*
X152200Y157900D02*
D03*
X149400D02*
D03*
X146600D02*
D03*
X77725Y278532D02*
D03*
X46225D02*
D03*
X77400Y273100D02*
D03*
X74800Y260400D02*
D03*
X45900Y273100D02*
D03*
X122500Y255500D02*
D03*
X253966Y266857D02*
D03*
X162000Y57300D02*
D03*
Y60800D02*
D03*
X144000Y94200D02*
D03*
X217718Y92694D02*
D03*
X165800Y58800D02*
D03*
X223237Y58485D02*
D03*
X219437Y60485D02*
D03*
Y56985D02*
D03*
X203200Y192843D02*
D03*
X208807D02*
D03*
X240500Y198174D02*
D03*
X100208Y255143D02*
D03*
X203200Y243272D02*
D03*
X208807D02*
D03*
Y216843D02*
D03*
X203200D02*
D03*
X240500Y224626D02*
D03*
X62767Y198135D02*
D03*
X62600Y217685D02*
D03*
X157400Y223300D02*
D03*
D112*
X265000Y300000D02*
D03*
X261000D02*
D03*
X257000D02*
D03*
X253000D02*
D03*
Y304000D02*
D03*
X257000D02*
D03*
X265000D02*
D03*
X261000D02*
D03*
X257000Y308000D02*
D03*
X261000D02*
D03*
X265000D02*
D03*
X253000D02*
D03*
X265000Y312000D02*
D03*
X257000D02*
D03*
X253000D02*
D03*
X261000D02*
D03*
X159998Y320379D02*
D03*
X170002D02*
D03*
X180002Y320459D02*
D03*
X189998D02*
D03*
M02*
