G04*
G04 #@! TF.GenerationSoftware,Altium Limited,Altium Designer,25.0.2 (28)*
G04*
G04 Layer_Color=32896*
%FSLAX25Y25*%
%MOIN*%
G70*
G04*
G04 #@! TF.SameCoordinates,92B628A6-D60A-4015-8E16-F054796CA4EE*
G04*
G04*
G04 #@! TF.FilePolarity,Positive*
G04*
G01*
G75*
%ADD101C,0.02382*%
D101*
X143300Y215596D02*
D03*
X179938Y196000D02*
D03*
X180200Y222000D02*
D03*
X157549Y218575D02*
D03*
X176400Y254000D02*
D03*
X165000Y253100D02*
D03*
X159300D02*
D03*
X157400Y223300D02*
D03*
X168365Y241145D02*
D03*
X62600Y217685D02*
D03*
X62767Y198135D02*
D03*
X241500Y251500D02*
D03*
X240500Y224626D02*
D03*
X225136Y241136D02*
D03*
X203200Y216843D02*
D03*
X217600Y238086D02*
D03*
X208700Y230000D02*
D03*
X208807Y216843D02*
D03*
Y243272D02*
D03*
X203056Y230000D02*
D03*
X203200Y243272D02*
D03*
X100208Y255143D02*
D03*
X240500Y198174D02*
D03*
X208700Y204086D02*
D03*
X208807Y192843D02*
D03*
X203200Y204086D02*
D03*
X209400Y199700D02*
D03*
X203200Y192843D02*
D03*
X219437Y56985D02*
D03*
X231009Y52500D02*
D03*
X230984Y55300D02*
D03*
X223900Y70881D02*
D03*
X221100Y70857D02*
D03*
X219437Y60485D02*
D03*
X223237Y58485D02*
D03*
X165800Y58800D02*
D03*
X217718Y92694D02*
D03*
X201400Y93000D02*
D03*
X160000Y94200D02*
D03*
X166425Y71237D02*
D03*
X163625Y71213D02*
D03*
X141200Y61500D02*
D03*
X138400D02*
D03*
X198637Y61185D02*
D03*
X195837D02*
D03*
X144000Y94200D02*
D03*
X162000Y60800D02*
D03*
X141200Y58300D02*
D03*
X198637Y57985D02*
D03*
X195837D02*
D03*
X162000Y57300D02*
D03*
X173534Y52800D02*
D03*
X173509Y55600D02*
D03*
X138400Y58300D02*
D03*
X127300Y290800D02*
D03*
X133000Y311800D02*
D03*
X122200Y290900D02*
D03*
X132800Y319900D02*
D03*
X181300Y309800D02*
D03*
Y304200D02*
D03*
Y312600D02*
D03*
X180200Y291600D02*
D03*
Y294400D02*
D03*
X181300Y315400D02*
D03*
Y307000D02*
D03*
X30586Y278532D02*
D03*
X84800Y239900D02*
D03*
X77500Y244000D02*
D03*
X103664Y255400D02*
D03*
X76100Y265200D02*
D03*
X65000Y256400D02*
D03*
X62479Y273032D02*
D03*
X76200Y198800D02*
D03*
X43000Y192500D02*
D03*
X34000D02*
D03*
X76100Y193700D02*
D03*
X62454Y201565D02*
D03*
X62600Y221485D02*
D03*
X42200Y257000D02*
D03*
X38700Y243500D02*
D03*
X61900Y248100D02*
D03*
X58900Y238500D02*
D03*
X36600Y264900D02*
D03*
X30979Y273032D02*
D03*
X251000Y280000D02*
D03*
X253966Y266857D02*
D03*
X231427Y313027D02*
D03*
X107900Y321500D02*
D03*
X203000Y288000D02*
D03*
X125517Y255287D02*
D03*
X122500Y255500D02*
D03*
X62086Y278532D02*
D03*
X45900Y273100D02*
D03*
X74800Y260400D02*
D03*
X77400Y273100D02*
D03*
X46225Y278532D02*
D03*
X77725D02*
D03*
X188600Y294400D02*
D03*
Y291600D02*
D03*
X185800Y294400D02*
D03*
Y291600D02*
D03*
X184100Y315400D02*
D03*
Y312600D02*
D03*
Y307000D02*
D03*
Y304200D02*
D03*
Y309800D02*
D03*
X183000Y291600D02*
D03*
Y294400D02*
D03*
X107500Y140500D02*
D03*
X112500D02*
D03*
X122500D02*
D03*
X102500Y139500D02*
D03*
X97500D02*
D03*
X92500D02*
D03*
X117500Y140500D02*
D03*
X87500Y139500D02*
D03*
X99900Y172500D02*
D03*
X81000Y158500D02*
D03*
X99500D02*
D03*
X78000Y155500D02*
D03*
X99500Y154500D02*
D03*
X76500Y152000D02*
D03*
X90200Y149400D02*
D03*
X99912Y147400D02*
D03*
X76500Y147000D02*
D03*
X90300Y146200D02*
D03*
X146600Y157900D02*
D03*
X152400Y145100D02*
D03*
X155200D02*
D03*
X149600D02*
D03*
Y142300D02*
D03*
X152400D02*
D03*
X155200D02*
D03*
X149400Y157900D02*
D03*
X152200D02*
D03*
X87000Y125000D02*
D03*
X86848Y73808D02*
D03*
X86922Y68222D02*
D03*
X86926Y130586D02*
D03*
X203200Y179506D02*
D03*
X208700Y179900D02*
D03*
X187637Y150831D02*
D03*
X201388Y161000D02*
D03*
X210900Y156300D02*
D03*
X187600D02*
D03*
X196800Y161000D02*
D03*
X208127Y148457D02*
D03*
X216300Y118188D02*
D03*
X188400Y142800D02*
D03*
X196300Y139400D02*
D03*
X207264Y137000D02*
D03*
X198100Y132200D02*
D03*
X216400Y128700D02*
D03*
X216300Y123700D02*
D03*
X216400Y134212D02*
D03*
X194541Y117753D02*
D03*
X216165Y113247D02*
D03*
X186800Y122188D02*
D03*
X157351Y174365D02*
D03*
X180200Y172000D02*
D03*
X157351Y178165D02*
D03*
X149400Y160700D02*
D03*
X152200D02*
D03*
X146600D02*
D03*
X113000Y177700D02*
D03*
X124800Y177600D02*
D03*
X108296Y181404D02*
D03*
X109200Y175800D02*
D03*
X106240Y174523D02*
D03*
X101300Y181400D02*
D03*
X135445Y170399D02*
D03*
X132557Y170966D02*
D03*
X104132Y160392D02*
D03*
X110000Y152000D02*
D03*
X125000Y158500D02*
D03*
X116500D02*
D03*
X112500D02*
D03*
X125000Y153000D02*
D03*
X107932Y160392D02*
D03*
X101500Y152000D02*
D03*
X106919Y150459D02*
D03*
X103500Y149500D02*
D03*
X125000Y148000D02*
D03*
X107000Y145500D02*
D03*
X121000Y145000D02*
D03*
X103500Y144500D02*
D03*
X62650Y175058D02*
D03*
X33200Y153300D02*
D03*
X33400Y179000D02*
D03*
X76500Y142700D02*
D03*
X42914Y140800D02*
D03*
X82500Y139500D02*
D03*
X77500D02*
D03*
X50000Y132500D02*
D03*
X70046Y130980D02*
D03*
X48856Y128659D02*
D03*
X70000Y124500D02*
D03*
X50000Y124000D02*
D03*
X33914Y117400D02*
D03*
X8292Y143897D02*
D03*
X17070Y92500D02*
D03*
X49922Y75722D02*
D03*
X69968Y74202D02*
D03*
X48400Y72000D02*
D03*
X69922Y67722D02*
D03*
X49922Y67222D02*
D03*
X41700Y64200D02*
D03*
X42900Y84500D02*
D03*
X4355Y35425D02*
D03*
X21570Y89000D02*
D03*
X50500Y184500D02*
D03*
X95970Y187573D02*
D03*
X91000Y187500D02*
D03*
X62500Y178500D02*
D03*
X99205Y188758D02*
D03*
X36900Y190400D02*
D03*
X40500Y195000D02*
D03*
X145831Y224234D02*
D03*
X144200Y193555D02*
D03*
X140600Y194755D02*
D03*
X147400Y191000D02*
D03*
X135400Y195100D02*
D03*
X145951Y217882D02*
D03*
Y213382D02*
D03*
X142665Y222877D02*
D03*
X187900Y192600D02*
D03*
X182500Y218700D02*
D03*
X164900Y212800D02*
D03*
X165700Y209100D02*
D03*
X161000Y214900D02*
D03*
X159800Y191300D02*
D03*
X158500Y212200D02*
D03*
X182300Y193400D02*
D03*
X164600Y191900D02*
D03*
X129400Y244600D02*
D03*
X135200Y244100D02*
D03*
X142770Y235330D02*
D03*
X145892Y230000D02*
D03*
X143000Y228000D02*
D03*
X142964Y232023D02*
D03*
X73600Y191300D02*
D03*
X73700Y196400D02*
D03*
X231300Y241200D02*
D03*
X235300Y212700D02*
D03*
Y209100D02*
D03*
X222700Y238700D02*
D03*
X38500Y247000D02*
D03*
X81300Y240000D02*
D03*
X59500Y250600D02*
D03*
X59100Y242000D02*
D03*
X212900Y200200D02*
D03*
Y195200D02*
D03*
X254626Y206102D02*
D03*
X221714Y187600D02*
D03*
X182500Y185600D02*
D03*
X73800Y187300D02*
D03*
X162400Y256700D02*
D03*
X173800Y251800D02*
D03*
X158200Y259200D02*
D03*
X219900Y184800D02*
D03*
X218910Y181500D02*
D03*
X261319Y202953D02*
D03*
X188100Y186200D02*
D03*
X38500Y257000D02*
D03*
Y262000D02*
D03*
X24500Y299500D02*
D03*
X274016Y259154D02*
D03*
X278150Y256594D02*
D03*
X278937Y249016D02*
D03*
X234500Y295000D02*
D03*
X101400Y283700D02*
D03*
X95723Y279796D02*
D03*
X81800Y294600D02*
D03*
Y301500D02*
D03*
X52000Y299500D02*
D03*
X120000Y300000D02*
D03*
X135000Y314000D02*
D03*
X129500Y288000D02*
D03*
X126000D02*
D03*
X133000Y317000D02*
D03*
X121634Y304916D02*
D03*
X120000Y317500D02*
D03*
X198000Y275200D02*
D03*
X200500Y314500D02*
D03*
X208700Y295800D02*
D03*
X212046Y263646D02*
D03*
X126000Y319000D02*
D03*
X122500Y320000D02*
D03*
X114500Y318500D02*
D03*
X108000D02*
D03*
X155000Y263500D02*
D03*
X138631Y142500D02*
D03*
X133000Y132000D02*
D03*
X108200Y131314D02*
D03*
X140500Y132000D02*
D03*
X103700Y132200D02*
D03*
X128500Y132000D02*
D03*
X136445D02*
D03*
X145000D02*
D03*
X188000Y174500D02*
D03*
X203500Y139600D02*
D03*
X186544Y127000D02*
D03*
Y133000D02*
D03*
X183000Y164286D02*
D03*
X169000Y178500D02*
D03*
X168300Y161900D02*
D03*
X170844Y159577D02*
D03*
X92500Y184399D02*
D03*
X103100Y170900D02*
D03*
X97293Y170248D02*
D03*
X104864Y181100D02*
D03*
X99000Y178800D02*
D03*
X111807Y173507D02*
D03*
X108674Y172074D02*
D03*
X134269Y177951D02*
D03*
X136644Y175455D02*
D03*
X121300Y177500D02*
D03*
X138816Y172781D02*
D03*
X140551Y170374D02*
D03*
X131579Y180137D02*
D03*
X116500Y177686D02*
D03*
X142900Y159900D02*
D03*
X147400Y185100D02*
D03*
X40600Y137800D02*
D03*
X45100Y129900D02*
D03*
X40600Y81900D02*
D03*
X36500Y64400D02*
D03*
X45000Y73100D02*
D03*
X74014Y180403D02*
D03*
X36400Y120800D02*
D03*
X158100Y203801D02*
D03*
X158300Y200926D02*
D03*
X160700Y185312D02*
D03*
X157176D02*
D03*
X76406Y186058D02*
D03*
Y178371D02*
D03*
Y183000D02*
D03*
X88113Y185594D02*
D03*
X74000Y176000D02*
D03*
X62600Y171600D02*
D03*
X128400Y178200D02*
D03*
X190500Y218700D02*
D03*
X146898Y241752D02*
D03*
X146358Y238918D02*
D03*
X229800Y235200D02*
D03*
X271654Y233071D02*
D03*
X146000Y236058D02*
D03*
X220600Y236162D02*
D03*
X271654Y229921D02*
D03*
Y226772D02*
D03*
Y223228D02*
D03*
Y219685D02*
D03*
X271500Y163186D02*
D03*
Y158814D02*
D03*
X80957Y180316D02*
D03*
X56791Y166831D02*
D03*
X209055Y308661D02*
D03*
M02*
