G04*
G04 #@! TF.GenerationSoftware,Altium Limited,Altium Designer,25.0.2 (28)*
G04*
G04 Layer_Color=8388736*
%FSLAX25Y25*%
%MOIN*%
G70*
G04*
G04 #@! TF.SameCoordinates,92B628A6-D60A-4015-8E16-F054796CA4EE*
G04*
G04*
G04 #@! TF.FilePolarity,Negative*
G04*
G01*
G75*
%ADD44R,0.04140X0.04337*%
%ADD45R,0.03471X0.04258*%
%ADD46R,0.04337X0.03943*%
%ADD47R,0.04337X0.05912*%
%ADD48R,0.04258X0.03471*%
%ADD49R,0.01581X0.06207*%
%ADD50R,0.02959X0.06416*%
%ADD51R,0.09061X0.06502*%
%ADD52R,0.01581X0.05912*%
%ADD53R,0.06416X0.02959*%
%ADD54R,0.03943X0.04337*%
%ADD55R,0.01581X0.02270*%
%ADD56R,0.06207X0.01581*%
%ADD57R,0.04337X0.04140*%
%ADD58R,0.04101X0.03353*%
%ADD59R,0.02270X0.01384*%
%ADD60R,0.01384X0.02270*%
%ADD61R,0.01778X0.01581*%
%ADD62R,0.01581X0.01778*%
%ADD63R,0.04928X0.04928*%
%ADD64R,0.08274X0.03550*%
%ADD65R,0.05912X0.07487*%
%ADD66R,0.07880X0.05912*%
%ADD67R,0.11384X0.03313*%
%ADD68R,0.03353X0.04101*%
%ADD69R,0.02270X0.01581*%
%ADD70R,0.05124X0.09258*%
%ADD71R,0.03943X0.03550*%
%ADD72R,0.04731X0.07880*%
%ADD73R,0.04731X0.04731*%
%ADD74C,0.04731*%
%ADD75C,0.03943*%
%ADD76R,0.04731X0.04731*%
%ADD77C,0.06896*%
%ADD78R,0.08077X0.08077*%
%ADD79C,0.08077*%
%ADD80R,0.06896X0.06896*%
D44*
X169809Y54200D02*
D03*
X163509D02*
D03*
X220984Y53900D02*
D03*
X227283D02*
D03*
X240500Y219956D02*
D03*
Y214444D02*
D03*
X240500Y202844D02*
D03*
Y208356D02*
D03*
X214031Y308937D02*
D03*
Y303425D02*
D03*
X191644Y122144D02*
D03*
Y127656D02*
D03*
Y139156D02*
D03*
Y133644D02*
D03*
X35256Y278532D02*
D03*
X41555D02*
D03*
X73055D02*
D03*
X66756D02*
D03*
X33200Y163056D02*
D03*
Y157544D02*
D03*
X33200Y169044D02*
D03*
Y174556D02*
D03*
X193500Y298756D02*
D03*
Y293244D02*
D03*
X189993Y310640D02*
D03*
Y305128D02*
D03*
D45*
X244324Y281603D02*
D03*
X238812D02*
D03*
X244324Y286303D02*
D03*
X238812D02*
D03*
X235531Y313090D02*
D03*
X241043D02*
D03*
X108756Y157500D02*
D03*
X207359Y132200D02*
D03*
X201847D02*
D03*
X196993Y156247D02*
D03*
X191481D02*
D03*
X201581D02*
D03*
X207093D02*
D03*
X129244Y142500D02*
D03*
X134756D02*
D03*
X126500Y259000D02*
D03*
X120988D02*
D03*
X117256Y144500D02*
D03*
X111744D02*
D03*
X35649Y273032D02*
D03*
X41161D02*
D03*
X103244Y157500D02*
D03*
X74756Y256500D02*
D03*
X69244D02*
D03*
X99444Y264700D02*
D03*
X104956D02*
D03*
X72661Y273032D02*
D03*
X67150D02*
D03*
X176734Y315325D02*
D03*
X171222D02*
D03*
D46*
X239000Y298149D02*
D03*
Y291850D02*
D03*
X220474Y309134D02*
D03*
Y302835D02*
D03*
X244000Y291850D02*
D03*
Y298149D02*
D03*
X194982Y311034D02*
D03*
Y304734D02*
D03*
X204500Y299149D02*
D03*
Y292850D02*
D03*
X198500Y292850D02*
D03*
Y299150D02*
D03*
D47*
X237760Y306000D02*
D03*
X245240D02*
D03*
D48*
X254000Y276256D02*
D03*
Y270744D02*
D03*
X222400Y67156D02*
D03*
Y61644D02*
D03*
X165000Y67556D02*
D03*
Y62044D02*
D03*
X208700Y207744D02*
D03*
Y213256D02*
D03*
Y233744D02*
D03*
Y239256D02*
D03*
X211600Y118188D02*
D03*
Y123700D02*
D03*
X146002Y148642D02*
D03*
Y154154D02*
D03*
X129700Y148744D02*
D03*
Y154256D02*
D03*
X134601Y148686D02*
D03*
Y154198D02*
D03*
X161500Y218744D02*
D03*
Y224256D02*
D03*
Y178756D02*
D03*
Y173244D02*
D03*
X159300Y243744D02*
D03*
Y249256D02*
D03*
X58500Y197244D02*
D03*
Y202756D02*
D03*
Y172244D02*
D03*
Y177756D02*
D03*
X162000Y204456D02*
D03*
Y198944D02*
D03*
X58500Y216744D02*
D03*
Y222256D02*
D03*
X208700Y189256D02*
D03*
Y183744D02*
D03*
X81117Y67874D02*
D03*
Y73386D02*
D03*
X80917Y125074D02*
D03*
Y130586D02*
D03*
X180380Y286256D02*
D03*
Y280744D02*
D03*
D49*
X118834Y250043D02*
D03*
X116865D02*
D03*
X114897D02*
D03*
X105054D02*
D03*
X107023D02*
D03*
X108991D02*
D03*
X110960D02*
D03*
X112928D02*
D03*
X97180Y165492D02*
D03*
X75527D02*
D03*
X77495D02*
D03*
X79464D02*
D03*
X81432D02*
D03*
X83401D02*
D03*
X85369D02*
D03*
X87338D02*
D03*
X89306D02*
D03*
X91275D02*
D03*
X93243D02*
D03*
X95212D02*
D03*
X99149D02*
D03*
X101117D02*
D03*
X103086D02*
D03*
X105054D02*
D03*
X107023D02*
D03*
X108991D02*
D03*
X110960D02*
D03*
X112928D02*
D03*
X114897D02*
D03*
X116865D02*
D03*
X118834D02*
D03*
X120802D02*
D03*
X122771D02*
D03*
X124739D02*
D03*
X126708D02*
D03*
X128676D02*
D03*
X130645D02*
D03*
X132613D02*
D03*
X134582D02*
D03*
X136550D02*
D03*
X138519D02*
D03*
X140487D02*
D03*
X142456D02*
D03*
X144424D02*
D03*
Y250043D02*
D03*
X142456D02*
D03*
X140487D02*
D03*
X138519D02*
D03*
X136550D02*
D03*
X134582D02*
D03*
X132613D02*
D03*
X130645D02*
D03*
X128676D02*
D03*
X126708D02*
D03*
X124739D02*
D03*
X122771D02*
D03*
X120802D02*
D03*
X103086D02*
D03*
X101117D02*
D03*
X99149D02*
D03*
X97180D02*
D03*
X95212D02*
D03*
X93243D02*
D03*
X91275D02*
D03*
X89306D02*
D03*
X87338D02*
D03*
X85369D02*
D03*
X83401D02*
D03*
X81432D02*
D03*
X79464D02*
D03*
X77495D02*
D03*
X75527D02*
D03*
D50*
X149525Y60842D02*
D03*
X154525D02*
D03*
X144525D02*
D03*
X159525D02*
D03*
X144525Y82188D02*
D03*
X149525D02*
D03*
X154525D02*
D03*
X159525D02*
D03*
X206962Y60527D02*
D03*
X211962D02*
D03*
X67406Y306855D02*
D03*
X72406D02*
D03*
X35906Y306705D02*
D03*
X40905D02*
D03*
X62406Y306855D02*
D03*
X77406D02*
D03*
Y285509D02*
D03*
X72406D02*
D03*
X62406D02*
D03*
X67406D02*
D03*
X30906Y306705D02*
D03*
X45906D02*
D03*
Y285358D02*
D03*
X40905D02*
D03*
X30906D02*
D03*
X35906D02*
D03*
X216962Y60527D02*
D03*
X201962Y81873D02*
D03*
X206962D02*
D03*
X211962D02*
D03*
X216962D02*
D03*
X201962Y60527D02*
D03*
D51*
X157604Y39700D02*
D03*
X130384D02*
D03*
X146525D02*
D03*
X231096D02*
D03*
X214954D02*
D03*
X187954D02*
D03*
X204096D02*
D03*
X173746D02*
D03*
D52*
X246405Y257577D02*
D03*
X248374D02*
D03*
X240500Y274900D02*
D03*
X242468D02*
D03*
X244437D02*
D03*
X248374D02*
D03*
X244437Y257577D02*
D03*
X246405Y274900D02*
D03*
X242468Y257577D02*
D03*
X240500D02*
D03*
D53*
X175027Y222000D02*
D03*
Y237000D02*
D03*
Y232000D02*
D03*
Y227000D02*
D03*
X196373Y222000D02*
D03*
Y227000D02*
D03*
Y232000D02*
D03*
Y237000D02*
D03*
Y211000D02*
D03*
Y206000D02*
D03*
Y201000D02*
D03*
Y196000D02*
D03*
X175027Y201000D02*
D03*
Y206000D02*
D03*
Y211000D02*
D03*
Y196000D02*
D03*
X196373Y187000D02*
D03*
Y182000D02*
D03*
Y177000D02*
D03*
Y172000D02*
D03*
X175027Y177000D02*
D03*
Y182000D02*
D03*
Y187000D02*
D03*
Y172000D02*
D03*
D54*
X221920Y315243D02*
D03*
X215621D02*
D03*
D55*
X231427Y310183D02*
D03*
Y303585D02*
D03*
X229458D02*
D03*
X227490D02*
D03*
X225521D02*
D03*
Y310183D02*
D03*
X227490D02*
D03*
X229458D02*
D03*
D56*
X152251Y196941D02*
D03*
Y194972D02*
D03*
Y193004D02*
D03*
X67700Y232374D02*
D03*
Y228437D02*
D03*
Y222532D02*
D03*
Y224500D02*
D03*
Y226469D02*
D03*
Y234343D02*
D03*
Y236311D02*
D03*
Y238280D02*
D03*
X152251Y173319D02*
D03*
Y175287D02*
D03*
Y177256D02*
D03*
Y179224D02*
D03*
Y181193D02*
D03*
Y183161D02*
D03*
Y185130D02*
D03*
Y187098D02*
D03*
Y189067D02*
D03*
Y191035D02*
D03*
Y198909D02*
D03*
Y200878D02*
D03*
Y202847D02*
D03*
Y204815D02*
D03*
Y206784D02*
D03*
Y208752D02*
D03*
Y210721D02*
D03*
Y212689D02*
D03*
Y214657D02*
D03*
Y216626D02*
D03*
Y218595D02*
D03*
Y220563D02*
D03*
Y222532D02*
D03*
Y224500D02*
D03*
Y226469D02*
D03*
Y228437D02*
D03*
Y230405D02*
D03*
Y232374D02*
D03*
Y234343D02*
D03*
Y236311D02*
D03*
Y238280D02*
D03*
Y240248D02*
D03*
Y242217D02*
D03*
X67700D02*
D03*
Y240248D02*
D03*
Y230405D02*
D03*
Y220563D02*
D03*
Y218595D02*
D03*
Y216626D02*
D03*
Y214657D02*
D03*
Y212689D02*
D03*
Y210721D02*
D03*
Y208752D02*
D03*
Y206784D02*
D03*
Y204815D02*
D03*
Y202847D02*
D03*
Y200878D02*
D03*
Y198909D02*
D03*
Y196941D02*
D03*
Y194972D02*
D03*
Y193004D02*
D03*
Y191035D02*
D03*
Y189067D02*
D03*
Y187098D02*
D03*
Y185130D02*
D03*
Y183161D02*
D03*
Y181193D02*
D03*
Y179224D02*
D03*
Y177256D02*
D03*
Y175287D02*
D03*
Y173319D02*
D03*
D57*
X203200Y233350D02*
D03*
Y239650D02*
D03*
X203200Y183350D02*
D03*
Y189649D02*
D03*
X206100Y113200D02*
D03*
X211612D02*
D03*
X200098Y112205D02*
D03*
X194587D02*
D03*
X211384Y143398D02*
D03*
Y149697D02*
D03*
X203200Y213650D02*
D03*
Y207350D02*
D03*
X75317Y67831D02*
D03*
Y74130D02*
D03*
X75217Y124680D02*
D03*
Y130980D02*
D03*
X200494Y310916D02*
D03*
Y304616D02*
D03*
X198524Y281004D02*
D03*
Y287303D02*
D03*
X61000Y185500D02*
D03*
X55488D02*
D03*
X154750Y89500D02*
D03*
X160261D02*
D03*
X143769D02*
D03*
X149281D02*
D03*
X212206Y89000D02*
D03*
X217718D02*
D03*
X206718D02*
D03*
X201206D02*
D03*
D58*
X140202Y154254D02*
D03*
Y148742D02*
D03*
X192481Y150787D02*
D03*
Y145276D02*
D03*
X211600Y134117D02*
D03*
Y128605D02*
D03*
X151701Y148686D02*
D03*
Y154198D02*
D03*
X79500Y261512D02*
D03*
Y256000D02*
D03*
X165000Y243744D02*
D03*
Y249256D02*
D03*
X191936Y286256D02*
D03*
Y280744D02*
D03*
X186036Y286256D02*
D03*
Y280744D02*
D03*
D59*
X199507Y120731D02*
D03*
Y122700D02*
D03*
Y124669D02*
D03*
X206693D02*
D03*
Y122700D02*
D03*
Y120731D02*
D03*
D60*
X200147Y127277D02*
D03*
X202116D02*
D03*
X204084D02*
D03*
X206053D02*
D03*
Y118123D02*
D03*
X204084D02*
D03*
X202116D02*
D03*
X200147D02*
D03*
D61*
X199032Y146063D02*
D03*
Y148031D02*
D03*
X204937D02*
D03*
Y146063D02*
D03*
D62*
X199032Y150000D02*
D03*
X201000D02*
D03*
X202969D02*
D03*
X204937D02*
D03*
Y144094D02*
D03*
X202969D02*
D03*
X201000D02*
D03*
X199032D02*
D03*
D63*
X204874Y53200D02*
D03*
X214126D02*
D03*
X147399Y53700D02*
D03*
X156651D02*
D03*
X65374Y316000D02*
D03*
X74626D02*
D03*
X33874D02*
D03*
X43126D02*
D03*
D64*
X23917Y54230D02*
D03*
X25492Y58561D02*
D03*
X23917Y62892D02*
D03*
X23130Y67222D02*
D03*
X23917Y71553D02*
D03*
Y80214D02*
D03*
Y84545D02*
D03*
X23130Y75884D02*
D03*
X23917Y141245D02*
D03*
Y136914D02*
D03*
Y128253D02*
D03*
X23130Y123922D02*
D03*
X23917Y119591D02*
D03*
X25492Y115261D02*
D03*
X23917Y110930D02*
D03*
X23130Y132584D02*
D03*
D65*
X65453Y58915D02*
D03*
Y81356D02*
D03*
Y138056D02*
D03*
Y115615D02*
D03*
D66*
X10138Y35884D02*
D03*
X14075Y87655D02*
D03*
X10138Y92584D02*
D03*
X14075Y144355D02*
D03*
D67*
X27559Y241969D02*
D03*
Y246969D02*
D03*
X11535D02*
D03*
X27559Y251969D02*
D03*
Y256969D02*
D03*
Y261969D02*
D03*
X11535D02*
D03*
Y241969D02*
D03*
Y256969D02*
D03*
Y251969D02*
D03*
D68*
X159244Y239000D02*
D03*
X164756D02*
D03*
X99388Y259000D02*
D03*
X104900D02*
D03*
X86156Y143600D02*
D03*
X80644D02*
D03*
X94444Y143600D02*
D03*
X99956D02*
D03*
X176734Y310325D02*
D03*
X171222D02*
D03*
X176734Y305325D02*
D03*
X171222D02*
D03*
D69*
X180663Y297227D02*
D03*
Y301164D02*
D03*
X187261Y297227D02*
D03*
Y299195D02*
D03*
Y301164D02*
D03*
X180663Y299195D02*
D03*
D70*
X166395Y293739D02*
D03*
Y275629D02*
D03*
D71*
X113858Y149146D02*
D03*
X121142Y154854D02*
D03*
X113858D02*
D03*
X121142Y149146D02*
D03*
D72*
X95212Y153644D02*
D03*
X85369D02*
D03*
D73*
X204679Y27600D02*
D03*
X149457D02*
D03*
D74*
X214521D02*
D03*
X209600D02*
D03*
X154379D02*
D03*
X159300D02*
D03*
X25924Y209079D02*
D03*
Y214000D02*
D03*
Y186114D02*
D03*
Y191035D02*
D03*
Y163101D02*
D03*
Y168023D02*
D03*
D75*
X92479Y17913D02*
D03*
X97400D02*
D03*
X102321D02*
D03*
X107243D02*
D03*
X112164D02*
D03*
X117085D02*
D03*
X186979Y27400D02*
D03*
X182057D02*
D03*
X177136D02*
D03*
X172215D02*
D03*
X191900D02*
D03*
D76*
X25924Y218921D02*
D03*
Y195957D02*
D03*
Y172944D02*
D03*
D77*
X115000Y347520D02*
D03*
X125000D02*
D03*
X215000Y327520D02*
D03*
Y337520D02*
D03*
X55000D02*
D03*
X65000Y327520D02*
D03*
Y337520D02*
D03*
X75000Y327520D02*
D03*
Y337520D02*
D03*
X85000Y327520D02*
D03*
Y337520D02*
D03*
X95000Y327520D02*
D03*
Y337520D02*
D03*
X105000Y327520D02*
D03*
Y337520D02*
D03*
X115000Y327520D02*
D03*
Y337520D02*
D03*
X125000Y327520D02*
D03*
Y337520D02*
D03*
X135000Y327520D02*
D03*
Y337520D02*
D03*
X145000Y327520D02*
D03*
Y337520D02*
D03*
X155000Y327520D02*
D03*
Y337520D02*
D03*
X165000Y327520D02*
D03*
Y337520D02*
D03*
X175000Y327520D02*
D03*
Y337520D02*
D03*
X185000Y327520D02*
D03*
Y337520D02*
D03*
X195000Y327520D02*
D03*
Y337520D02*
D03*
X205000Y327520D02*
D03*
Y337520D02*
D03*
X225000Y327520D02*
D03*
Y337520D02*
D03*
X235000Y327520D02*
D03*
Y337520D02*
D03*
X245000Y327520D02*
D03*
Y337520D02*
D03*
X255000Y327520D02*
D03*
Y337520D02*
D03*
X265000Y327520D02*
D03*
Y337520D02*
D03*
X275000Y327520D02*
D03*
Y337520D02*
D03*
X285000Y327520D02*
D03*
Y337520D02*
D03*
X295000Y327520D02*
D03*
Y337520D02*
D03*
X305000Y327520D02*
D03*
Y337520D02*
D03*
X205000Y347520D02*
D03*
Y357520D02*
D03*
X195000Y347520D02*
D03*
Y357520D02*
D03*
X305000D02*
D03*
Y347520D02*
D03*
X295000Y357520D02*
D03*
Y347520D02*
D03*
X285000Y357520D02*
D03*
Y347520D02*
D03*
X275000Y357520D02*
D03*
Y347520D02*
D03*
X265000Y357520D02*
D03*
Y347520D02*
D03*
X255000Y357520D02*
D03*
Y347520D02*
D03*
X245000Y357520D02*
D03*
Y347520D02*
D03*
X235000Y357520D02*
D03*
Y347520D02*
D03*
X225000Y357520D02*
D03*
Y347520D02*
D03*
X215000Y357520D02*
D03*
Y347520D02*
D03*
X185000Y357520D02*
D03*
Y347520D02*
D03*
X175000Y357520D02*
D03*
Y347520D02*
D03*
X165000Y357520D02*
D03*
Y347520D02*
D03*
X155000Y357520D02*
D03*
Y347520D02*
D03*
X145000Y357520D02*
D03*
Y347520D02*
D03*
X135000Y357520D02*
D03*
Y347520D02*
D03*
X125000Y357520D02*
D03*
X115000D02*
D03*
X105000D02*
D03*
Y347520D02*
D03*
X95000Y357520D02*
D03*
Y347520D02*
D03*
X85000Y357520D02*
D03*
Y347520D02*
D03*
X75000Y357520D02*
D03*
Y347520D02*
D03*
X65000Y357520D02*
D03*
X55000D02*
D03*
X65000Y347520D02*
D03*
D78*
X7480Y274646D02*
D03*
D79*
Y284646D02*
D03*
D80*
X55000Y327520D02*
D03*
Y347520D02*
D03*
M02*
