M48
;Layer_Color=9474304
;FILE_FORMAT=4:4
METRIC,TZ
;TYPE=PLATED
T01F00S00C0.3000
T02F00S00C0.5080
T03F00S00C0.5500
T04F00S00C0.7000
T05F00S00C1.1000
T06F00S00C1.3000
T07F00S00C3.1800
%
T01
X11062Y89980
X144500Y74500
X214500
X179500Y144500
X177602Y172014
X177718Y188472
X220594Y187472
X220782Y173284
X214500Y214500
X179500Y284500
X177800Y316230
X177916Y332688
X196850Y354330
X194310Y362458
Y373380
Y386080
X198120Y394970
X229108Y379476
X229362Y371348
X234950Y354330
X222250
X209550
X220792Y331688
X220980Y317500
X263398Y335788
X274828Y333538
X273050Y356870
X285750
X298450
X311150
X307340Y368300
X317500Y375920
Y388620
X279400Y386080
X271574Y382167
X262890Y379730
X257810Y386080
X252730Y392430
X253776Y374396
X262890Y367030
X271780Y369570
X260350Y354330
X247650
X326390Y335280
X337820
X346570
X356870
X368300
X379984Y361442
X387096
X394208
Y368554
X387096
X379984
X352122Y361950
X319500Y284500
X389500
X365760Y239268
X358648Y156210
X351536
Y148082
X358648
X319500Y144500
X354500Y74500
X126802Y170744
X122936Y182880
X114300Y185674
X126802Y192334
X103124Y208026
X108966Y214630
X105918Y163068
X92710Y163576
X54788Y226060
X43358Y234950
X86142Y298196
X92456Y306832
X127000Y314960
X124094Y326795
X127000Y336550
X114554Y329946
X103124Y350012
X109002Y357632
X84328Y389382
X21062Y365498
X478536Y362712
X476597Y383112
X473822Y337820
Y322580
X474472Y310358
X494134Y299092
X503174Y335788
X498602Y354076
X516890Y354584
X526451Y347980
X549656Y340898
Y326898
X549402Y314198
X549402Y300198
X549058Y287648
X599500Y284500
X669500
X739500
X774500Y354500
X704500
X634500
X528644Y377080
X511556Y236220
X553004Y235443
X561594Y179976
X568706Y180038
X567022Y148552
X557370Y144742
Y153632
X586700Y140462
X586762Y133350
X599500Y144500
X669500
X739500
X774500Y214500
X704500
X634500
Y74500
X704500
X774500
X564500
X504538Y147282
X497426
Y155410
X504538
X459500Y144500
X440714Y141224
X440776Y134112
X421132Y149352
X411480Y145542
Y154432
X415608Y180880
X422720Y180942
X424500Y214500
X406400Y239268
X424500Y74500
X809500Y144500
X879500
X844500Y214500
X879500Y284500
X809500
X844500Y354500
X809500Y424500
X844500Y494500
X809500Y564500
X844500Y634500
X879500Y704500
X809500
X844500Y774500
X774500
X739500Y704500
X669500
X637540Y711200
X645074Y677817
X696000Y658250
X706500Y651750
X708500Y632500
X690000Y592000
Y584000
Y576000
Y567000
Y558000
X739500Y564500
X774500Y634500
Y494500
X704500
X663750Y515500
X646750Y523500
X634500Y494500
X610870Y503362
X597662Y531114
Y540258
X610870Y570550
X583692Y597408
X587502Y612648
X571845Y612485
X565658Y606298
X560324Y599851
X552704Y604738
X530370Y617910
X516128
X515761Y584200
X530098
X530370Y550781
X516128
X516128Y518378
X530098
X531876Y507238
X540766Y508508
Y495808
X530370Y489821
X516128
X516128Y455946
X530098Y456946
X556032Y461011
X558546Y469392
X563154Y476504
X564500Y494500
X477266Y489204
X463042Y491236
X457042Y497840
X463550Y471424
X477774Y472948
X477520Y443230
X457708Y436880
X464820Y417286
X476504Y397002
X499872Y408940
X511525
X535686Y397002
X599500Y424500
X669500
X689610Y414492
Y403388
X739500Y424500
X433944Y405326
X427482Y411226
X429260Y453390
X399672Y452540
Y442888
X399228Y470693
X408178
X405892Y485902
X418084Y487426
X402082Y510351
X401574Y517653
X402590Y538988
X408940Y545846
X418846Y540512
X420878Y531114
X400175Y555180
X399796Y567182
X457708Y563880
X463550Y555498
X483870
X427648Y612508
X419100Y642874
X404622
X412496Y652018
X401828Y658368
X441452Y639572
X448056Y645160
X457708Y740664
X464820
Y747776
X471932
Y740664
X479044
Y747776
X457708
X460502Y772668
X467614
Y779780
Y786892
X460502
Y779780
X531000Y784000
X530098Y751332
X515620Y731520
X502920Y699008
X538596Y669660
X599500Y704500
X595630Y749300
X613410Y638810
X393700Y669290
X373120Y614051
X371750Y606851
X370840Y599588
X362637Y597737
X363129Y589339
X363220Y579120
X370567Y584200
X370410Y569555
X362368Y566108
X363982Y547614
X370716Y541990
Y553420
X364500Y514500
X366268Y491630
X357124Y494678
X343916Y495554
X349500Y484500
X374396Y485140
Y470154
X341045Y451995
X347076Y445656
X352592Y438863
X357000Y432750
X344030Y432813
X336696Y434254
X334211Y457547
X326136Y452628
X316992Y451104
X308102Y450850
X295910Y451322
X287020Y451358
X283989Y440707
X276032Y437068
X277368Y446532
X269851Y443289
X261874Y434086
X253746Y438150
X247124Y432431
X251460Y454152
X257302Y460756
X266355Y459994
X275071Y460767
X289500Y484500
X284500Y494500
X274500Y514500
X304500
X334500
X319500Y484500
X251981Y479446
X243765Y476437
X231140Y476250
X229500Y484500
X223807Y471408
X234950Y468373
X205631Y458002
X194070Y453062
X187997Y458224
X187960Y447040
X194070Y464820
Y472587
X187452Y475742
X186944Y485902
X193294Y491998
X187198Y498856
X193548Y504952
X159429Y503262
X158634Y511976
X159004Y552920
Y562572
X149606Y605790
X150114Y614680
X157226Y630174
X151130Y636524
X165100Y651256
X189992Y661416
X193294Y673608
X196596Y693674
X197422Y707470
X157698
X158698Y693500
X116586Y693674
X117412Y707470
X77688
X78688Y693500
X92964Y672846
X97790Y665480
Y652780
X107188
X97790Y627380
X98298Y618490
X196850Y619760
X206502Y609600
X215392Y609346
X229500Y604500
X259500
X289500
X319500
X328676Y621284
X343408Y620014
X318814Y648429
X311150Y648970
X263307Y648716
X254528Y648064
X243136Y710682
X257556Y720598
X310388Y738886
X323342Y738632
X320040Y731520
X328930
X319500Y704500
X304800Y762000
X308950Y774485
X337820Y791972
X207772Y765810
Y748284
X132080Y760730
X144500Y774500
X62230Y760730
X86360Y488950
X93726Y483616
X102870Y495300
X109220Y488950
X128270Y468630
X158750Y453390
X159132Y444648
X159004Y435864
X144250Y423750
X205740Y402590
X252730
X264496Y407396
X274148
X285750Y402590
X295910
X317500
X362966Y406146
X372364Y408178
X379476
X386588
Y401066
X379476
X372364
X334500Y574500
X319500Y564500
X304500Y574500
X244500
Y514500
X84836Y454660
X274320Y808990
X274066Y816610
X290830Y808990
X304800Y806450
X311150Y812800
X320040Y810260
X337312Y812546
X337820Y805180
X342900Y797560
X460502Y801116
X467614
Y794004
X460502
X509270Y798830
X587824Y795088
X809500Y844500
X879500
T02
X312622Y94742
Y106934
X311404Y347472
X228600Y344170
X457748Y106934
Y94742
X605536Y94742
Y106934
X642620Y762000
X652780
X662940
X673100
Y772160
X662940
X652780
X642620
Y782320
X652780
X662940
X673100
Y792480
X662940
X652780
X642620
X401320Y784860
X370840
X8890Y652780
Y635000
Y614680
X370840Y797560
X401320
X406395Y813762
X431805
X457205Y813965
X482595
T03
X234896Y45500
X247396
X259896
X272396
X284896
X297396
X437426Y69596
X449926
X462426
X474926
X487426
T04
X379622Y70104
X392122
X404622
X519884
X532384
X544884
X65846Y414278
Y426778
Y439278
Y472730
Y485230
Y497730
Y531060
Y543560
Y556060
T05
X139700Y831900
Y857300
X165100
Y831900
X190500
Y857300
X215900
Y831900
X241300
Y857300
X266700
Y831900
X292100
Y857300
Y882700
X317500
Y857300
Y831900
X342900
Y857300
X368300
Y831900
X393700
Y857300
Y882700
Y908100
X368300
Y882700
X342900
Y908100
X317500
X292100
X266700
Y882700
X241300
Y908100
X215900
Y882700
X190500
Y908100
X165100
X139700
Y882700
X165100
X419100
Y857300
Y831900
X444500
Y857300
X469900
Y831900
X495300
Y857300
X520700
X546100
Y831900
X520700
X571500
Y857300
X596900
Y831900
X622300
Y857300
X647700
Y831900
X673100
Y857300
X698500
Y831900
X723900
Y857300
X749300
Y831900
X774700
Y857300
Y882700
Y908100
X749300
Y882700
X723900
Y908100
X698500
Y882700
X673100
Y908100
X647700
Y882700
X622300
Y908100
X596900
Y882700
X571500
Y908100
X546100
X520700
Y882700
X495300
Y908100
X469900
Y882700
X444500
Y908100
X419100
X546100Y882700
T06
X19000Y697600
Y723000
T07
X50800Y50800
X850900
X88900Y908100
X825500
M30
