G04*
G04 #@! TF.GenerationSoftware,Altium Limited,Altium Designer,25.0.2 (28)*
G04*
G04 Layer_Color=8388736*
%FSLAX25Y25*%
%MOIN*%
G70*
G04*
G04 #@! TF.SameCoordinates,92B628A6-D60A-4015-8E16-F054796CA4EE*
G04*
G04*
G04 #@! TF.FilePolarity,Positive*
G04*
G01*
G75*
%ADD10C,0.00787*%
%ADD11C,0.00394*%
D10*
X163509Y55775D02*
X169809D01*
Y52625D02*
Y55775D01*
X163509Y52625D02*
X169809D01*
X163509D02*
Y55775D01*
X220984Y55475D02*
X227283D01*
Y52325D02*
Y55475D01*
X220984Y52325D02*
X227283D01*
X220984D02*
Y55475D01*
X197805Y9880D02*
Y31534D01*
X166309D02*
X197805D01*
X166309Y9880D02*
Y31534D01*
Y9880D02*
X197805D01*
X201625Y239650D02*
X204775D01*
X201625Y233350D02*
Y239650D01*
Y233350D02*
X204775D01*
Y239650D01*
X201625Y189649D02*
X204775D01*
X201625Y183350D02*
Y189649D01*
Y183350D02*
X204775D01*
Y189649D01*
X198179Y116795D02*
X208021D01*
Y128605D01*
X198179D02*
X208021D01*
X198179Y116795D02*
Y128605D01*
X209810Y143398D02*
Y149697D01*
X212959D01*
Y143398D02*
Y149697D01*
X209810Y143398D02*
X212959D01*
X198047Y143110D02*
X205921D01*
Y150984D01*
X198047D02*
X205921D01*
X198047Y143110D02*
Y150984D01*
X67027Y34309D02*
Y89427D01*
X6201Y34309D02*
X67027D01*
X6201D02*
Y89427D01*
X67027D01*
X6201Y146127D02*
X67027D01*
X6201Y91009D02*
Y146127D01*
Y91009D02*
X67027D01*
Y146127D01*
X41555Y276957D02*
Y280106D01*
X35256D02*
X41555D01*
X35256Y276957D02*
Y280106D01*
Y276957D02*
X41555D01*
X26299Y239469D02*
Y264469D01*
X12795D02*
X26299D01*
X12795Y239469D02*
Y264469D01*
Y239469D02*
X26299D01*
X66756Y276957D02*
X73055D01*
X66756D02*
Y280106D01*
X73055D01*
Y276957D02*
Y280106D01*
X204775Y207350D02*
Y213650D01*
X201625Y207350D02*
X204775D01*
X201625D02*
Y213650D01*
X204775D01*
X73742Y67831D02*
Y74130D01*
X76892D01*
Y67831D02*
Y74130D01*
X73742Y67831D02*
X76892D01*
X73642Y124680D02*
Y130980D01*
X76792D01*
Y124680D02*
Y130980D01*
X73642Y124680D02*
X76792D01*
X202069Y304616D02*
Y310916D01*
X198919Y304616D02*
X202069D01*
X198919D02*
Y310916D01*
X202069D01*
X196949Y281004D02*
X200098D01*
Y287303D01*
X196949D02*
X200098D01*
X196949Y281004D02*
Y287303D01*
X66063Y318460D02*
X73937D01*
Y313539D02*
Y318460D01*
X66063Y313539D02*
X73937D01*
X66063D02*
Y318460D01*
X34563D02*
X42437D01*
Y313539D02*
Y318460D01*
X34563Y313539D02*
X42437D01*
X34563D02*
Y318460D01*
X155962Y51239D02*
Y56161D01*
X148088D02*
X155962D01*
X148088Y51239D02*
Y56161D01*
Y51239D02*
X155962D01*
X205563Y50739D02*
X213437D01*
X205563D02*
Y55661D01*
X213437D01*
Y50739D02*
Y55661D01*
D11*
X238419Y280028D02*
Y283178D01*
Y280028D02*
X244718D01*
Y283178D01*
X238419D02*
X244718D01*
X238419Y284728D02*
Y287878D01*
Y284728D02*
X244718D01*
Y287878D01*
X238419D02*
X244718D01*
X237327Y291850D02*
X240673D01*
Y298149D01*
X237327D02*
X240673D01*
X237327Y291850D02*
Y298149D01*
X245437Y303539D02*
Y308461D01*
X237563D02*
X245437D01*
X237563Y303539D02*
Y308461D01*
Y303539D02*
X245437D01*
X252425Y276650D02*
X255575D01*
X252425Y270350D02*
Y276650D01*
Y270350D02*
X255575D01*
Y276650D01*
X242075Y214247D02*
Y220153D01*
X238925Y214247D02*
X242075D01*
X238925D02*
Y220153D01*
X242075D01*
X238925Y202647D02*
Y208553D01*
X242075D01*
Y202647D02*
Y208553D01*
X238925Y202647D02*
X242075D01*
X198773Y31734D02*
X220427D01*
Y10080D02*
Y31734D01*
X198773Y10080D02*
X220427D01*
X198773D02*
Y31734D01*
X143552D02*
X165205D01*
Y10080D02*
Y31734D01*
X143552Y10080D02*
X165205D01*
X143552D02*
Y31734D01*
X8404Y224827D02*
X30057D01*
X8404Y203173D02*
Y224827D01*
Y203173D02*
X30057D01*
Y224827D01*
X8404Y201862D02*
X30057D01*
X8404Y180209D02*
Y201862D01*
Y180209D02*
X30057D01*
Y201862D01*
X8404Y178849D02*
X30057D01*
X8404Y157196D02*
Y178849D01*
Y157196D02*
X30057D01*
Y178849D01*
X163425Y61650D02*
Y67950D01*
X166575D01*
Y61650D02*
Y67950D01*
X163425Y61650D02*
X166575D01*
X156679Y79184D02*
X161679Y74184D01*
X142372Y79184D02*
X161679D01*
X142372Y63846D02*
Y79184D01*
Y63846D02*
X161679D01*
Y79184D01*
X128533Y44810D02*
X148375D01*
Y34590D02*
Y44810D01*
X128533Y34590D02*
X148375D01*
X128533D02*
Y44810D01*
X232946Y34590D02*
Y44810D01*
X213104D02*
X232946D01*
X213104Y34590D02*
Y44810D01*
Y34590D02*
X232946D01*
X186104D02*
Y44810D01*
Y34590D02*
X205946D01*
Y44810D01*
X186104D02*
X205946D01*
X155754Y34590D02*
X175596D01*
X155754D02*
Y44810D01*
X175596D01*
Y34590D02*
Y44810D01*
X178031Y239154D02*
X193369D01*
Y219847D02*
Y239154D01*
X178031Y219847D02*
X193369D01*
X178031D02*
Y239154D01*
Y234154D02*
X183031Y239154D01*
X212456Y309134D02*
X215606D01*
X212456Y303228D02*
Y309134D01*
Y303228D02*
X215606D01*
Y309134D01*
X215621Y313569D02*
X221920D01*
X215621D02*
Y316916D01*
X221920D01*
Y313569D02*
Y316916D01*
X218801Y302835D02*
X222147D01*
Y309134D01*
X218801D02*
X222147D01*
X218801Y302835D02*
Y309134D01*
X230639Y309246D02*
X232608Y307278D01*
X224340Y309246D02*
X232608D01*
X224340Y304522D02*
Y309246D01*
Y304522D02*
X232608D01*
Y309246D01*
X241437Y311516D02*
Y314665D01*
X235138D02*
X241437D01*
X235138Y311516D02*
Y314665D01*
Y311516D02*
X241437D01*
X238531Y262302D02*
X240500Y260333D01*
X238531D02*
X250342D01*
Y272144D01*
X238531D02*
X250342D01*
X238531Y260333D02*
Y272144D01*
X242327Y291850D02*
Y298149D01*
X245673D01*
Y291850D02*
Y298149D01*
X242327Y291850D02*
X245673D01*
X2185Y269350D02*
X12776D01*
X2185D02*
Y289941D01*
X12776D01*
Y269350D02*
Y289941D01*
X207125Y213650D02*
X210275D01*
X207125Y207350D02*
Y213650D01*
Y207350D02*
X210275D01*
Y213650D01*
X207125Y239650D02*
X210275D01*
X207125Y233350D02*
Y239650D01*
Y233350D02*
X210275D01*
Y239650D01*
X178031Y208154D02*
X183031Y213154D01*
X178031Y193847D02*
Y213154D01*
Y193847D02*
X193369D01*
Y213154D01*
X178031D02*
X193369D01*
X141776Y148348D02*
Y154647D01*
X138627Y148348D02*
X141776D01*
X138627D02*
Y154647D01*
X141776D01*
X205903Y114775D02*
X211809D01*
Y111625D02*
Y114775D01*
X205903Y111625D02*
X211809D01*
X205903D02*
Y114775D01*
X210025Y117795D02*
Y124094D01*
X213175D01*
Y117795D02*
Y124094D01*
X210025Y117795D02*
X213175D01*
X190069Y121947D02*
Y127853D01*
X193219D01*
Y121947D02*
Y127853D01*
X190069Y121947D02*
X193219D01*
X194390Y110630D02*
X200295D01*
X194390D02*
Y113779D01*
X200295D01*
Y110630D02*
Y113779D01*
X201453Y130625D02*
X207752D01*
X201453D02*
Y133775D01*
X207752D01*
Y130625D02*
Y133775D01*
X193219Y133447D02*
Y139353D01*
X190069Y133447D02*
X193219D01*
X190069D02*
Y139353D01*
X193219D01*
X194056Y144882D02*
Y151181D01*
X190906Y144882D02*
X194056D01*
X190906D02*
Y151181D01*
X194056D01*
X191087Y154672D02*
X197387D01*
X191087D02*
Y157822D01*
X197387D01*
Y154672D02*
Y157822D01*
X201187D02*
X207486D01*
Y154672D02*
Y157822D01*
X201187Y154672D02*
X207486D01*
X201187D02*
Y157822D01*
X213175Y128212D02*
Y134511D01*
X210025Y128212D02*
X213175D01*
X210025D02*
Y134511D01*
X213175D01*
X135150Y140925D02*
Y144075D01*
X128850D02*
X135150D01*
X128850Y140925D02*
Y144075D01*
Y140925D02*
X135150D01*
X120595Y257425D02*
Y260575D01*
Y257425D02*
X126894D01*
Y260575D01*
X120595D02*
X126894D01*
X150127Y154591D02*
X153276D01*
X150127Y148292D02*
Y154591D01*
Y148292D02*
X153276D01*
Y154591D01*
X144427Y154547D02*
X147576D01*
X144427Y148248D02*
Y154547D01*
Y148248D02*
X147576D01*
Y154547D01*
X128125Y154650D02*
X131275D01*
X128125Y148351D02*
Y154650D01*
Y148351D02*
X131275D01*
Y154650D01*
X133027Y154591D02*
X136176D01*
X133027Y148292D02*
Y154591D01*
Y148292D02*
X136176D01*
Y154591D01*
X111350Y142925D02*
Y146075D01*
Y142925D02*
X117649D01*
Y146075D01*
X111350D02*
X117649D01*
X159925Y224650D02*
X163075D01*
X159925Y218350D02*
Y224650D01*
Y218350D02*
X163075D01*
Y224650D01*
X41555Y271457D02*
Y274606D01*
X35256D02*
X41555D01*
X35256Y271457D02*
Y274606D01*
Y271457D02*
X41555D01*
X77925Y255606D02*
X81075D01*
Y261905D01*
X77925D02*
X81075D01*
X77925Y255606D02*
Y261905D01*
X70606Y168398D02*
Y247138D01*
X149346D01*
Y168398D02*
Y247138D01*
X70606Y168398D02*
X149346D01*
X70606Y170366D02*
X72574Y168398D01*
X49016Y322776D02*
Y343445D01*
X310984D01*
Y322776D02*
Y343445D01*
X49016Y322776D02*
X310984D01*
X49016Y342776D02*
X310984D01*
Y363445D01*
X49016D02*
X310984D01*
X49016Y342776D02*
Y363445D01*
X163425Y243350D02*
Y249650D01*
X166575D01*
Y243350D02*
Y249650D01*
X163425Y243350D02*
X166575D01*
X163075Y172850D02*
Y179149D01*
X159925Y172850D02*
X163075D01*
X159925D02*
Y179149D01*
X163075D01*
X157725Y243350D02*
Y249650D01*
X160875D01*
Y243350D02*
Y249650D01*
X157725Y243350D02*
X160875D01*
X56925Y196850D02*
Y203150D01*
X60075D01*
Y196850D02*
Y203150D01*
X56925Y196850D02*
X60075D01*
X56925Y171850D02*
Y178149D01*
X60075D01*
Y171850D02*
Y178149D01*
X56925Y171850D02*
X60075D01*
X163575Y198550D02*
Y204850D01*
X160425Y198550D02*
X163575D01*
X160425D02*
Y204850D01*
X163575D01*
X102850Y155925D02*
X109150D01*
X102850D02*
Y159075D01*
X109150D01*
Y155925D02*
Y159075D01*
X56925Y216350D02*
Y222650D01*
X60075D01*
Y216350D02*
Y222650D01*
X56925Y216350D02*
X60075D01*
X68850Y254925D02*
X75150D01*
X68850D02*
Y258075D01*
X75150D01*
Y254925D02*
Y258075D01*
X158851Y240575D02*
X165150D01*
Y237425D02*
Y240575D01*
X158851Y237425D02*
X165150D01*
X158851D02*
Y240575D01*
X98995Y260575D02*
X105294D01*
Y257425D02*
Y260575D01*
X98995Y257425D02*
X105294D01*
X98995D02*
Y260575D01*
X99050Y266275D02*
X105350D01*
Y263125D02*
Y266275D01*
X99050Y263125D02*
X105350D01*
X99050D02*
Y266275D01*
X80250Y142025D02*
X86550D01*
X80250D02*
Y145175D01*
X86550D01*
Y142025D02*
Y145175D01*
X94051Y145175D02*
X100350D01*
Y142025D02*
Y145175D01*
X94051Y142025D02*
X100350D01*
X94051D02*
Y145175D01*
X66756Y271457D02*
X73055D01*
X66756D02*
Y274606D01*
X73055D01*
Y271457D02*
Y274606D01*
X210275Y183350D02*
Y189649D01*
X207125Y183350D02*
X210275D01*
X207125D02*
Y189649D01*
X210275D01*
X79542Y67480D02*
Y73779D01*
X82692D01*
Y67480D02*
Y73779D01*
X79542Y67480D02*
X82692D01*
X79342Y124680D02*
Y130980D01*
X82492D01*
Y124680D02*
Y130980D01*
X79342Y124680D02*
X82492D01*
X190361Y280350D02*
X193511D01*
Y286650D01*
X190361D02*
X193511D01*
X190361Y280350D02*
Y286650D01*
X184461Y280350D02*
X187611D01*
Y286650D01*
X184461D02*
X187611D01*
X184461Y280350D02*
Y286650D01*
X178806Y280350D02*
X181955D01*
Y286650D01*
X178806D02*
X181955D01*
X178806Y280350D02*
Y286650D01*
X170828Y308750D02*
Y311900D01*
Y308750D02*
X177127D01*
Y311900D01*
X170828D02*
X177127D01*
X170828Y306900D02*
X177127D01*
Y303750D02*
Y306900D01*
X170828Y303750D02*
X177127D01*
X170828D02*
Y306900D01*
Y316900D02*
X177127D01*
Y313750D02*
Y316900D01*
X170828Y313750D02*
X177127D01*
X170828D02*
Y316900D01*
X60252Y293513D02*
X65252Y288513D01*
X60252D02*
X79559D01*
Y303851D01*
X60252D02*
X79559D01*
X60252Y288513D02*
Y303851D01*
X28752Y293362D02*
X33752Y288362D01*
X28752D02*
X48059D01*
Y303701D01*
X28752D02*
X48059D01*
X28752Y288362D02*
Y303701D01*
X178031Y184153D02*
X183031Y189154D01*
X178031Y169847D02*
Y189154D01*
Y169847D02*
X193369D01*
Y189154D01*
X178031D02*
X193369D01*
X214116Y78869D02*
X219116Y73869D01*
X199809Y78869D02*
X219116D01*
X199809Y63531D02*
Y78869D01*
Y63531D02*
X219116D01*
Y78869D01*
X181600Y302345D02*
X186324D01*
Y296046D02*
Y302345D01*
X181600Y296046D02*
X186324D01*
X181600D02*
Y302345D01*
Y300377D02*
X183568Y302345D01*
X176828Y273660D02*
Y295707D01*
X155962Y273660D02*
X176828D01*
X155962D02*
Y295707D01*
X176828D01*
X31625Y157347D02*
X34775D01*
Y163253D01*
X31625D02*
X34775D01*
X31625Y157347D02*
Y163253D01*
X31625Y174753D02*
X34775D01*
X31625Y168847D02*
Y174753D01*
Y168847D02*
X34775D01*
Y174753D01*
X55291Y183925D02*
X61197D01*
X55291D02*
Y187075D01*
X61197D01*
Y183925D02*
Y187075D01*
X154553Y87925D02*
Y91075D01*
Y87925D02*
X160458D01*
Y91075D01*
X154553D02*
X160458D01*
X149478Y87925D02*
Y91075D01*
X143572D02*
X149478D01*
X143572Y87925D02*
Y91075D01*
Y87925D02*
X149478D01*
X212010Y90575D02*
X217915D01*
Y87425D02*
Y90575D01*
X212010Y87425D02*
X217915D01*
X212010D02*
Y90575D01*
X201009Y87425D02*
X206915D01*
X201009D02*
Y90575D01*
X206915D01*
Y87425D02*
Y90575D01*
X191925Y293047D02*
X195075D01*
Y298953D01*
X191925D02*
X195075D01*
X191925Y293047D02*
Y298953D01*
X196656Y304734D02*
Y311034D01*
X193309Y304734D02*
X196656D01*
X193309D02*
Y311034D01*
X196656D01*
X206173Y292850D02*
Y299149D01*
X202827Y292850D02*
X206173D01*
X202827D02*
Y299149D01*
X206173D01*
X188418Y304931D02*
Y310837D01*
X191568D01*
Y304931D02*
Y310837D01*
X188418Y304931D02*
X191568D01*
X196827Y299150D02*
X200173D01*
X196827Y292850D02*
Y299150D01*
Y292850D02*
X200173D01*
Y299150D01*
X112579Y155937D02*
X122421D01*
Y148063D02*
Y155937D01*
X112579Y148063D02*
X122421D01*
X112579D02*
Y155937D01*
X83991Y150691D02*
Y156597D01*
Y150691D02*
X96590D01*
Y156597D01*
X83991D02*
X96590D01*
M02*
