G04*
G04 #@! TF.GenerationSoftware,Altium Limited,Altium Designer,25.0.2 (28)*
G04*
G04 Layer_Color=16711935*
%FSLAX25Y25*%
%MOIN*%
G70*
G04*
G04 #@! TF.SameCoordinates,92B628A6-D60A-4015-8E16-F054796CA4EE*
G04*
G04*
G04 #@! TF.FilePolarity,Positive*
G04*
G01*
G75*
%ADD81C,0.01000*%
%ADD82C,0.00800*%
D81*
X146732Y9449D02*
G03*
X142008Y4724I0J-4724D01*
G01*
X351220Y228681D02*
G03*
X355000Y232461I0J3779D01*
G01*
X0Y4724D02*
G03*
X4724Y0I4724J0D01*
G01*
X355000Y372795D02*
G03*
X350276Y377520I-4724J0D01*
G01*
X142008Y372795D02*
G03*
X146732Y368071I4724J0D01*
G01*
X350276Y0D02*
G03*
X355000Y4724I0J4724D01*
G01*
X3779Y148858D02*
G03*
X0Y145079I0J-3779D01*
G01*
X222008Y4724D02*
G03*
X217284Y9449I-4724J0D01*
G01*
X351220Y228681D02*
G03*
X347441Y224902I0J-3779D01*
G01*
X142008Y372795D02*
G03*
X137284Y377520I-4724J0D01*
G01*
X226732D02*
G03*
X222008Y372795I0J-4724D01*
G01*
X0Y232441D02*
G03*
X3779Y228661I3779J0D01*
G01*
X347441Y152657D02*
G03*
X351220Y148878I3779J0D01*
G01*
X4724Y377520D02*
G03*
X0Y372795I0J-4724D01*
G01*
X222008Y4724D02*
G03*
X226732Y0I4724J0D01*
G01*
X355000Y145098D02*
G03*
X351220Y148878I-3779J0D01*
G01*
X3779Y148858D02*
G03*
X7559Y152638I0J3779D01*
G01*
Y224882D02*
G03*
X3779Y228661I-3779J0D01*
G01*
X137284Y0D02*
G03*
X142008Y4724I0J4724D01*
G01*
X217284Y368071D02*
G03*
X222008Y372795I0J4724D01*
G01*
X4724Y377520D02*
X137284D01*
X4724Y0D02*
X137284D01*
X0Y232441D02*
Y372795D01*
X355000Y232461D02*
Y372795D01*
X226732Y377520D02*
X350276D01*
X355000Y4724D02*
Y145098D01*
X0Y4724D02*
Y145079D01*
X226732Y0D02*
X350276D01*
X146732Y368071D02*
X217284D01*
X347441Y152657D02*
Y224902D01*
X7559Y152638D02*
Y224882D01*
X146732Y9449D02*
X217283D01*
D82*
X111000Y160000D02*
X117500D01*
Y170000D02*
X122000D01*
X126500Y139500D02*
Y160000D01*
X111000Y155000D02*
Y160000D01*
X122000D02*
Y170000D01*
X117500Y160000D02*
Y170000D01*
X106000Y155000D02*
X111000D01*
X122000Y160000D02*
X126500D01*
X106000Y139500D02*
X126500D01*
X106000D02*
Y155000D01*
X101000Y153500D02*
Y159705D01*
X75500Y138500D02*
X104500D01*
X75500D02*
Y154500D01*
X104500Y138500D02*
Y153500D01*
X75500Y154500D02*
X80705Y159705D01*
X88349D01*
Y169705D02*
X89275D01*
X92049Y159705D02*
X101000D01*
X91124Y169705D02*
X92049D01*
X89275D02*
X91124D01*
X101000Y153500D02*
X104500D01*
X88349Y159705D02*
Y169705D01*
X92049Y159705D02*
Y169705D01*
M02*
