G04*
G04 #@! TF.GenerationSoftware,Altium Limited,Altium Designer,25.0.2 (28)*
G04*
G04 Layer_Color=2752767*
%FSLAX25Y25*%
%MOIN*%
G70*
G04*
G04 #@! TF.SameCoordinates,92B628A6-D60A-4015-8E16-F054796CA4EE*
G04*
G04*
G04 #@! TF.FilePolarity,Positive*
G04*
G01*
G75*
%ADD83C,0.00500*%
%ADD114C,0.00667*%
D83*
X204679Y25600D02*
X205679Y26600D01*
X206679D01*
X205679Y27600D01*
X206679Y28600D01*
X205679D01*
X204679Y29600D01*
X203679Y28600D01*
X202679D01*
X203679Y27600D01*
X202679Y26600D01*
X203679D01*
X204679Y25600D01*
X214521D02*
X215521Y26600D01*
X216521D01*
X215521Y27600D01*
X216521Y28600D01*
X215521D01*
X214521Y29600D01*
X213521Y28600D01*
X212521D01*
X213521Y27600D01*
X212521Y26600D01*
X213521D01*
X214521Y25600D01*
X209600D02*
X210600Y26600D01*
X211600D01*
X210600Y27600D01*
X211600Y28600D01*
X210600D01*
X209600Y29600D01*
X208600Y28600D01*
X207600D01*
X208600Y27600D01*
X207600Y26600D01*
X208600D01*
X209600Y25600D01*
X149457D02*
X150457Y26600D01*
X151457D01*
X150457Y27600D01*
X151457Y28600D01*
X150457D01*
X149457Y29600D01*
X148457Y28600D01*
X147457D01*
X148457Y27600D01*
X147457Y26600D01*
X148457D01*
X149457Y25600D01*
X154379D02*
X155379Y26600D01*
X156379D01*
X155379Y27600D01*
X156379Y28600D01*
X155379D01*
X154379Y29600D01*
X153379Y28600D01*
X152379D01*
X153379Y27600D01*
X152379Y26600D01*
X153379D01*
X154379Y25600D01*
X159300D02*
X160300Y26600D01*
X161300D01*
X160300Y27600D01*
X161300Y28600D01*
X160300D01*
X159300Y29600D01*
X158300Y28600D01*
X157300D01*
X158300Y27600D01*
X157300Y26600D01*
X158300D01*
X159300Y25600D01*
X90479Y15913D02*
Y19913D01*
X94479D01*
Y15913D01*
X90479D01*
X95400D02*
Y19913D01*
X99400D01*
Y15913D01*
X95400D01*
X100321D02*
Y19913D01*
X104321D01*
Y15913D01*
X100321D01*
X105243D02*
Y19913D01*
X109242D01*
Y15913D01*
X105243D01*
X110164D02*
Y19913D01*
X114164D01*
Y15913D01*
X110164D01*
X115085D02*
Y19913D01*
X119085D01*
Y15913D01*
X115085D01*
X25924Y207079D02*
X26924Y208079D01*
X27924D01*
X26924Y209079D01*
X27924Y210079D01*
X26924D01*
X25924Y211079D01*
X24924Y210079D01*
X23924D01*
X24924Y209079D01*
X23924Y208079D01*
X24924D01*
X25924Y207079D01*
Y212000D02*
X26924Y213000D01*
X27924D01*
X26924Y214000D01*
X27924Y215000D01*
X26924D01*
X25924Y216000D01*
X24924Y215000D01*
X23924D01*
X24924Y214000D01*
X23924Y213000D01*
X24924D01*
X25924Y212000D01*
Y216921D02*
X26924Y217921D01*
X27924D01*
X26924Y218921D01*
X27924Y219921D01*
X26924D01*
X25924Y220921D01*
X24924Y219921D01*
X23924D01*
X24924Y218921D01*
X23924Y217921D01*
X24924D01*
X25924Y216921D01*
Y184114D02*
X26924Y185114D01*
X27924D01*
X26924Y186114D01*
X27924Y187114D01*
X26924D01*
X25924Y188114D01*
X24924Y187114D01*
X23924D01*
X24924Y186114D01*
X23924Y185114D01*
X24924D01*
X25924Y184114D01*
Y189035D02*
X26924Y190035D01*
X27924D01*
X26924Y191035D01*
X27924Y192035D01*
X26924D01*
X25924Y193035D01*
X24924Y192035D01*
X23924D01*
X24924Y191035D01*
X23924Y190035D01*
X24924D01*
X25924Y189035D01*
Y193957D02*
X26924Y194957D01*
X27924D01*
X26924Y195957D01*
X27924Y196957D01*
X26924D01*
X25924Y197957D01*
X24924Y196957D01*
X23924D01*
X24924Y195957D01*
X23924Y194957D01*
X24924D01*
X25924Y193957D01*
Y161101D02*
X26924Y162101D01*
X27924D01*
X26924Y163101D01*
X27924Y164102D01*
X26924D01*
X25924Y165102D01*
X24924Y164102D01*
X23924D01*
X24924Y163101D01*
X23924Y162101D01*
X24924D01*
X25924Y161101D01*
Y166023D02*
X26924Y167023D01*
X27924D01*
X26924Y168023D01*
X27924Y169023D01*
X26924D01*
X25924Y170023D01*
X24924Y169023D01*
X23924D01*
X24924Y168023D01*
X23924Y167023D01*
X24924D01*
X25924Y166023D01*
Y170944D02*
X26924Y171944D01*
X27924D01*
X26924Y172944D01*
X27924Y173944D01*
X26924D01*
X25924Y174944D01*
X24924Y173944D01*
X23924D01*
X24924Y172944D01*
X23924Y171944D01*
X24924D01*
X25924Y170944D01*
X184979Y25400D02*
Y29400D01*
X188979D01*
Y25400D01*
X184979D01*
X180057D02*
Y29400D01*
X184057D01*
Y25400D01*
X180057D01*
X175136D02*
Y29400D01*
X179136D01*
Y25400D01*
X175136D01*
X170215D02*
Y29400D01*
X174215D01*
Y25400D01*
X170215D01*
X189900D02*
Y29400D01*
X193900D01*
Y25400D01*
X189900D01*
X7480Y272646D02*
X5480Y276646D01*
X9480D01*
X7480Y272646D01*
Y282646D02*
X5480Y286646D01*
X9480D01*
X7480Y282646D01*
X33000Y355520D02*
X34000Y357520D01*
X33000Y359520D01*
X35000Y358520D01*
X37000Y359520D01*
X36000Y357520D01*
X37000Y355520D01*
X35000Y356520D01*
X33000Y355520D01*
X323000D02*
X324000Y357520D01*
X323000Y359520D01*
X325000Y358520D01*
X327000Y359520D01*
X326000Y357520D01*
X327000Y355520D01*
X325000Y356520D01*
X323000Y355520D01*
X333000Y18000D02*
X334000Y20000D01*
X333000Y22000D01*
X335000Y21000D01*
X337000Y22000D01*
X336000Y20000D01*
X337000Y18000D01*
X335000Y19000D01*
X333000Y18000D01*
X18000D02*
X19000Y20000D01*
X18000Y22000D01*
X20000Y21000D01*
X22000Y22000D01*
X21000Y20000D01*
X22000Y18000D01*
X20000Y19000D01*
X18000Y18000D01*
X207055Y306661D02*
X208055D01*
X209055Y307661D01*
X210055Y306661D01*
X211055D01*
Y307661D01*
X210055Y308661D01*
X211055Y309661D01*
Y310661D01*
X210055D01*
X209055Y309661D01*
X208055Y310661D01*
X207055D01*
Y309661D01*
X208055Y308661D01*
X207055Y307661D01*
Y306661D01*
X54791Y164831D02*
X55791D01*
X56791Y165831D01*
X57791Y164831D01*
X58791D01*
Y165831D01*
X57791Y166831D01*
X58791Y167831D01*
Y168831D01*
X57791D01*
X56791Y167831D01*
X55791Y168831D01*
X54791D01*
Y167831D01*
X55791Y166831D01*
X54791Y165831D01*
Y164831D01*
X78957Y178316D02*
X79957D01*
X80957Y179316D01*
X81957Y178316D01*
X82957D01*
Y179316D01*
X81957Y180316D01*
X82957Y181316D01*
Y182316D01*
X81957D01*
X80957Y181316D01*
X79957Y182316D01*
X78957D01*
Y181316D01*
X79957Y180316D01*
X78957Y179316D01*
Y178316D01*
X269500Y156814D02*
X270500D01*
X271500Y157814D01*
X272500Y156814D01*
X273500D01*
Y157814D01*
X272500Y158814D01*
X273500Y159814D01*
Y160814D01*
X272500D01*
X271500Y159814D01*
X270500Y160814D01*
X269500D01*
Y159814D01*
X270500Y158814D01*
X269500Y157814D01*
Y156814D01*
Y161186D02*
X270500D01*
X271500Y162186D01*
X272500Y161186D01*
X273500D01*
Y162186D01*
X272500Y163186D01*
X273500Y164186D01*
Y165186D01*
X272500D01*
X271500Y164186D01*
X270500Y165186D01*
X269500D01*
Y164186D01*
X270500Y163186D01*
X269500Y162186D01*
Y161186D01*
X269654Y217685D02*
X270654D01*
X271654Y218685D01*
X272654Y217685D01*
X273654D01*
Y218685D01*
X272654Y219685D01*
X273654Y220685D01*
Y221685D01*
X272654D01*
X271654Y220685D01*
X270654Y221685D01*
X269654D01*
Y220685D01*
X270654Y219685D01*
X269654Y218685D01*
Y217685D01*
Y221228D02*
X270654D01*
X271654Y222228D01*
X272654Y221228D01*
X273654D01*
Y222228D01*
X272654Y223228D01*
X273654Y224228D01*
Y225228D01*
X272654D01*
X271654Y224228D01*
X270654Y225228D01*
X269654D01*
Y224228D01*
X270654Y223228D01*
X269654Y222228D01*
Y221228D01*
Y224772D02*
X270654D01*
X271654Y225772D01*
X272654Y224772D01*
X273654D01*
Y225772D01*
X272654Y226772D01*
X273654Y227772D01*
Y228772D01*
X272654D01*
X271654Y227772D01*
X270654Y228772D01*
X269654D01*
Y227772D01*
X270654Y226772D01*
X269654Y225772D01*
Y224772D01*
Y227921D02*
X270654D01*
X271654Y228921D01*
X272654Y227921D01*
X273654D01*
Y228921D01*
X272654Y229921D01*
X273654Y230921D01*
Y231921D01*
X272654D01*
X271654Y230921D01*
X270654Y231921D01*
X269654D01*
Y230921D01*
X270654Y229921D01*
X269654Y228921D01*
Y227921D01*
X218600Y234162D02*
X219600D01*
X220600Y235162D01*
X221600Y234162D01*
X222600D01*
Y235162D01*
X221600Y236162D01*
X222600Y237162D01*
Y238162D01*
X221600D01*
X220600Y237162D01*
X219600Y238162D01*
X218600D01*
Y237162D01*
X219600Y236162D01*
X218600Y235162D01*
Y234162D01*
X144000Y234058D02*
X145000D01*
X146000Y235058D01*
X147000Y234058D01*
X148000D01*
Y235058D01*
X147000Y236058D01*
X148000Y237058D01*
Y238058D01*
X147000D01*
X146000Y237058D01*
X145000Y238058D01*
X144000D01*
Y237058D01*
X145000Y236058D01*
X144000Y235058D01*
Y234058D01*
X269654Y231071D02*
X270654D01*
X271654Y232071D01*
X272654Y231071D01*
X273654D01*
Y232071D01*
X272654Y233071D01*
X273654Y234071D01*
Y235071D01*
X272654D01*
X271654Y234071D01*
X270654Y235071D01*
X269654D01*
Y234071D01*
X270654Y233071D01*
X269654Y232071D01*
Y231071D01*
X227800Y233200D02*
X228800D01*
X229800Y234200D01*
X230800Y233200D01*
X231800D01*
Y234200D01*
X230800Y235200D01*
X231800Y236200D01*
Y237200D01*
X230800D01*
X229800Y236200D01*
X228800Y237200D01*
X227800D01*
Y236200D01*
X228800Y235200D01*
X227800Y234200D01*
Y233200D01*
X144358Y236918D02*
X145358D01*
X146358Y237918D01*
X147358Y236918D01*
X148358D01*
Y237918D01*
X147358Y238918D01*
X148358Y239918D01*
Y240918D01*
X147358D01*
X146358Y239918D01*
X145358Y240918D01*
X144358D01*
Y239918D01*
X145358Y238918D01*
X144358Y237918D01*
Y236918D01*
X144898Y239752D02*
X145898D01*
X146898Y240752D01*
X147898Y239752D01*
X148898D01*
Y240752D01*
X147898Y241752D01*
X148898Y242752D01*
Y243752D01*
X147898D01*
X146898Y242752D01*
X145898Y243752D01*
X144898D01*
Y242752D01*
X145898Y241752D01*
X144898Y240752D01*
Y239752D01*
X188500Y216700D02*
X189500D01*
X190500Y217700D01*
X191500Y216700D01*
X192500D01*
Y217700D01*
X191500Y218700D01*
X192500Y219700D01*
Y220700D01*
X191500D01*
X190500Y219700D01*
X189500Y220700D01*
X188500D01*
Y219700D01*
X189500Y218700D01*
X188500Y217700D01*
Y216700D01*
X345260Y331480D02*
Y330480D01*
X347260D01*
Y331480D01*
X348260D01*
Y333480D01*
X347260D01*
Y334480D01*
X345260D01*
Y333480D01*
X344260D01*
Y331480D01*
X345260D01*
X331480Y303921D02*
Y302921D01*
X333480D01*
Y303921D01*
X334480D01*
Y305921D01*
X333480D01*
Y306921D01*
X331480D01*
Y305921D01*
X330480D01*
Y303921D01*
X331480D01*
X345260Y276362D02*
Y275362D01*
X347260D01*
Y276362D01*
X348260D01*
Y278362D01*
X347260D01*
Y279362D01*
X345260D01*
Y278362D01*
X344260D01*
Y276362D01*
X345260D01*
X331480Y248803D02*
Y247803D01*
X333480D01*
Y248803D01*
X334480D01*
Y250803D01*
X333480D01*
Y251803D01*
X331480D01*
Y250803D01*
X330480D01*
Y248803D01*
X331480D01*
Y193685D02*
Y192685D01*
X333480D01*
Y193685D01*
X334480D01*
Y195685D01*
X333480D01*
Y196685D01*
X331480D01*
Y195685D01*
X330480D01*
Y193685D01*
X331480D01*
Y138567D02*
Y137567D01*
X333480D01*
Y138567D01*
X334480D01*
Y140567D01*
X333480D01*
Y141567D01*
X331480D01*
Y140567D01*
X330480D01*
Y138567D01*
X331480D01*
X345260Y111008D02*
Y110008D01*
X347260D01*
Y111008D01*
X348260D01*
Y113008D01*
X347260D01*
Y114008D01*
X345260D01*
Y113008D01*
X344260D01*
Y111008D01*
X345260D01*
X331480Y83449D02*
Y82449D01*
X333480D01*
Y83449D01*
X334480D01*
Y85449D01*
X333480D01*
Y86449D01*
X331480D01*
Y85449D01*
X330480D01*
Y83449D01*
X331480D01*
X345260Y55890D02*
Y54890D01*
X347260D01*
Y55890D01*
X348260D01*
Y57890D01*
X347260D01*
Y58890D01*
X345260D01*
Y57890D01*
X344260D01*
Y55890D01*
X345260D01*
X317701Y331480D02*
Y330480D01*
X319701D01*
Y331480D01*
X320701D01*
Y333480D01*
X319701D01*
Y334480D01*
X317701D01*
Y333480D01*
X316701D01*
Y331480D01*
X317701D01*
X303921Y303921D02*
Y302921D01*
X305921D01*
Y303921D01*
X306921D01*
Y305921D01*
X305921D01*
Y306921D01*
X303921D01*
Y305921D01*
X302921D01*
Y303921D01*
X303921D01*
X317701Y276362D02*
Y275362D01*
X319701D01*
Y276362D01*
X320701D01*
Y278362D01*
X319701D01*
Y279362D01*
X317701D01*
Y278362D01*
X316701D01*
Y276362D01*
X317701D01*
X303921Y248803D02*
Y247803D01*
X305921D01*
Y248803D01*
X306921D01*
Y250803D01*
X305921D01*
Y251803D01*
X303921D01*
Y250803D01*
X302921D01*
Y248803D01*
X303921D01*
X317701Y221244D02*
Y220244D01*
X319701D01*
Y221244D01*
X320701D01*
Y223244D01*
X319701D01*
Y224244D01*
X317701D01*
Y223244D01*
X316701D01*
Y221244D01*
X317701D01*
X303921Y193685D02*
Y192685D01*
X305921D01*
Y193685D01*
X306921D01*
Y195685D01*
X305921D01*
Y196685D01*
X303921D01*
Y195685D01*
X302921D01*
Y193685D01*
X303921D01*
X317701Y166126D02*
Y165126D01*
X319701D01*
Y166126D01*
X320701D01*
Y168126D01*
X319701D01*
Y169126D01*
X317701D01*
Y168126D01*
X316701D01*
Y166126D01*
X317701D01*
X303921Y138567D02*
Y137567D01*
X305921D01*
Y138567D01*
X306921D01*
Y140567D01*
X305921D01*
Y141567D01*
X303921D01*
Y140567D01*
X302921D01*
Y138567D01*
X303921D01*
X317701Y111008D02*
Y110008D01*
X319701D01*
Y111008D01*
X320701D01*
Y113008D01*
X319701D01*
Y114008D01*
X317701D01*
Y113008D01*
X316701D01*
Y111008D01*
X317701D01*
X303921Y83449D02*
Y82449D01*
X305921D01*
Y83449D01*
X306921D01*
Y85449D01*
X305921D01*
Y86449D01*
X303921D01*
Y85449D01*
X302921D01*
Y83449D01*
X303921D01*
X317701Y55890D02*
Y54890D01*
X319701D01*
Y55890D01*
X320701D01*
Y57890D01*
X319701D01*
Y58890D01*
X317701D01*
Y57890D01*
X316701D01*
Y55890D01*
X317701D01*
X303921Y28331D02*
Y27331D01*
X305921D01*
Y28331D01*
X306921D01*
Y30331D01*
X305921D01*
Y31331D01*
X303921D01*
Y30331D01*
X302921D01*
Y28331D01*
X303921D01*
X290142Y276362D02*
Y275362D01*
X292142D01*
Y276362D01*
X293142D01*
Y278362D01*
X292142D01*
Y279362D01*
X290142D01*
Y278362D01*
X289142D01*
Y276362D01*
X290142D01*
Y221244D02*
Y220244D01*
X292142D01*
Y221244D01*
X293142D01*
Y223244D01*
X292142D01*
Y224244D01*
X290142D01*
Y223244D01*
X289142D01*
Y221244D01*
X290142D01*
X276362Y193685D02*
Y192685D01*
X278362D01*
Y193685D01*
X279362D01*
Y195685D01*
X278362D01*
Y196685D01*
X276362D01*
Y195685D01*
X275362D01*
Y193685D01*
X276362D01*
X290142Y166126D02*
Y165126D01*
X292142D01*
Y166126D01*
X293142D01*
Y168126D01*
X292142D01*
Y169126D01*
X290142D01*
Y168126D01*
X289142D01*
Y166126D01*
X290142D01*
X276362Y138567D02*
Y137567D01*
X278362D01*
Y138567D01*
X279362D01*
Y140567D01*
X278362D01*
Y141567D01*
X276362D01*
Y140567D01*
X275362D01*
Y138567D01*
X276362D01*
X290142Y111008D02*
Y110008D01*
X292142D01*
Y111008D01*
X293142D01*
Y113008D01*
X292142D01*
Y114008D01*
X290142D01*
Y113008D01*
X289142D01*
Y111008D01*
X290142D01*
X276362Y83449D02*
Y82449D01*
X278362D01*
Y83449D01*
X279362D01*
Y85449D01*
X278362D01*
Y86449D01*
X276362D01*
Y85449D01*
X275362D01*
Y83449D01*
X276362D01*
X290142Y55890D02*
Y54890D01*
X292142D01*
Y55890D01*
X293142D01*
Y57890D01*
X292142D01*
Y58890D01*
X290142D01*
Y57890D01*
X289142D01*
Y55890D01*
X290142D01*
X276362Y28331D02*
Y27331D01*
X278362D01*
Y28331D01*
X279362D01*
Y30331D01*
X278362D01*
Y31331D01*
X276362D01*
Y30331D01*
X275362D01*
Y28331D01*
X276362D01*
X262583Y276362D02*
Y275362D01*
X264583D01*
Y276362D01*
X265583D01*
Y278362D01*
X264583D01*
Y279362D01*
X262583D01*
Y278362D01*
X261583D01*
Y276362D01*
X262583D01*
X248803Y193685D02*
Y192685D01*
X250803D01*
Y193685D01*
X251803D01*
Y195685D01*
X250803D01*
Y196685D01*
X248803D01*
Y195685D01*
X247803D01*
Y193685D01*
X248803D01*
X262583Y166126D02*
Y165126D01*
X264583D01*
Y166126D01*
X265583D01*
Y168126D01*
X264583D01*
Y169126D01*
X262583D01*
Y168126D01*
X261583D01*
Y166126D01*
X262583D01*
X248803Y138567D02*
Y137567D01*
X250803D01*
Y138567D01*
X251803D01*
Y140567D01*
X250803D01*
Y141567D01*
X248803D01*
Y140567D01*
X247803D01*
Y138567D01*
X248803D01*
X262583Y111008D02*
Y110008D01*
X264583D01*
Y111008D01*
X265583D01*
Y113008D01*
X264583D01*
Y114008D01*
X262583D01*
Y113008D01*
X261583D01*
Y111008D01*
X262583D01*
X248803Y83449D02*
Y82449D01*
X250803D01*
Y83449D01*
X251803D01*
Y85449D01*
X250803D01*
Y86449D01*
X248803D01*
Y85449D01*
X247803D01*
Y83449D01*
X248803D01*
X262583Y55890D02*
Y54890D01*
X264583D01*
Y55890D01*
X265583D01*
Y57890D01*
X264583D01*
Y58890D01*
X262583D01*
Y57890D01*
X261583D01*
Y55890D01*
X262583D01*
X248803Y28331D02*
Y27331D01*
X250803D01*
Y28331D01*
X251803D01*
Y30331D01*
X250803D01*
Y31331D01*
X248803D01*
Y30331D01*
X247803D01*
Y28331D01*
X248803D01*
X235024Y276362D02*
Y275362D01*
X237024D01*
Y276362D01*
X238024D01*
Y278362D01*
X237024D01*
Y279362D01*
X235024D01*
Y278362D01*
X234024D01*
Y276362D01*
X235024D01*
X221244Y193685D02*
Y192685D01*
X223244D01*
Y193685D01*
X224244D01*
Y195685D01*
X223244D01*
Y196685D01*
X221244D01*
Y195685D01*
X220244D01*
Y193685D01*
X221244D01*
X235024Y166126D02*
Y165126D01*
X237024D01*
Y166126D01*
X238024D01*
Y168126D01*
X237024D01*
Y169126D01*
X235024D01*
Y168126D01*
X234024D01*
Y166126D01*
X235024D01*
Y111008D02*
Y110008D01*
X237024D01*
Y111008D01*
X238024D01*
Y113008D01*
X237024D01*
Y114008D01*
X235024D01*
Y113008D01*
X234024D01*
Y111008D01*
X235024D01*
Y55890D02*
Y54890D01*
X237024D01*
Y55890D01*
X238024D01*
Y57890D01*
X237024D01*
Y58890D01*
X235024D01*
Y57890D01*
X234024D01*
Y55890D01*
X235024D01*
X221244Y28331D02*
Y27331D01*
X223244D01*
Y28331D01*
X224244D01*
Y30331D01*
X223244D01*
Y31331D01*
X221244D01*
Y30331D01*
X220244D01*
Y28331D01*
X221244D01*
X166126Y83449D02*
Y82449D01*
X168126D01*
Y83449D01*
X169126D01*
Y85449D01*
X168126D01*
Y86449D01*
X166126D01*
Y85449D01*
X165126D01*
Y83449D01*
X166126D01*
X179905Y55890D02*
Y54890D01*
X181905D01*
Y55890D01*
X182905D01*
Y57890D01*
X181905D01*
Y58890D01*
X179905D01*
Y57890D01*
X178905D01*
Y55890D01*
X179905D01*
X166126Y28331D02*
Y27331D01*
X168126D01*
Y28331D01*
X169126D01*
Y30331D01*
X168126D01*
Y31331D01*
X166126D01*
Y30331D01*
X165126D01*
Y28331D01*
X166126D01*
X152347Y111008D02*
Y110008D01*
X154347D01*
Y111008D01*
X155347D01*
Y113008D01*
X154347D01*
Y114008D01*
X152347D01*
Y113008D01*
X151347D01*
Y111008D01*
X152347D01*
X138567Y28331D02*
Y27331D01*
X140567D01*
Y28331D01*
X141567D01*
Y30331D01*
X140567D01*
Y31331D01*
X138567D01*
Y30331D01*
X137567D01*
Y28331D01*
X138567D01*
X124787Y276362D02*
Y275362D01*
X126787D01*
Y276362D01*
X127787D01*
Y278362D01*
X126787D01*
Y279362D01*
X124787D01*
Y278362D01*
X123787D01*
Y276362D01*
X124787D01*
Y221244D02*
Y220244D01*
X126787D01*
Y221244D01*
X127787D01*
Y223244D01*
X126787D01*
Y224244D01*
X124787D01*
Y223244D01*
X123787D01*
Y221244D01*
X124787D01*
X111008Y193685D02*
Y192685D01*
X113008D01*
Y193685D01*
X114008D01*
Y195685D01*
X113008D01*
Y196685D01*
X111008D01*
Y195685D01*
X110008D01*
Y193685D01*
X111008D01*
X124787Y111008D02*
Y110008D01*
X126787D01*
Y111008D01*
X127787D01*
Y113008D01*
X126787D01*
Y114008D01*
X124787D01*
Y113008D01*
X123787D01*
Y111008D01*
X124787D01*
Y55890D02*
Y54890D01*
X126787D01*
Y55890D01*
X127787D01*
Y57890D01*
X126787D01*
Y58890D01*
X124787D01*
Y57890D01*
X123787D01*
Y55890D01*
X124787D01*
X83449Y83449D02*
Y82449D01*
X85449D01*
Y83449D01*
X86449D01*
Y85449D01*
X85449D01*
Y86449D01*
X83449D01*
Y85449D01*
X82449D01*
Y83449D01*
X83449D01*
Y28331D02*
Y27331D01*
X85449D01*
Y28331D01*
X86449D01*
Y30331D01*
X85449D01*
Y31331D01*
X83449D01*
Y30331D01*
X82449D01*
Y28331D01*
X83449D01*
X55890Y303921D02*
Y302921D01*
X57890D01*
Y303921D01*
X58890D01*
Y305921D01*
X57890D01*
Y306921D01*
X55890D01*
Y305921D01*
X54890D01*
Y303921D01*
X55890D01*
X69669Y111008D02*
Y110008D01*
X71669D01*
Y111008D01*
X72669D01*
Y113008D01*
X71669D01*
Y114008D01*
X69669D01*
Y113008D01*
X68669D01*
Y111008D01*
X69669D01*
Y55890D02*
Y54890D01*
X71669D01*
Y55890D01*
X72669D01*
Y57890D01*
X71669D01*
Y58890D01*
X69669D01*
Y57890D01*
X68669D01*
Y55890D01*
X69669D01*
X55890Y28331D02*
Y27331D01*
X57890D01*
Y28331D01*
X58890D01*
Y30331D01*
X57890D01*
Y31331D01*
X55890D01*
Y30331D01*
X54890D01*
Y28331D01*
X55890D01*
X126400Y176200D02*
X127400D01*
X128400Y177200D01*
X129400Y176200D01*
X130400D01*
Y177200D01*
X129400Y178200D01*
X130400Y179200D01*
Y180200D01*
X129400D01*
X128400Y179200D01*
X127400Y180200D01*
X126400D01*
Y179200D01*
X127400Y178200D01*
X126400Y177200D01*
Y176200D01*
X60600Y169600D02*
X61600D01*
X62600Y170600D01*
X63600Y169600D01*
X64600D01*
Y170600D01*
X63600Y171600D01*
X64600Y172600D01*
Y173600D01*
X63600D01*
X62600Y172600D01*
X61600Y173600D01*
X60600D01*
Y172600D01*
X61600Y171600D01*
X60600Y170600D01*
Y169600D01*
X72000Y174000D02*
X73000D01*
X74000Y175000D01*
X75000Y174000D01*
X76000D01*
Y175000D01*
X75000Y176000D01*
X76000Y177000D01*
Y178000D01*
X75000D01*
X74000Y177000D01*
X73000Y178000D01*
X72000D01*
Y177000D01*
X73000Y176000D01*
X72000Y175000D01*
Y174000D01*
X86113Y183594D02*
X87113D01*
X88113Y184594D01*
X89113Y183594D01*
X90113D01*
Y184594D01*
X89113Y185594D01*
X90113Y186594D01*
Y187594D01*
X89113D01*
X88113Y186594D01*
X87113Y187594D01*
X86113D01*
Y186594D01*
X87113Y185594D01*
X86113Y184594D01*
Y183594D01*
X74405Y181000D02*
X75406D01*
X76406Y182000D01*
X77406Y181000D01*
X78405D01*
Y182000D01*
X77406Y183000D01*
X78405Y184000D01*
Y185000D01*
X77406D01*
X76406Y184000D01*
X75406Y185000D01*
X74405D01*
Y184000D01*
X75406Y183000D01*
X74405Y182000D01*
Y181000D01*
Y176371D02*
X75406D01*
X76406Y177371D01*
X77406Y176371D01*
X78405D01*
Y177371D01*
X77406Y178371D01*
X78405Y179371D01*
Y180371D01*
X77406D01*
X76406Y179371D01*
X75406Y180371D01*
X74405D01*
Y179371D01*
X75406Y178371D01*
X74405Y177371D01*
Y176371D01*
Y184058D02*
X75406D01*
X76406Y185058D01*
X77406Y184058D01*
X78405D01*
Y185058D01*
X77406Y186058D01*
X78405Y187058D01*
Y188058D01*
X77406D01*
X76406Y187058D01*
X75406Y188058D01*
X74405D01*
Y187058D01*
X75406Y186058D01*
X74405Y185058D01*
Y184058D01*
X155176Y183312D02*
X156176D01*
X157176Y184312D01*
X158177Y183312D01*
X159177D01*
Y184312D01*
X158177Y185312D01*
X159177Y186312D01*
Y187312D01*
X158177D01*
X157176Y186312D01*
X156176Y187312D01*
X155176D01*
Y186312D01*
X156176Y185312D01*
X155176Y184312D01*
Y183312D01*
X158700D02*
X159700D01*
X160700Y184312D01*
X161700Y183312D01*
X162700D01*
Y184312D01*
X161700Y185312D01*
X162700Y186312D01*
Y187312D01*
X161700D01*
X160700Y186312D01*
X159700Y187312D01*
X158700D01*
Y186312D01*
X159700Y185312D01*
X158700Y184312D01*
Y183312D01*
X156300Y198926D02*
X157300D01*
X158300Y199926D01*
X159300Y198926D01*
X160300D01*
Y199926D01*
X159300Y200926D01*
X160300Y201926D01*
Y202926D01*
X159300D01*
X158300Y201926D01*
X157300Y202926D01*
X156300D01*
Y201926D01*
X157300Y200926D01*
X156300Y199926D01*
Y198926D01*
X156100Y201800D02*
X157100D01*
X158100Y202800D01*
X159100Y201800D01*
X160100D01*
Y202800D01*
X159100Y203801D01*
X160100Y204801D01*
Y205801D01*
X159100D01*
X158100Y204801D01*
X157100Y205801D01*
X156100D01*
Y204801D01*
X157100Y203801D01*
X156100Y202800D01*
Y201800D01*
X142504Y201559D02*
Y200559D01*
X144504D01*
Y201559D01*
X145504D01*
Y203559D01*
X144504D01*
Y204559D01*
X142504D01*
Y203559D01*
X141504D01*
Y201559D01*
X142504D01*
X130693Y225181D02*
Y224181D01*
X132693D01*
Y225181D01*
X133693D01*
Y227181D01*
X132693D01*
Y228181D01*
X130693D01*
Y227181D01*
X129693D01*
Y225181D01*
X130693D01*
Y201559D02*
Y200559D01*
X132693D01*
Y201559D01*
X133693D01*
Y203559D01*
X132693D01*
Y204559D01*
X130693D01*
Y203559D01*
X129693D01*
Y201559D01*
X130693D01*
X136598Y189748D02*
Y188748D01*
X138598D01*
Y189748D01*
X139598D01*
Y191748D01*
X138598D01*
Y192748D01*
X136598D01*
Y191748D01*
X135598D01*
Y189748D01*
X136598D01*
X124787Y236992D02*
Y235992D01*
X126787D01*
Y236992D01*
X127787D01*
Y238992D01*
X126787D01*
Y239992D01*
X124787D01*
Y238992D01*
X123787D01*
Y236992D01*
X124787D01*
X118882Y225181D02*
Y224181D01*
X120882D01*
Y225181D01*
X121882D01*
Y227181D01*
X120882D01*
Y228181D01*
X118882D01*
Y227181D01*
X117882D01*
Y225181D01*
X118882D01*
Y201559D02*
Y200559D01*
X120882D01*
Y201559D01*
X121882D01*
Y203559D01*
X120882D01*
Y204559D01*
X118882D01*
Y203559D01*
X117882D01*
Y201559D01*
X118882D01*
X124787Y189748D02*
Y188748D01*
X126787D01*
Y189748D01*
X127787D01*
Y191748D01*
X126787D01*
Y192748D01*
X124787D01*
Y191748D01*
X123787D01*
Y189748D01*
X124787D01*
X112976Y236992D02*
Y235992D01*
X114976D01*
Y236992D01*
X115976D01*
Y238992D01*
X114976D01*
Y239992D01*
X112976D01*
Y238992D01*
X111976D01*
Y236992D01*
X112976D01*
X107071Y201559D02*
Y200559D01*
X109071D01*
Y201559D01*
X110071D01*
Y203559D01*
X109071D01*
Y204559D01*
X107071D01*
Y203559D01*
X106071D01*
Y201559D01*
X107071D01*
X112976Y189748D02*
Y188748D01*
X114976D01*
Y189748D01*
X115976D01*
Y191748D01*
X114976D01*
Y192748D01*
X112976D01*
Y191748D01*
X111976D01*
Y189748D01*
X112976D01*
X101165Y236992D02*
Y235992D01*
X103165D01*
Y236992D01*
X104165D01*
Y238992D01*
X103165D01*
Y239992D01*
X101165D01*
Y238992D01*
X100165D01*
Y236992D01*
X101165D01*
X95260Y225181D02*
Y224181D01*
X97260D01*
Y225181D01*
X98260D01*
Y227181D01*
X97260D01*
Y228181D01*
X95260D01*
Y227181D01*
X94260D01*
Y225181D01*
X95260D01*
Y201559D02*
Y200559D01*
X97260D01*
Y201559D01*
X98260D01*
Y203559D01*
X97260D01*
Y204559D01*
X95260D01*
Y203559D01*
X94260D01*
Y201559D01*
X95260D01*
X89354Y236992D02*
Y235992D01*
X91354D01*
Y236992D01*
X92354D01*
Y238992D01*
X91354D01*
Y239992D01*
X89354D01*
Y238992D01*
X88354D01*
Y236992D01*
X89354D01*
Y189748D02*
Y188748D01*
X91354D01*
Y189748D01*
X92354D01*
Y191748D01*
X91354D01*
Y192748D01*
X89354D01*
Y191748D01*
X88354D01*
Y189748D01*
X89354D01*
X34400Y118800D02*
X35400D01*
X36400Y119800D01*
X37400Y118800D01*
X38400D01*
Y119800D01*
X37400Y120800D01*
X38400Y121800D01*
Y122800D01*
X37400D01*
X36400Y121800D01*
X35400Y122800D01*
X34400D01*
Y121800D01*
X35400Y120800D01*
X34400Y119800D01*
Y118800D01*
X72014Y178403D02*
X73014D01*
X74014Y179403D01*
X75014Y178403D01*
X76014D01*
Y179403D01*
X75014Y180403D01*
X76014Y181403D01*
Y182403D01*
X75014D01*
X74014Y181403D01*
X73014Y182403D01*
X72014D01*
Y181403D01*
X73014Y180403D01*
X72014Y179403D01*
Y178403D01*
X43000Y71100D02*
X44000D01*
X45000Y72100D01*
X46000Y71100D01*
X47000D01*
Y72100D01*
X46000Y73100D01*
X47000Y74100D01*
Y75100D01*
X46000D01*
X45000Y74100D01*
X44000Y75100D01*
X43000D01*
Y74100D01*
X44000Y73100D01*
X43000Y72100D01*
Y71100D01*
X34500Y62400D02*
X35500D01*
X36500Y63400D01*
X37500Y62400D01*
X38500D01*
Y63400D01*
X37500Y64400D01*
X38500Y65400D01*
Y66400D01*
X37500D01*
X36500Y65400D01*
X35500Y66400D01*
X34500D01*
Y65400D01*
X35500Y64400D01*
X34500Y63400D01*
Y62400D01*
X38600Y79900D02*
X39600D01*
X40600Y80900D01*
X41600Y79900D01*
X42600D01*
Y80900D01*
X41600Y81900D01*
X42600Y82900D01*
Y83900D01*
X41600D01*
X40600Y82900D01*
X39600Y83900D01*
X38600D01*
Y82900D01*
X39600Y81900D01*
X38600Y80900D01*
Y79900D01*
X43100Y127900D02*
X44100D01*
X45100Y128900D01*
X46100Y127900D01*
X47100D01*
Y128900D01*
X46100Y129900D01*
X47100Y130900D01*
Y131900D01*
X46100D01*
X45100Y130900D01*
X44100Y131900D01*
X43100D01*
Y130900D01*
X44100Y129900D01*
X43100Y128900D01*
Y127900D01*
X38600Y135800D02*
X39600D01*
X40600Y136800D01*
X41600Y135800D01*
X42600D01*
Y136800D01*
X41600Y137800D01*
X42600Y138800D01*
Y139800D01*
X41600D01*
X40600Y138800D01*
X39600Y139800D01*
X38600D01*
Y138800D01*
X39600Y137800D01*
X38600Y136800D01*
Y135800D01*
X145400Y183100D02*
X146400D01*
X147400Y184100D01*
X148400Y183100D01*
X149400D01*
Y184100D01*
X148400Y185100D01*
X149400Y186100D01*
Y187100D01*
X148400D01*
X147400Y186100D01*
X146400Y187100D01*
X145400D01*
Y186100D01*
X146400Y185100D01*
X145400Y184100D01*
Y183100D01*
X140900Y157900D02*
X141900D01*
X142900Y158900D01*
X143900Y157900D01*
X144900D01*
Y158900D01*
X143900Y159900D01*
X144900Y160900D01*
Y161900D01*
X143900D01*
X142900Y160900D01*
X141900Y161900D01*
X140900D01*
Y160900D01*
X141900Y159900D01*
X140900Y158900D01*
Y157900D01*
X114500Y175686D02*
X115500D01*
X116500Y176686D01*
X117500Y175686D01*
X118500D01*
Y176686D01*
X117500Y177686D01*
X118500Y178686D01*
Y179686D01*
X117500D01*
X116500Y178686D01*
X115500Y179686D01*
X114500D01*
Y178686D01*
X115500Y177686D01*
X114500Y176686D01*
Y175686D01*
X129579Y178137D02*
X130579D01*
X131579Y179137D01*
X132579Y178137D01*
X133579D01*
Y179137D01*
X132579Y180137D01*
X133579Y181137D01*
Y182136D01*
X132579D01*
X131579Y181137D01*
X130579Y182136D01*
X129579D01*
Y181137D01*
X130579Y180137D01*
X129579Y179137D01*
Y178137D01*
X138551Y168374D02*
X139551D01*
X140551Y169374D01*
X141551Y168374D01*
X142551D01*
Y169374D01*
X141551Y170374D01*
X142551Y171374D01*
Y172374D01*
X141551D01*
X140551Y171374D01*
X139551Y172374D01*
X138551D01*
Y171374D01*
X139551Y170374D01*
X138551Y169374D01*
Y168374D01*
X136816Y170781D02*
X137816D01*
X138816Y171781D01*
X139816Y170781D01*
X140816D01*
Y171781D01*
X139816Y172781D01*
X140816Y173781D01*
Y174781D01*
X139816D01*
X138816Y173781D01*
X137816Y174781D01*
X136816D01*
Y173781D01*
X137816Y172781D01*
X136816Y171781D01*
Y170781D01*
X119300Y175500D02*
X120300D01*
X121300Y176500D01*
X122300Y175500D01*
X123300D01*
Y176500D01*
X122300Y177500D01*
X123300Y178500D01*
Y179500D01*
X122300D01*
X121300Y178500D01*
X120300Y179500D01*
X119300D01*
Y178500D01*
X120300Y177500D01*
X119300Y176500D01*
Y175500D01*
X134644Y173455D02*
X135644D01*
X136644Y174455D01*
X137644Y173455D01*
X138644D01*
Y174455D01*
X137644Y175455D01*
X138644Y176455D01*
Y177455D01*
X137644D01*
X136644Y176455D01*
X135644Y177455D01*
X134644D01*
Y176455D01*
X135644Y175455D01*
X134644Y174455D01*
Y173455D01*
X132270Y175951D02*
X133270D01*
X134269Y176951D01*
X135269Y175951D01*
X136269D01*
Y176951D01*
X135269Y177951D01*
X136269Y178951D01*
Y179951D01*
X135269D01*
X134269Y178951D01*
X133270Y179951D01*
X132270D01*
Y178951D01*
X133270Y177951D01*
X132270Y176951D01*
Y175951D01*
X106674Y170074D02*
X107674D01*
X108674Y171074D01*
X109674Y170074D01*
X110674D01*
Y171074D01*
X109674Y172074D01*
X110674Y173074D01*
Y174074D01*
X109674D01*
X108674Y173074D01*
X107674Y174074D01*
X106674D01*
Y173074D01*
X107674Y172074D01*
X106674Y171074D01*
Y170074D01*
X109807Y171507D02*
X110807D01*
X111807Y172507D01*
X112807Y171507D01*
X113807D01*
Y172507D01*
X112807Y173507D01*
X113807Y174507D01*
Y175507D01*
X112807D01*
X111807Y174507D01*
X110807Y175507D01*
X109807D01*
Y174507D01*
X110807Y173507D01*
X109807Y172507D01*
Y171507D01*
X97000Y176800D02*
X98000D01*
X99000Y177800D01*
X100000Y176800D01*
X101000D01*
Y177800D01*
X100000Y178800D01*
X101000Y179800D01*
Y180800D01*
X100000D01*
X99000Y179800D01*
X98000Y180800D01*
X97000D01*
Y179800D01*
X98000Y178800D01*
X97000Y177800D01*
Y176800D01*
X102864Y179100D02*
X103864D01*
X104864Y180100D01*
X105864Y179100D01*
X106864D01*
Y180100D01*
X105864Y181100D01*
X106864Y182100D01*
Y183100D01*
X105864D01*
X104864Y182100D01*
X103864Y183100D01*
X102864D01*
Y182100D01*
X103864Y181100D01*
X102864Y180100D01*
Y179100D01*
X95293Y168248D02*
X96293D01*
X97293Y169248D01*
X98293Y168248D01*
X99293D01*
Y169248D01*
X98293Y170248D01*
X99293Y171248D01*
Y172248D01*
X98293D01*
X97293Y171248D01*
X96293Y172248D01*
X95293D01*
Y171248D01*
X96293Y170248D01*
X95293Y169248D01*
Y168248D01*
X101100Y168900D02*
X102100D01*
X103100Y169900D01*
X104100Y168900D01*
X105100D01*
Y169900D01*
X104100Y170900D01*
X105100Y171900D01*
Y172900D01*
X104100D01*
X103100Y171900D01*
X102100Y172900D01*
X101100D01*
Y171900D01*
X102100Y170900D01*
X101100Y169900D01*
Y168900D01*
X90500Y182399D02*
X91500D01*
X92500Y183399D01*
X93500Y182399D01*
X94500D01*
Y183399D01*
X93500Y184399D01*
X94500Y185399D01*
Y186399D01*
X93500D01*
X92500Y185399D01*
X91500Y186399D01*
X90500D01*
Y185399D01*
X91500Y184399D01*
X90500Y183399D01*
Y182399D01*
X168844Y157577D02*
X169844D01*
X170844Y158577D01*
X171844Y157577D01*
X172844D01*
Y158577D01*
X171844Y159577D01*
X172844Y160577D01*
Y161577D01*
X171844D01*
X170844Y160577D01*
X169844Y161577D01*
X168844D01*
Y160577D01*
X169844Y159577D01*
X168844Y158577D01*
Y157577D01*
X166300Y159900D02*
X167300D01*
X168300Y160900D01*
X169300Y159900D01*
X170300D01*
Y160900D01*
X169300Y161900D01*
X170300Y162900D01*
Y163900D01*
X169300D01*
X168300Y162900D01*
X167300Y163900D01*
X166300D01*
Y162900D01*
X167300Y161900D01*
X166300Y160900D01*
Y159900D01*
X167000Y176500D02*
X168000D01*
X169000Y177500D01*
X170000Y176500D01*
X171000D01*
Y177500D01*
X170000Y178500D01*
X171000Y179500D01*
Y180500D01*
X170000D01*
X169000Y179500D01*
X168000Y180500D01*
X167000D01*
Y179500D01*
X168000Y178500D01*
X167000Y177500D01*
Y176500D01*
X181000Y162286D02*
X182000D01*
X183000Y163286D01*
X184000Y162286D01*
X185000D01*
Y163286D01*
X184000Y164286D01*
X185000Y165286D01*
Y166286D01*
X184000D01*
X183000Y165286D01*
X182000Y166286D01*
X181000D01*
Y165286D01*
X182000Y164286D01*
X181000Y163286D01*
Y162286D01*
X184544Y131000D02*
X185544D01*
X186544Y132000D01*
X187544Y131000D01*
X188544D01*
Y132000D01*
X187544Y133000D01*
X188544Y134000D01*
Y135000D01*
X187544D01*
X186544Y134000D01*
X185544Y135000D01*
X184544D01*
Y134000D01*
X185544Y133000D01*
X184544Y132000D01*
Y131000D01*
Y125000D02*
X185544D01*
X186544Y126000D01*
X187544Y125000D01*
X188544D01*
Y126000D01*
X187544Y127000D01*
X188544Y128000D01*
Y129000D01*
X187544D01*
X186544Y128000D01*
X185544Y129000D01*
X184544D01*
Y128000D01*
X185544Y127000D01*
X184544Y126000D01*
Y125000D01*
X201500Y137600D02*
X202500D01*
X203500Y138600D01*
X204500Y137600D01*
X205500D01*
Y138600D01*
X204500Y139600D01*
X205500Y140600D01*
Y141600D01*
X204500D01*
X203500Y140600D01*
X202500Y141600D01*
X201500D01*
Y140600D01*
X202500Y139600D01*
X201500Y138600D01*
Y137600D01*
X186000Y172500D02*
X187000D01*
X188000Y173500D01*
X189000Y172500D01*
X190000D01*
Y173500D01*
X189000Y174500D01*
X190000Y175500D01*
Y176500D01*
X189000D01*
X188000Y175500D01*
X187000Y176500D01*
X186000D01*
Y175500D01*
X187000Y174500D01*
X186000Y173500D01*
Y172500D01*
X143000Y130000D02*
X144000D01*
X145000Y131000D01*
X146000Y130000D01*
X147000D01*
Y131000D01*
X146000Y132000D01*
X147000Y133000D01*
Y134000D01*
X146000D01*
X145000Y133000D01*
X144000Y134000D01*
X143000D01*
Y133000D01*
X144000Y132000D01*
X143000Y131000D01*
Y130000D01*
X134445D02*
X135445D01*
X136445Y131000D01*
X137445Y130000D01*
X138445D01*
Y131000D01*
X137445Y132000D01*
X138445Y133000D01*
Y134000D01*
X137445D01*
X136445Y133000D01*
X135445Y134000D01*
X134445D01*
Y133000D01*
X135445Y132000D01*
X134445Y131000D01*
Y130000D01*
X126500D02*
X127500D01*
X128500Y131000D01*
X129500Y130000D01*
X130500D01*
Y131000D01*
X129500Y132000D01*
X130500Y133000D01*
Y134000D01*
X129500D01*
X128500Y133000D01*
X127500Y134000D01*
X126500D01*
Y133000D01*
X127500Y132000D01*
X126500Y131000D01*
Y130000D01*
X101700Y130200D02*
X102700D01*
X103700Y131200D01*
X104700Y130200D01*
X105700D01*
Y131200D01*
X104700Y132200D01*
X105700Y133200D01*
Y134200D01*
X104700D01*
X103700Y133200D01*
X102700Y134200D01*
X101700D01*
Y133200D01*
X102700Y132200D01*
X101700Y131200D01*
Y130200D01*
X138500Y130000D02*
X139500D01*
X140500Y131000D01*
X141500Y130000D01*
X142500D01*
Y131000D01*
X141500Y132000D01*
X142500Y133000D01*
Y134000D01*
X141500D01*
X140500Y133000D01*
X139500Y134000D01*
X138500D01*
Y133000D01*
X139500Y132000D01*
X138500Y131000D01*
Y130000D01*
X106200Y129314D02*
X107200D01*
X108200Y130314D01*
X109200Y129314D01*
X110200D01*
Y130314D01*
X109200Y131314D01*
X110200Y132314D01*
Y133314D01*
X109200D01*
X108200Y132314D01*
X107200Y133314D01*
X106200D01*
Y132314D01*
X107200Y131314D01*
X106200Y130314D01*
Y129314D01*
X131000Y130000D02*
X132000D01*
X133000Y131000D01*
X134000Y130000D01*
X135000D01*
Y131000D01*
X134000Y132000D01*
X135000Y133000D01*
Y134000D01*
X134000D01*
X133000Y133000D01*
X132000Y134000D01*
X131000D01*
Y133000D01*
X132000Y132000D01*
X131000Y131000D01*
Y130000D01*
X136631Y140500D02*
X137631D01*
X138631Y141500D01*
X139631Y140500D01*
X140631D01*
Y141500D01*
X139631Y142500D01*
X140631Y143500D01*
Y144500D01*
X139631D01*
X138631Y143500D01*
X137631Y144500D01*
X136631D01*
Y143500D01*
X137631Y142500D01*
X136631Y141500D01*
Y140500D01*
X153000Y261500D02*
X154000D01*
X155000Y262500D01*
X156000Y261500D01*
X157000D01*
Y262500D01*
X156000Y263500D01*
X157000Y264500D01*
Y265500D01*
X156000D01*
X155000Y264500D01*
X154000Y265500D01*
X153000D01*
Y264500D01*
X154000Y263500D01*
X153000Y262500D01*
Y261500D01*
X106000Y316500D02*
X107000D01*
X108000Y317500D01*
X109000Y316500D01*
X110000D01*
Y317500D01*
X109000Y318500D01*
X110000Y319500D01*
Y320500D01*
X109000D01*
X108000Y319500D01*
X107000Y320500D01*
X106000D01*
Y319500D01*
X107000Y318500D01*
X106000Y317500D01*
Y316500D01*
X112500D02*
X113500D01*
X114500Y317500D01*
X115500Y316500D01*
X116500D01*
Y317500D01*
X115500Y318500D01*
X116500Y319500D01*
Y320500D01*
X115500D01*
X114500Y319500D01*
X113500Y320500D01*
X112500D01*
Y319500D01*
X113500Y318500D01*
X112500Y317500D01*
Y316500D01*
X120500Y318000D02*
X121500D01*
X122500Y319000D01*
X123500Y318000D01*
X124500D01*
Y319000D01*
X123500Y320000D01*
X124500Y321000D01*
Y322000D01*
X123500D01*
X122500Y321000D01*
X121500Y322000D01*
X120500D01*
Y321000D01*
X121500Y320000D01*
X120500Y319000D01*
Y318000D01*
X124000Y317000D02*
X125000D01*
X126000Y318000D01*
X127000Y317000D01*
X128000D01*
Y318000D01*
X127000Y319000D01*
X128000Y320000D01*
Y321000D01*
X127000D01*
X126000Y320000D01*
X125000Y321000D01*
X124000D01*
Y320000D01*
X125000Y319000D01*
X124000Y318000D01*
Y317000D01*
X210046Y261646D02*
X211046D01*
X212046Y262646D01*
X213046Y261646D01*
X214046D01*
Y262646D01*
X213046Y263646D01*
X214046Y264646D01*
Y265646D01*
X213046D01*
X212046Y264646D01*
X211046Y265646D01*
X210046D01*
Y264646D01*
X211046Y263646D01*
X210046Y262646D01*
Y261646D01*
X206700Y293800D02*
X207700D01*
X208700Y294800D01*
X209700Y293800D01*
X210700D01*
Y294800D01*
X209700Y295800D01*
X210700Y296800D01*
Y297800D01*
X209700D01*
X208700Y296800D01*
X207700Y297800D01*
X206700D01*
Y296800D01*
X207700Y295800D01*
X206700Y294800D01*
Y293800D01*
X198500Y312500D02*
X199500D01*
X200500Y313500D01*
X201500Y312500D01*
X202500D01*
Y313500D01*
X201500Y314500D01*
X202500Y315500D01*
Y316500D01*
X201500D01*
X200500Y315500D01*
X199500Y316500D01*
X198500D01*
Y315500D01*
X199500Y314500D01*
X198500Y313500D01*
Y312500D01*
X196000Y273200D02*
X197000D01*
X198000Y274200D01*
X199000Y273200D01*
X200000D01*
Y274200D01*
X199000Y275200D01*
X200000Y276200D01*
Y277200D01*
X199000D01*
X198000Y276200D01*
X197000Y277200D01*
X196000D01*
Y276200D01*
X197000Y275200D01*
X196000Y274200D01*
Y273200D01*
X118000Y315500D02*
X119000D01*
X120000Y316500D01*
X121000Y315500D01*
X122000D01*
Y316500D01*
X121000Y317500D01*
X122000Y318500D01*
Y319500D01*
X121000D01*
X120000Y318500D01*
X119000Y319500D01*
X118000D01*
Y318500D01*
X119000Y317500D01*
X118000Y316500D01*
Y315500D01*
X119634Y302916D02*
X120634D01*
X121634Y303916D01*
X122634Y302916D01*
X123634D01*
Y303916D01*
X122634Y304916D01*
X123634Y305916D01*
Y306916D01*
X122634D01*
X121634Y305916D01*
X120634Y306916D01*
X119634D01*
Y305916D01*
X120634Y304916D01*
X119634Y303916D01*
Y302916D01*
X131000Y315000D02*
X132000D01*
X133000Y316000D01*
X134000Y315000D01*
X135000D01*
Y316000D01*
X134000Y317000D01*
X135000Y318000D01*
Y319000D01*
X134000D01*
X133000Y318000D01*
X132000Y319000D01*
X131000D01*
Y318000D01*
X132000Y317000D01*
X131000Y316000D01*
Y315000D01*
X124000Y286000D02*
X125000D01*
X126000Y287000D01*
X127000Y286000D01*
X128000D01*
Y287000D01*
X127000Y288000D01*
X128000Y289000D01*
Y290000D01*
X127000D01*
X126000Y289000D01*
X125000Y290000D01*
X124000D01*
Y289000D01*
X125000Y288000D01*
X124000Y287000D01*
Y286000D01*
X127500D02*
X128500D01*
X129500Y287000D01*
X130500Y286000D01*
X131500D01*
Y287000D01*
X130500Y288000D01*
X131500Y289000D01*
Y290000D01*
X130500D01*
X129500Y289000D01*
X128500Y290000D01*
X127500D01*
Y289000D01*
X128500Y288000D01*
X127500Y287000D01*
Y286000D01*
X133000Y312000D02*
X134000D01*
X135000Y313000D01*
X136000Y312000D01*
X137000D01*
Y313000D01*
X136000Y314000D01*
X137000Y315000D01*
Y316000D01*
X136000D01*
X135000Y315000D01*
X134000Y316000D01*
X133000D01*
Y315000D01*
X134000Y314000D01*
X133000Y313000D01*
Y312000D01*
X118000Y298000D02*
X119000D01*
X120000Y299000D01*
X121000Y298000D01*
X122000D01*
Y299000D01*
X121000Y300000D01*
X122000Y301000D01*
Y302000D01*
X121000D01*
X120000Y301000D01*
X119000Y302000D01*
X118000D01*
Y301000D01*
X119000Y300000D01*
X118000Y299000D01*
Y298000D01*
X50000Y297500D02*
X51000D01*
X52000Y298500D01*
X53000Y297500D01*
X54000D01*
Y298500D01*
X53000Y299500D01*
X54000Y300500D01*
Y301500D01*
X53000D01*
X52000Y300500D01*
X51000Y301500D01*
X50000D01*
Y300500D01*
X51000Y299500D01*
X50000Y298500D01*
Y297500D01*
X79800Y299500D02*
X80800D01*
X81800Y300500D01*
X82800Y299500D01*
X83800D01*
Y300500D01*
X82800Y301500D01*
X83800Y302500D01*
Y303500D01*
X82800D01*
X81800Y302500D01*
X80800Y303500D01*
X79800D01*
Y302500D01*
X80800Y301500D01*
X79800Y300500D01*
Y299500D01*
Y292600D02*
X80800D01*
X81800Y293600D01*
X82800Y292600D01*
X83800D01*
Y293600D01*
X82800Y294600D01*
X83800Y295600D01*
Y296600D01*
X82800D01*
X81800Y295600D01*
X80800Y296600D01*
X79800D01*
Y295600D01*
X80800Y294600D01*
X79800Y293600D01*
Y292600D01*
X93723Y277796D02*
X94723D01*
X95723Y278796D01*
X96723Y277796D01*
X97723D01*
Y278796D01*
X96723Y279796D01*
X97723Y280796D01*
Y281796D01*
X96723D01*
X95723Y280796D01*
X94723Y281796D01*
X93723D01*
Y280796D01*
X94723Y279796D01*
X93723Y278796D01*
Y277796D01*
X99400Y281700D02*
X100400D01*
X101400Y282700D01*
X102400Y281700D01*
X103400D01*
Y282700D01*
X102400Y283700D01*
X103400Y284700D01*
Y285700D01*
X102400D01*
X101400Y284700D01*
X100400Y285700D01*
X99400D01*
Y284700D01*
X100400Y283700D01*
X99400Y282700D01*
Y281700D01*
X232500Y293000D02*
X233500D01*
X234500Y294000D01*
X235500Y293000D01*
X236500D01*
Y294000D01*
X235500Y295000D01*
X236500Y296000D01*
Y297000D01*
X235500D01*
X234500Y296000D01*
X233500Y297000D01*
X232500D01*
Y296000D01*
X233500Y295000D01*
X232500Y294000D01*
Y293000D01*
X276937Y247016D02*
X277937D01*
X278937Y248016D01*
X279937Y247016D01*
X280937D01*
Y248016D01*
X279937Y249016D01*
X280937Y250016D01*
Y251016D01*
X279937D01*
X278937Y250016D01*
X277937Y251016D01*
X276937D01*
Y250016D01*
X277937Y249016D01*
X276937Y248016D01*
Y247016D01*
X276150Y254594D02*
X277150D01*
X278150Y255594D01*
X279150Y254594D01*
X280150D01*
Y255594D01*
X279150Y256594D01*
X280150Y257594D01*
Y258594D01*
X279150D01*
X278150Y257594D01*
X277150Y258594D01*
X276150D01*
Y257594D01*
X277150Y256594D01*
X276150Y255594D01*
Y254594D01*
X272016Y257154D02*
X273016D01*
X274016Y258154D01*
X275016Y257154D01*
X276016D01*
Y258154D01*
X275016Y259154D01*
X276016Y260154D01*
Y261154D01*
X275016D01*
X274016Y260154D01*
X273016Y261154D01*
X272016D01*
Y260154D01*
X273016Y259154D01*
X272016Y258154D01*
Y257154D01*
X22500Y297500D02*
X23500D01*
X24500Y298500D01*
X25500Y297500D01*
X26500D01*
Y298500D01*
X25500Y299500D01*
X26500Y300500D01*
Y301500D01*
X25500D01*
X24500Y300500D01*
X23500Y301500D01*
X22500D01*
Y300500D01*
X23500Y299500D01*
X22500Y298500D01*
Y297500D01*
X36500Y260000D02*
X37500D01*
X38500Y261000D01*
X39500Y260000D01*
X40500D01*
Y261000D01*
X39500Y262000D01*
X40500Y263000D01*
Y264000D01*
X39500D01*
X38500Y263000D01*
X37500Y264000D01*
X36500D01*
Y263000D01*
X37500Y262000D01*
X36500Y261000D01*
Y260000D01*
Y255000D02*
X37500D01*
X38500Y256000D01*
X39500Y255000D01*
X40500D01*
Y256000D01*
X39500Y257000D01*
X40500Y258000D01*
Y259000D01*
X39500D01*
X38500Y258000D01*
X37500Y259000D01*
X36500D01*
Y258000D01*
X37500Y257000D01*
X36500Y256000D01*
Y255000D01*
X186100Y184200D02*
X187100D01*
X188100Y185200D01*
X189100Y184200D01*
X190100D01*
Y185200D01*
X189100Y186200D01*
X190100Y187200D01*
Y188200D01*
X189100D01*
X188100Y187200D01*
X187100Y188200D01*
X186100D01*
Y187200D01*
X187100Y186200D01*
X186100Y185200D01*
Y184200D01*
X259319Y200953D02*
X260319D01*
X261319Y201953D01*
X262319Y200953D01*
X263319D01*
Y201953D01*
X262319Y202953D01*
X263319Y203953D01*
Y204953D01*
X262319D01*
X261319Y203953D01*
X260319Y204953D01*
X259319D01*
Y203953D01*
X260319Y202953D01*
X259319Y201953D01*
Y200953D01*
X216910Y179500D02*
X217910D01*
X218910Y180500D01*
X219910Y179500D01*
X220910D01*
Y180500D01*
X219910Y181500D01*
X220910Y182500D01*
Y183500D01*
X219910D01*
X218910Y182500D01*
X217910Y183500D01*
X216910D01*
Y182500D01*
X217910Y181500D01*
X216910Y180500D01*
Y179500D01*
X217900Y182800D02*
X218900D01*
X219900Y183800D01*
X220900Y182800D01*
X221900D01*
Y183800D01*
X220900Y184800D01*
X221900Y185800D01*
Y186800D01*
X220900D01*
X219900Y185800D01*
X218900Y186800D01*
X217900D01*
Y185800D01*
X218900Y184800D01*
X217900Y183800D01*
Y182800D01*
X156200Y257200D02*
X157200D01*
X158200Y258200D01*
X159200Y257200D01*
X160200D01*
Y258200D01*
X159200Y259200D01*
X160200Y260200D01*
Y261200D01*
X159200D01*
X158200Y260200D01*
X157200Y261200D01*
X156200D01*
Y260200D01*
X157200Y259200D01*
X156200Y258200D01*
Y257200D01*
X171800Y249800D02*
X172800D01*
X173800Y250800D01*
X174800Y249800D01*
X175800D01*
Y250800D01*
X174800Y251800D01*
X175800Y252800D01*
Y253800D01*
X174800D01*
X173800Y252800D01*
X172800Y253800D01*
X171800D01*
Y252800D01*
X172800Y251800D01*
X171800Y250800D01*
Y249800D01*
X160400Y254700D02*
X161400D01*
X162400Y255700D01*
X163400Y254700D01*
X164400D01*
Y255700D01*
X163400Y256700D01*
X164400Y257700D01*
Y258700D01*
X163400D01*
X162400Y257700D01*
X161400Y258700D01*
X160400D01*
Y257700D01*
X161400Y256700D01*
X160400Y255700D01*
Y254700D01*
X71800Y185300D02*
X72800D01*
X73800Y186300D01*
X74800Y185300D01*
X75800D01*
Y186300D01*
X74800Y187300D01*
X75800Y188300D01*
Y189300D01*
X74800D01*
X73800Y188300D01*
X72800Y189300D01*
X71800D01*
Y188300D01*
X72800Y187300D01*
X71800Y186300D01*
Y185300D01*
X180500Y183600D02*
X181500D01*
X182500Y184600D01*
X183500Y183600D01*
X184500D01*
Y184600D01*
X183500Y185600D01*
X184500Y186600D01*
Y187600D01*
X183500D01*
X182500Y186600D01*
X181500Y187600D01*
X180500D01*
Y186600D01*
X181500Y185600D01*
X180500Y184600D01*
Y183600D01*
X219714Y185600D02*
X220714D01*
X221714Y186600D01*
X222714Y185600D01*
X223714D01*
Y186600D01*
X222714Y187600D01*
X223714Y188600D01*
Y189600D01*
X222714D01*
X221714Y188600D01*
X220714Y189600D01*
X219714D01*
Y188600D01*
X220714Y187600D01*
X219714Y186600D01*
Y185600D01*
X252626Y204102D02*
X253626D01*
X254626Y205102D01*
X255626Y204102D01*
X256626D01*
Y205102D01*
X255626Y206102D01*
X256626Y207102D01*
Y208102D01*
X255626D01*
X254626Y207102D01*
X253626Y208102D01*
X252626D01*
Y207102D01*
X253626Y206102D01*
X252626Y205102D01*
Y204102D01*
X210900Y193200D02*
X211900D01*
X212900Y194200D01*
X213900Y193200D01*
X214900D01*
Y194200D01*
X213900Y195200D01*
X214900Y196200D01*
Y197200D01*
X213900D01*
X212900Y196200D01*
X211900Y197200D01*
X210900D01*
Y196200D01*
X211900Y195200D01*
X210900Y194200D01*
Y193200D01*
Y198200D02*
X211900D01*
X212900Y199200D01*
X213900Y198200D01*
X214900D01*
Y199200D01*
X213900Y200200D01*
X214900Y201200D01*
Y202200D01*
X213900D01*
X212900Y201200D01*
X211900Y202200D01*
X210900D01*
Y201200D01*
X211900Y200200D01*
X210900Y199200D01*
Y198200D01*
X57100Y240000D02*
X58100D01*
X59100Y241000D01*
X60100Y240000D01*
X61100D01*
Y241000D01*
X60100Y242000D01*
X61100Y243000D01*
Y244000D01*
X60100D01*
X59100Y243000D01*
X58100Y244000D01*
X57100D01*
Y243000D01*
X58100Y242000D01*
X57100Y241000D01*
Y240000D01*
X57500Y248600D02*
X58500D01*
X59500Y249600D01*
X60500Y248600D01*
X61500D01*
Y249600D01*
X60500Y250600D01*
X61500Y251600D01*
Y252600D01*
X60500D01*
X59500Y251600D01*
X58500Y252600D01*
X57500D01*
Y251600D01*
X58500Y250600D01*
X57500Y249600D01*
Y248600D01*
X79300Y238000D02*
X80300D01*
X81300Y239000D01*
X82300Y238000D01*
X83300D01*
Y239000D01*
X82300Y240000D01*
X83300Y241000D01*
Y242000D01*
X82300D01*
X81300Y241000D01*
X80300Y242000D01*
X79300D01*
Y241000D01*
X80300Y240000D01*
X79300Y239000D01*
Y238000D01*
X36500Y245000D02*
X37500D01*
X38500Y246000D01*
X39500Y245000D01*
X40500D01*
Y246000D01*
X39500Y247000D01*
X40500Y248000D01*
Y249000D01*
X39500D01*
X38500Y248000D01*
X37500Y249000D01*
X36500D01*
Y248000D01*
X37500Y247000D01*
X36500Y246000D01*
Y245000D01*
X220700Y236700D02*
X221700D01*
X222700Y237700D01*
X223700Y236700D01*
X224700D01*
Y237700D01*
X223700Y238700D01*
X224700Y239700D01*
Y240700D01*
X223700D01*
X222700Y239700D01*
X221700Y240700D01*
X220700D01*
Y239700D01*
X221700Y238700D01*
X220700Y237700D01*
Y236700D01*
X233300Y207100D02*
X234300D01*
X235300Y208100D01*
X236300Y207100D01*
X237300D01*
Y208100D01*
X236300Y209100D01*
X237300Y210100D01*
Y211100D01*
X236300D01*
X235300Y210100D01*
X234300Y211100D01*
X233300D01*
Y210100D01*
X234300Y209100D01*
X233300Y208100D01*
Y207100D01*
Y210700D02*
X234300D01*
X235300Y211700D01*
X236300Y210700D01*
X237300D01*
Y211700D01*
X236300Y212700D01*
X237300Y213700D01*
Y214700D01*
X236300D01*
X235300Y213700D01*
X234300Y214700D01*
X233300D01*
Y213700D01*
X234300Y212700D01*
X233300Y211700D01*
Y210700D01*
X229300Y239200D02*
X230300D01*
X231300Y240200D01*
X232300Y239200D01*
X233300D01*
Y240200D01*
X232300Y241200D01*
X233300Y242200D01*
Y243200D01*
X232300D01*
X231300Y242200D01*
X230300Y243200D01*
X229300D01*
Y242200D01*
X230300Y241200D01*
X229300Y240200D01*
Y239200D01*
X71700Y194400D02*
X72700D01*
X73700Y195400D01*
X74700Y194400D01*
X75700D01*
Y195400D01*
X74700Y196400D01*
X75700Y197400D01*
Y198400D01*
X74700D01*
X73700Y197400D01*
X72700Y198400D01*
X71700D01*
Y197400D01*
X72700Y196400D01*
X71700Y195400D01*
Y194400D01*
X71600Y189300D02*
X72600D01*
X73600Y190300D01*
X74600Y189300D01*
X75600D01*
Y190300D01*
X74600Y191300D01*
X75600Y192300D01*
Y193300D01*
X74600D01*
X73600Y192300D01*
X72600Y193300D01*
X71600D01*
Y192300D01*
X72600Y191300D01*
X71600Y190300D01*
Y189300D01*
X140964Y230023D02*
X141964D01*
X142964Y231023D01*
X143964Y230023D01*
X144964D01*
Y231023D01*
X143964Y232023D01*
X144964Y233023D01*
Y234023D01*
X143964D01*
X142964Y233023D01*
X141964Y234023D01*
X140964D01*
Y233023D01*
X141964Y232023D01*
X140964Y231023D01*
Y230023D01*
X141000Y226000D02*
X142000D01*
X143000Y227000D01*
X144000Y226000D01*
X145000D01*
Y227000D01*
X144000Y228000D01*
X145000Y229000D01*
Y230000D01*
X144000D01*
X143000Y229000D01*
X142000Y230000D01*
X141000D01*
Y229000D01*
X142000Y228000D01*
X141000Y227000D01*
Y226000D01*
X143892Y228000D02*
X144892D01*
X145892Y229000D01*
X146892Y228000D01*
X147892D01*
Y229000D01*
X146892Y230000D01*
X147892Y231000D01*
Y232000D01*
X146892D01*
X145892Y231000D01*
X144892Y232000D01*
X143892D01*
Y231000D01*
X144892Y230000D01*
X143892Y229000D01*
Y228000D01*
X140770Y233330D02*
X141770D01*
X142770Y234330D01*
X143770Y233330D01*
X144770D01*
Y234330D01*
X143770Y235330D01*
X144770Y236330D01*
Y237330D01*
X143770D01*
X142770Y236330D01*
X141770Y237330D01*
X140770D01*
Y236330D01*
X141770Y235330D01*
X140770Y234330D01*
Y233330D01*
X133200Y242100D02*
X134200D01*
X135200Y243100D01*
X136200Y242100D01*
X137200D01*
Y243100D01*
X136200Y244100D01*
X137200Y245100D01*
Y246100D01*
X136200D01*
X135200Y245100D01*
X134200Y246100D01*
X133200D01*
Y245100D01*
X134200Y244100D01*
X133200Y243100D01*
Y242100D01*
X127400Y242600D02*
X128400D01*
X129400Y243600D01*
X130400Y242600D01*
X131400D01*
Y243600D01*
X130400Y244600D01*
X131400Y245600D01*
Y246600D01*
X130400D01*
X129400Y245600D01*
X128400Y246600D01*
X127400D01*
Y245600D01*
X128400Y244600D01*
X127400Y243600D01*
Y242600D01*
X162600Y189900D02*
X163600D01*
X164600Y190900D01*
X165600Y189900D01*
X166600D01*
Y190900D01*
X165600Y191900D01*
X166600Y192900D01*
Y193900D01*
X165600D01*
X164600Y192900D01*
X163600Y193900D01*
X162600D01*
Y192900D01*
X163600Y191900D01*
X162600Y190900D01*
Y189900D01*
X180300Y191400D02*
X181300D01*
X182300Y192400D01*
X183300Y191400D01*
X184300D01*
Y192400D01*
X183300Y193400D01*
X184300Y194400D01*
Y195400D01*
X183300D01*
X182300Y194400D01*
X181300Y195400D01*
X180300D01*
Y194400D01*
X181300Y193400D01*
X180300Y192400D01*
Y191400D01*
X156500Y210200D02*
X157500D01*
X158500Y211200D01*
X159500Y210200D01*
X160500D01*
Y211200D01*
X159500Y212200D01*
X160500Y213200D01*
Y214200D01*
X159500D01*
X158500Y213200D01*
X157500Y214200D01*
X156500D01*
Y213200D01*
X157500Y212200D01*
X156500Y211200D01*
Y210200D01*
X157800Y189300D02*
X158800D01*
X159800Y190300D01*
X160800Y189300D01*
X161800D01*
Y190300D01*
X160800Y191300D01*
X161800Y192300D01*
Y193300D01*
X160800D01*
X159800Y192300D01*
X158800Y193300D01*
X157800D01*
Y192300D01*
X158800Y191300D01*
X157800Y190300D01*
Y189300D01*
X159000Y212900D02*
X160000D01*
X161000Y213900D01*
X162000Y212900D01*
X163000D01*
Y213900D01*
X162000Y214900D01*
X163000Y215900D01*
Y216900D01*
X162000D01*
X161000Y215900D01*
X160000Y216900D01*
X159000D01*
Y215900D01*
X160000Y214900D01*
X159000Y213900D01*
Y212900D01*
X163700Y207100D02*
X164700D01*
X165700Y208100D01*
X166700Y207100D01*
X167700D01*
Y208100D01*
X166700Y209100D01*
X167700Y210100D01*
Y211100D01*
X166700D01*
X165700Y210100D01*
X164700Y211100D01*
X163700D01*
Y210100D01*
X164700Y209100D01*
X163700Y208100D01*
Y207100D01*
X162900Y210800D02*
X163900D01*
X164900Y211800D01*
X165900Y210800D01*
X166900D01*
Y211800D01*
X165900Y212800D01*
X166900Y213800D01*
Y214800D01*
X165900D01*
X164900Y213800D01*
X163900Y214800D01*
X162900D01*
Y213800D01*
X163900Y212800D01*
X162900Y211800D01*
Y210800D01*
X180500Y216700D02*
X181500D01*
X182500Y217700D01*
X183500Y216700D01*
X184500D01*
Y217700D01*
X183500Y218700D01*
X184500Y219700D01*
Y220700D01*
X183500D01*
X182500Y219700D01*
X181500Y220700D01*
X180500D01*
Y219700D01*
X181500Y218700D01*
X180500Y217700D01*
Y216700D01*
X185900Y190600D02*
X186900D01*
X187900Y191600D01*
X188900Y190600D01*
X189900D01*
Y191600D01*
X188900Y192600D01*
X189900Y193600D01*
Y194600D01*
X188900D01*
X187900Y193600D01*
X186900Y194600D01*
X185900D01*
Y193600D01*
X186900Y192600D01*
X185900Y191600D01*
Y190600D01*
X140665Y220877D02*
X141665D01*
X142665Y221877D01*
X143665Y220877D01*
X144665D01*
Y221877D01*
X143665Y222877D01*
X144665Y223877D01*
Y224877D01*
X143665D01*
X142665Y223877D01*
X141665Y224877D01*
X140665D01*
Y223877D01*
X141665Y222877D01*
X140665Y221877D01*
Y220877D01*
X143951Y211382D02*
X144951D01*
X145951Y212382D01*
X146951Y211382D01*
X147951D01*
Y212382D01*
X146951Y213382D01*
X147951Y214382D01*
Y215382D01*
X146951D01*
X145951Y214382D01*
X144951Y215382D01*
X143951D01*
Y214382D01*
X144951Y213382D01*
X143951Y212382D01*
Y211382D01*
Y215882D02*
X144951D01*
X145951Y216882D01*
X146951Y215882D01*
X147951D01*
Y216882D01*
X146951Y217882D01*
X147951Y218882D01*
Y219882D01*
X146951D01*
X145951Y218882D01*
X144951Y219882D01*
X143951D01*
Y218882D01*
X144951Y217882D01*
X143951Y216882D01*
Y215882D01*
X133400Y193100D02*
X134400D01*
X135400Y194100D01*
X136400Y193100D01*
X137400D01*
Y194100D01*
X136400Y195100D01*
X137400Y196100D01*
Y197100D01*
X136400D01*
X135400Y196100D01*
X134400Y197100D01*
X133400D01*
Y196100D01*
X134400Y195100D01*
X133400Y194100D01*
Y193100D01*
X145400Y189000D02*
X146400D01*
X147400Y190000D01*
X148400Y189000D01*
X149400D01*
Y190000D01*
X148400Y191000D01*
X149400Y192000D01*
Y193000D01*
X148400D01*
X147400Y192000D01*
X146400Y193000D01*
X145400D01*
Y192000D01*
X146400Y191000D01*
X145400Y190000D01*
Y189000D01*
X138600Y192755D02*
X139600D01*
X140600Y193755D01*
X141600Y192755D01*
X142600D01*
Y193755D01*
X141600Y194755D01*
X142600Y195755D01*
Y196755D01*
X141600D01*
X140600Y195755D01*
X139600Y196755D01*
X138600D01*
Y195755D01*
X139600Y194755D01*
X138600Y193755D01*
Y192755D01*
X142200Y191555D02*
X143200D01*
X144200Y192555D01*
X145200Y191555D01*
X146200D01*
Y192555D01*
X145200Y193555D01*
X146200Y194555D01*
Y195555D01*
X145200D01*
X144200Y194555D01*
X143200Y195555D01*
X142200D01*
Y194555D01*
X143200Y193555D01*
X142200Y192555D01*
Y191555D01*
X143831Y222234D02*
X144831D01*
X145831Y223234D01*
X146831Y222234D01*
X147831D01*
Y223234D01*
X146831Y224234D01*
X147831Y225234D01*
Y226234D01*
X146831D01*
X145831Y225234D01*
X144831Y226234D01*
X143831D01*
Y225234D01*
X144831Y224234D01*
X143831Y223234D01*
Y222234D01*
X38500Y193000D02*
X39500D01*
X40500Y194000D01*
X41500Y193000D01*
X42500D01*
Y194000D01*
X41500Y195000D01*
X42500Y196000D01*
Y197000D01*
X41500D01*
X40500Y196000D01*
X39500Y197000D01*
X38500D01*
Y196000D01*
X39500Y195000D01*
X38500Y194000D01*
Y193000D01*
X34900Y188400D02*
X35900D01*
X36900Y189400D01*
X37900Y188400D01*
X38900D01*
Y189400D01*
X37900Y190400D01*
X38900Y191400D01*
Y192400D01*
X37900D01*
X36900Y191400D01*
X35900Y192400D01*
X34900D01*
Y191400D01*
X35900Y190400D01*
X34900Y189400D01*
Y188400D01*
X97205Y186758D02*
X98205D01*
X99205Y187758D01*
X100205Y186758D01*
X101205D01*
Y187758D01*
X100205Y188758D01*
X101205Y189758D01*
Y190758D01*
X100205D01*
X99205Y189758D01*
X98205Y190758D01*
X97205D01*
Y189758D01*
X98205Y188758D01*
X97205Y187758D01*
Y186758D01*
X60500Y176500D02*
X61500D01*
X62500Y177500D01*
X63500Y176500D01*
X64500D01*
Y177500D01*
X63500Y178500D01*
X64500Y179500D01*
Y180500D01*
X63500D01*
X62500Y179500D01*
X61500Y180500D01*
X60500D01*
Y179500D01*
X61500Y178500D01*
X60500Y177500D01*
Y176500D01*
X89000Y185500D02*
X90000D01*
X91000Y186500D01*
X92000Y185500D01*
X93000D01*
Y186500D01*
X92000Y187500D01*
X93000Y188500D01*
Y189500D01*
X92000D01*
X91000Y188500D01*
X90000Y189500D01*
X89000D01*
Y188500D01*
X90000Y187500D01*
X89000Y186500D01*
Y185500D01*
X93971Y185573D02*
X94971D01*
X95970Y186573D01*
X96970Y185573D01*
X97970D01*
Y186573D01*
X96970Y187573D01*
X97970Y188573D01*
Y189573D01*
X96970D01*
X95970Y188573D01*
X94971Y189573D01*
X93971D01*
Y188573D01*
X94971Y187573D01*
X93971Y186573D01*
Y185573D01*
X48500Y182500D02*
X49500D01*
X50500Y183500D01*
X51500Y182500D01*
X52500D01*
Y183500D01*
X51500Y184500D01*
X52500Y185500D01*
Y186500D01*
X51500D01*
X50500Y185500D01*
X49500Y186500D01*
X48500D01*
Y185500D01*
X49500Y184500D01*
X48500Y183500D01*
Y182500D01*
X19570Y87000D02*
X20570D01*
X21570Y88000D01*
X22570Y87000D01*
X23570D01*
Y88000D01*
X22570Y89000D01*
X23570Y90000D01*
Y91000D01*
X22570D01*
X21570Y90000D01*
X20570Y91000D01*
X19570D01*
Y90000D01*
X20570Y89000D01*
X19570Y88000D01*
Y87000D01*
X2355Y33425D02*
X3355D01*
X4355Y34425D01*
X5355Y33425D01*
X6355D01*
Y34425D01*
X5355Y35425D01*
X6355Y36425D01*
Y37425D01*
X5355D01*
X4355Y36425D01*
X3355Y37425D01*
X2355D01*
Y36425D01*
X3355Y35425D01*
X2355Y34425D01*
Y33425D01*
X40900Y82500D02*
X41900D01*
X42900Y83500D01*
X43900Y82500D01*
X44900D01*
Y83500D01*
X43900Y84500D01*
X44900Y85500D01*
Y86500D01*
X43900D01*
X42900Y85500D01*
X41900Y86500D01*
X40900D01*
Y85500D01*
X41900Y84500D01*
X40900Y83500D01*
Y82500D01*
X39700Y62200D02*
X40700D01*
X41700Y63200D01*
X42700Y62200D01*
X43700D01*
Y63200D01*
X42700Y64200D01*
X43700Y65200D01*
Y66200D01*
X42700D01*
X41700Y65200D01*
X40700Y66200D01*
X39700D01*
Y65200D01*
X40700Y64200D01*
X39700Y63200D01*
Y62200D01*
X47922Y65222D02*
X48922D01*
X49922Y66222D01*
X50922Y65222D01*
X51922D01*
Y66222D01*
X50922Y67222D01*
X51922Y68222D01*
Y69222D01*
X50922D01*
X49922Y68222D01*
X48922Y69222D01*
X47922D01*
Y68222D01*
X48922Y67222D01*
X47922Y66222D01*
Y65222D01*
X67922Y65722D02*
X68922D01*
X69922Y66722D01*
X70922Y65722D01*
X71922D01*
Y66722D01*
X70922Y67722D01*
X71922Y68722D01*
Y69722D01*
X70922D01*
X69922Y68722D01*
X68922Y69722D01*
X67922D01*
Y68722D01*
X68922Y67722D01*
X67922Y66722D01*
Y65722D01*
X46400Y70000D02*
X47400D01*
X48400Y71000D01*
X49400Y70000D01*
X50400D01*
Y71000D01*
X49400Y72000D01*
X50400Y73000D01*
Y74000D01*
X49400D01*
X48400Y73000D01*
X47400Y74000D01*
X46400D01*
Y73000D01*
X47400Y72000D01*
X46400Y71000D01*
Y70000D01*
X67968Y72202D02*
X68968D01*
X69968Y73202D01*
X70968Y72202D01*
X71968D01*
Y73202D01*
X70968Y74202D01*
X71968Y75202D01*
Y76202D01*
X70968D01*
X69968Y75202D01*
X68968Y76202D01*
X67968D01*
Y75202D01*
X68968Y74202D01*
X67968Y73202D01*
Y72202D01*
X47922Y73722D02*
X48922D01*
X49922Y74722D01*
X50922Y73722D01*
X51922D01*
Y74722D01*
X50922Y75722D01*
X51922Y76722D01*
Y77722D01*
X50922D01*
X49922Y76722D01*
X48922Y77722D01*
X47922D01*
Y76722D01*
X48922Y75722D01*
X47922Y74722D01*
Y73722D01*
X15070Y90500D02*
X16070D01*
X17070Y91500D01*
X18070Y90500D01*
X19070D01*
Y91500D01*
X18070Y92500D01*
X19070Y93500D01*
Y94500D01*
X18070D01*
X17070Y93500D01*
X16070Y94500D01*
X15070D01*
Y93500D01*
X16070Y92500D01*
X15070Y91500D01*
Y90500D01*
X6292Y141897D02*
X7292D01*
X8292Y142897D01*
X9292Y141897D01*
X10292D01*
Y142897D01*
X9292Y143897D01*
X10292Y144897D01*
Y145897D01*
X9292D01*
X8292Y144897D01*
X7292Y145897D01*
X6292D01*
Y144897D01*
X7292Y143897D01*
X6292Y142897D01*
Y141897D01*
X31914Y115400D02*
X32914D01*
X33914Y116400D01*
X34914Y115400D01*
X35914D01*
Y116400D01*
X34914Y117400D01*
X35914Y118400D01*
Y119400D01*
X34914D01*
X33914Y118400D01*
X32914Y119400D01*
X31914D01*
Y118400D01*
X32914Y117400D01*
X31914Y116400D01*
Y115400D01*
X48000Y122000D02*
X49000D01*
X50000Y123000D01*
X51000Y122000D01*
X52000D01*
Y123000D01*
X51000Y124000D01*
X52000Y125000D01*
Y126000D01*
X51000D01*
X50000Y125000D01*
X49000Y126000D01*
X48000D01*
Y125000D01*
X49000Y124000D01*
X48000Y123000D01*
Y122000D01*
X68000Y122500D02*
X69000D01*
X70000Y123500D01*
X71000Y122500D01*
X72000D01*
Y123500D01*
X71000Y124500D01*
X72000Y125500D01*
Y126500D01*
X71000D01*
X70000Y125500D01*
X69000Y126500D01*
X68000D01*
Y125500D01*
X69000Y124500D01*
X68000Y123500D01*
Y122500D01*
X46856Y126659D02*
X47856D01*
X48856Y127659D01*
X49856Y126659D01*
X50856D01*
Y127659D01*
X49856Y128659D01*
X50856Y129659D01*
Y130659D01*
X49856D01*
X48856Y129659D01*
X47856Y130659D01*
X46856D01*
Y129659D01*
X47856Y128659D01*
X46856Y127659D01*
Y126659D01*
X68046Y128980D02*
X69046D01*
X70046Y129980D01*
X71046Y128980D01*
X72046D01*
Y129980D01*
X71046Y130980D01*
X72046Y131980D01*
Y132980D01*
X71046D01*
X70046Y131980D01*
X69046Y132980D01*
X68046D01*
Y131980D01*
X69046Y130980D01*
X68046Y129980D01*
Y128980D01*
X48000Y130500D02*
X49000D01*
X50000Y131500D01*
X51000Y130500D01*
X52000D01*
Y131500D01*
X51000Y132500D01*
X52000Y133500D01*
Y134500D01*
X51000D01*
X50000Y133500D01*
X49000Y134500D01*
X48000D01*
Y133500D01*
X49000Y132500D01*
X48000Y131500D01*
Y130500D01*
X75500Y137500D02*
X76500D01*
X77500Y138500D01*
X78500Y137500D01*
X79500D01*
Y138500D01*
X78500Y139500D01*
X79500Y140500D01*
Y141500D01*
X78500D01*
X77500Y140500D01*
X76500Y141500D01*
X75500D01*
Y140500D01*
X76500Y139500D01*
X75500Y138500D01*
Y137500D01*
X80500D02*
X81500D01*
X82500Y138500D01*
X83500Y137500D01*
X84500D01*
Y138500D01*
X83500Y139500D01*
X84500Y140500D01*
Y141500D01*
X83500D01*
X82500Y140500D01*
X81500Y141500D01*
X80500D01*
Y140500D01*
X81500Y139500D01*
X80500Y138500D01*
Y137500D01*
X40914Y138800D02*
X41914D01*
X42914Y139800D01*
X43914Y138800D01*
X44914D01*
Y139800D01*
X43914Y140800D01*
X44914Y141800D01*
Y142800D01*
X43914D01*
X42914Y141800D01*
X41914Y142800D01*
X40914D01*
Y141800D01*
X41914Y140800D01*
X40914Y139800D01*
Y138800D01*
X74500Y140700D02*
X75500D01*
X76500Y141700D01*
X77500Y140700D01*
X78500D01*
Y141700D01*
X77500Y142700D01*
X78500Y143700D01*
Y144700D01*
X77500D01*
X76500Y143700D01*
X75500Y144700D01*
X74500D01*
Y143700D01*
X75500Y142700D01*
X74500Y141700D01*
Y140700D01*
X31400Y177000D02*
X32400D01*
X33400Y178000D01*
X34400Y177000D01*
X35400D01*
Y178000D01*
X34400Y179000D01*
X35400Y180000D01*
Y181000D01*
X34400D01*
X33400Y180000D01*
X32400Y181000D01*
X31400D01*
Y180000D01*
X32400Y179000D01*
X31400Y178000D01*
Y177000D01*
X31200Y151300D02*
X32200D01*
X33200Y152300D01*
X34200Y151300D01*
X35200D01*
Y152300D01*
X34200Y153300D01*
X35200Y154300D01*
Y155300D01*
X34200D01*
X33200Y154300D01*
X32200Y155300D01*
X31200D01*
Y154300D01*
X32200Y153300D01*
X31200Y152300D01*
Y151300D01*
X60650Y173058D02*
X61650D01*
X62650Y174058D01*
X63650Y173058D01*
X64650D01*
Y174058D01*
X63650Y175058D01*
X64650Y176058D01*
Y177058D01*
X63650D01*
X62650Y176058D01*
X61650Y177058D01*
X60650D01*
Y176058D01*
X61650Y175058D01*
X60650Y174058D01*
Y173058D01*
X101500Y142500D02*
X102500D01*
X103500Y143500D01*
X104500Y142500D01*
X105500D01*
Y143500D01*
X104500Y144500D01*
X105500Y145500D01*
Y146500D01*
X104500D01*
X103500Y145500D01*
X102500Y146500D01*
X101500D01*
Y145500D01*
X102500Y144500D01*
X101500Y143500D01*
Y142500D01*
X119000Y143000D02*
X120000D01*
X121000Y144000D01*
X122000Y143000D01*
X123000D01*
Y144000D01*
X122000Y145000D01*
X123000Y146000D01*
Y147000D01*
X122000D01*
X121000Y146000D01*
X120000Y147000D01*
X119000D01*
Y146000D01*
X120000Y145000D01*
X119000Y144000D01*
Y143000D01*
X105000Y143500D02*
X106000D01*
X107000Y144500D01*
X108000Y143500D01*
X109000D01*
Y144500D01*
X108000Y145500D01*
X109000Y146500D01*
Y147500D01*
X108000D01*
X107000Y146500D01*
X106000Y147500D01*
X105000D01*
Y146500D01*
X106000Y145500D01*
X105000Y144500D01*
Y143500D01*
X123000Y146000D02*
X124000D01*
X125000Y147000D01*
X126000Y146000D01*
X127000D01*
Y147000D01*
X126000Y148000D01*
X127000Y149000D01*
Y150000D01*
X126000D01*
X125000Y149000D01*
X124000Y150000D01*
X123000D01*
Y149000D01*
X124000Y148000D01*
X123000Y147000D01*
Y146000D01*
X101500Y147500D02*
X102500D01*
X103500Y148500D01*
X104500Y147500D01*
X105500D01*
Y148500D01*
X104500Y149500D01*
X105500Y150500D01*
Y151500D01*
X104500D01*
X103500Y150500D01*
X102500Y151500D01*
X101500D01*
Y150500D01*
X102500Y149500D01*
X101500Y148500D01*
Y147500D01*
X104919Y148459D02*
X105919D01*
X106919Y149459D01*
X107919Y148459D01*
X108919D01*
Y149459D01*
X107919Y150459D01*
X108919Y151459D01*
Y152459D01*
X107919D01*
X106919Y151459D01*
X105919Y152459D01*
X104919D01*
Y151459D01*
X105919Y150459D01*
X104919Y149459D01*
Y148459D01*
X99500Y150000D02*
X100500D01*
X101500Y151000D01*
X102500Y150000D01*
X103500D01*
Y151000D01*
X102500Y152000D01*
X103500Y153000D01*
Y154000D01*
X102500D01*
X101500Y153000D01*
X100500Y154000D01*
X99500D01*
Y153000D01*
X100500Y152000D01*
X99500Y151000D01*
Y150000D01*
X105932Y158392D02*
X106932D01*
X107932Y159392D01*
X108932Y158392D01*
X109932D01*
Y159392D01*
X108932Y160392D01*
X109932Y161392D01*
Y162392D01*
X108932D01*
X107932Y161392D01*
X106932Y162392D01*
X105932D01*
Y161392D01*
X106932Y160392D01*
X105932Y159392D01*
Y158392D01*
X123000Y151000D02*
X124000D01*
X125000Y152000D01*
X126000Y151000D01*
X127000D01*
Y152000D01*
X126000Y153000D01*
X127000Y154000D01*
Y155000D01*
X126000D01*
X125000Y154000D01*
X124000Y155000D01*
X123000D01*
Y154000D01*
X124000Y153000D01*
X123000Y152000D01*
Y151000D01*
X110500Y156500D02*
X111500D01*
X112500Y157500D01*
X113500Y156500D01*
X114500D01*
Y157500D01*
X113500Y158500D01*
X114500Y159500D01*
Y160500D01*
X113500D01*
X112500Y159500D01*
X111500Y160500D01*
X110500D01*
Y159500D01*
X111500Y158500D01*
X110500Y157500D01*
Y156500D01*
X114500D02*
X115500D01*
X116500Y157500D01*
X117500Y156500D01*
X118500D01*
Y157500D01*
X117500Y158500D01*
X118500Y159500D01*
Y160500D01*
X117500D01*
X116500Y159500D01*
X115500Y160500D01*
X114500D01*
Y159500D01*
X115500Y158500D01*
X114500Y157500D01*
Y156500D01*
X123000D02*
X124000D01*
X125000Y157500D01*
X126000Y156500D01*
X127000D01*
Y157500D01*
X126000Y158500D01*
X127000Y159500D01*
Y160500D01*
X126000D01*
X125000Y159500D01*
X124000Y160500D01*
X123000D01*
Y159500D01*
X124000Y158500D01*
X123000Y157500D01*
Y156500D01*
X108000Y150000D02*
X109000D01*
X110000Y151000D01*
X111000Y150000D01*
X112000D01*
Y151000D01*
X111000Y152000D01*
X112000Y153000D01*
Y154000D01*
X111000D01*
X110000Y153000D01*
X109000Y154000D01*
X108000D01*
Y153000D01*
X109000Y152000D01*
X108000Y151000D01*
Y150000D01*
X102132Y158392D02*
X103132D01*
X104132Y159392D01*
X105132Y158392D01*
X106132D01*
Y159392D01*
X105132Y160392D01*
X106132Y161392D01*
Y162392D01*
X105132D01*
X104132Y161392D01*
X103132Y162392D01*
X102132D01*
Y161392D01*
X103132Y160392D01*
X102132Y159392D01*
Y158392D01*
X130558Y168966D02*
X131558D01*
X132557Y169966D01*
X133557Y168966D01*
X134557D01*
Y169966D01*
X133557Y170966D01*
X134557Y171966D01*
Y172966D01*
X133557D01*
X132557Y171966D01*
X131558Y172966D01*
X130558D01*
Y171966D01*
X131558Y170966D01*
X130558Y169966D01*
Y168966D01*
X133445Y168399D02*
X134445D01*
X135445Y169399D01*
X136445Y168399D01*
X137445D01*
Y169399D01*
X136445Y170399D01*
X137445Y171399D01*
Y172399D01*
X136445D01*
X135445Y171399D01*
X134445Y172399D01*
X133445D01*
Y171399D01*
X134445Y170399D01*
X133445Y169399D01*
Y168399D01*
X99300Y179400D02*
X100300D01*
X101300Y180400D01*
X102300Y179400D01*
X103300D01*
Y180400D01*
X102300Y181400D01*
X103300Y182400D01*
Y183400D01*
X102300D01*
X101300Y182400D01*
X100300Y183400D01*
X99300D01*
Y182400D01*
X100300Y181400D01*
X99300Y180400D01*
Y179400D01*
X104240Y172523D02*
X105240D01*
X106240Y173523D01*
X107240Y172523D01*
X108240D01*
Y173523D01*
X107240Y174523D01*
X108240Y175523D01*
Y176523D01*
X107240D01*
X106240Y175523D01*
X105240Y176523D01*
X104240D01*
Y175523D01*
X105240Y174523D01*
X104240Y173523D01*
Y172523D01*
X107200Y173800D02*
X108200D01*
X109200Y174800D01*
X110200Y173800D01*
X111200D01*
Y174800D01*
X110200Y175800D01*
X111200Y176800D01*
Y177800D01*
X110200D01*
X109200Y176800D01*
X108200Y177800D01*
X107200D01*
Y176800D01*
X108200Y175800D01*
X107200Y174800D01*
Y173800D01*
X106296Y179404D02*
X107296D01*
X108296Y180404D01*
X109296Y179404D01*
X110296D01*
Y180404D01*
X109296Y181404D01*
X110296Y182404D01*
Y183404D01*
X109296D01*
X108296Y182404D01*
X107296Y183404D01*
X106296D01*
Y182404D01*
X107296Y181404D01*
X106296Y180404D01*
Y179404D01*
X122800Y175600D02*
X123800D01*
X124800Y176600D01*
X125800Y175600D01*
X126800D01*
Y176600D01*
X125800Y177600D01*
X126800Y178600D01*
Y179600D01*
X125800D01*
X124800Y178600D01*
X123800Y179600D01*
X122800D01*
Y178600D01*
X123800Y177600D01*
X122800Y176600D01*
Y175600D01*
X111000Y175700D02*
X112000D01*
X113000Y176700D01*
X114000Y175700D01*
X115000D01*
Y176700D01*
X114000Y177700D01*
X115000Y178700D01*
Y179700D01*
X114000D01*
X113000Y178700D01*
X112000Y179700D01*
X111000D01*
Y178700D01*
X112000Y177700D01*
X111000Y176700D01*
Y175700D01*
X144600Y158700D02*
X145600D01*
X146600Y159700D01*
X147600Y158700D01*
X148600D01*
Y159700D01*
X147600Y160700D01*
X148600Y161700D01*
Y162700D01*
X147600D01*
X146600Y161700D01*
X145600Y162700D01*
X144600D01*
Y161700D01*
X145600Y160700D01*
X144600Y159700D01*
Y158700D01*
X150200D02*
X151200D01*
X152200Y159700D01*
X153200Y158700D01*
X154200D01*
Y159700D01*
X153200Y160700D01*
X154200Y161700D01*
Y162700D01*
X153200D01*
X152200Y161700D01*
X151200Y162700D01*
X150200D01*
Y161700D01*
X151200Y160700D01*
X150200Y159700D01*
Y158700D01*
X147400D02*
X148400D01*
X149400Y159700D01*
X150400Y158700D01*
X151400D01*
Y159700D01*
X150400Y160700D01*
X151400Y161700D01*
Y162700D01*
X150400D01*
X149400Y161700D01*
X148400Y162700D01*
X147400D01*
Y161700D01*
X148400Y160700D01*
X147400Y159700D01*
Y158700D01*
X155351Y176165D02*
X156351D01*
X157351Y177165D01*
X158351Y176165D01*
X159351D01*
Y177165D01*
X158351Y178165D01*
X159351Y179165D01*
Y180165D01*
X158351D01*
X157351Y179165D01*
X156351Y180165D01*
X155351D01*
Y179165D01*
X156351Y178165D01*
X155351Y177165D01*
Y176165D01*
X178200Y170000D02*
X179200D01*
X180200Y171000D01*
X181200Y170000D01*
X182200D01*
Y171000D01*
X181200Y172000D01*
X182200Y173000D01*
Y174000D01*
X181200D01*
X180200Y173000D01*
X179200Y174000D01*
X178200D01*
Y173000D01*
X179200Y172000D01*
X178200Y171000D01*
Y170000D01*
X155351Y172365D02*
X156351D01*
X157351Y173365D01*
X158351Y172365D01*
X159351D01*
Y173365D01*
X158351Y174365D01*
X159351Y175365D01*
Y176365D01*
X158351D01*
X157351Y175365D01*
X156351Y176365D01*
X155351D01*
Y175365D01*
X156351Y174365D01*
X155351Y173365D01*
Y172365D01*
X184800Y120188D02*
X185800D01*
X186800Y121188D01*
X187800Y120188D01*
X188800D01*
Y121188D01*
X187800Y122188D01*
X188800Y123188D01*
Y124188D01*
X187800D01*
X186800Y123188D01*
X185800Y124188D01*
X184800D01*
Y123188D01*
X185800Y122188D01*
X184800Y121188D01*
Y120188D01*
X214165Y111247D02*
X215165D01*
X216165Y112247D01*
X217165Y111247D01*
X218165D01*
Y112247D01*
X217165Y113247D01*
X218165Y114247D01*
Y115247D01*
X217165D01*
X216165Y114247D01*
X215165Y115247D01*
X214165D01*
Y114247D01*
X215165Y113247D01*
X214165Y112247D01*
Y111247D01*
X192541Y115753D02*
X193541D01*
X194541Y116753D01*
X195541Y115753D01*
X196541D01*
Y116753D01*
X195541Y117753D01*
X196541Y118753D01*
Y119753D01*
X195541D01*
X194541Y118753D01*
X193541Y119753D01*
X192541D01*
Y118753D01*
X193541Y117753D01*
X192541Y116753D01*
Y115753D01*
X214400Y132212D02*
X215400D01*
X216400Y133212D01*
X217400Y132212D01*
X218400D01*
Y133212D01*
X217400Y134212D01*
X218400Y135212D01*
Y136212D01*
X217400D01*
X216400Y135212D01*
X215400Y136212D01*
X214400D01*
Y135212D01*
X215400Y134212D01*
X214400Y133212D01*
Y132212D01*
X214300Y121700D02*
X215300D01*
X216300Y122700D01*
X217300Y121700D01*
X218300D01*
Y122700D01*
X217300Y123700D01*
X218300Y124700D01*
Y125700D01*
X217300D01*
X216300Y124700D01*
X215300Y125700D01*
X214300D01*
Y124700D01*
X215300Y123700D01*
X214300Y122700D01*
Y121700D01*
X214400Y126700D02*
X215400D01*
X216400Y127700D01*
X217400Y126700D01*
X218400D01*
Y127700D01*
X217400Y128700D01*
X218400Y129700D01*
Y130700D01*
X217400D01*
X216400Y129700D01*
X215400Y130700D01*
X214400D01*
Y129700D01*
X215400Y128700D01*
X214400Y127700D01*
Y126700D01*
X196100Y130200D02*
X197100D01*
X198100Y131200D01*
X199100Y130200D01*
X200100D01*
Y131200D01*
X199100Y132200D01*
X200100Y133200D01*
Y134200D01*
X199100D01*
X198100Y133200D01*
X197100Y134200D01*
X196100D01*
Y133200D01*
X197100Y132200D01*
X196100Y131200D01*
Y130200D01*
X205264Y135000D02*
X206264D01*
X207264Y136000D01*
X208264Y135000D01*
X209264D01*
Y136000D01*
X208264Y137000D01*
X209264Y138000D01*
Y139000D01*
X208264D01*
X207264Y138000D01*
X206264Y139000D01*
X205264D01*
Y138000D01*
X206264Y137000D01*
X205264Y136000D01*
Y135000D01*
X194300Y137400D02*
X195300D01*
X196300Y138400D01*
X197300Y137400D01*
X198300D01*
Y138400D01*
X197300Y139400D01*
X198300Y140400D01*
Y141400D01*
X197300D01*
X196300Y140400D01*
X195300Y141400D01*
X194300D01*
Y140400D01*
X195300Y139400D01*
X194300Y138400D01*
Y137400D01*
X186400Y140800D02*
X187400D01*
X188400Y141800D01*
X189400Y140800D01*
X190400D01*
Y141800D01*
X189400Y142800D01*
X190400Y143800D01*
Y144800D01*
X189400D01*
X188400Y143800D01*
X187400Y144800D01*
X186400D01*
Y143800D01*
X187400Y142800D01*
X186400Y141800D01*
Y140800D01*
X214300Y116188D02*
X215300D01*
X216300Y117188D01*
X217300Y116188D01*
X218300D01*
Y117188D01*
X217300Y118188D01*
X218300Y119188D01*
Y120188D01*
X217300D01*
X216300Y119188D01*
X215300Y120188D01*
X214300D01*
Y119188D01*
X215300Y118188D01*
X214300Y117188D01*
Y116188D01*
X206128Y146457D02*
X207127D01*
X208127Y147457D01*
X209127Y146457D01*
X210127D01*
Y147457D01*
X209127Y148457D01*
X210127Y149457D01*
Y150457D01*
X209127D01*
X208127Y149457D01*
X207127Y150457D01*
X206128D01*
Y149457D01*
X207127Y148457D01*
X206128Y147457D01*
Y146457D01*
X194800Y159000D02*
X195800D01*
X196800Y160000D01*
X197800Y159000D01*
X198800D01*
Y160000D01*
X197800Y161000D01*
X198800Y162000D01*
Y163000D01*
X197800D01*
X196800Y162000D01*
X195800Y163000D01*
X194800D01*
Y162000D01*
X195800Y161000D01*
X194800Y160000D01*
Y159000D01*
X185600Y154300D02*
X186600D01*
X187600Y155300D01*
X188600Y154300D01*
X189600D01*
Y155300D01*
X188600Y156300D01*
X189600Y157300D01*
Y158300D01*
X188600D01*
X187600Y157300D01*
X186600Y158300D01*
X185600D01*
Y157300D01*
X186600Y156300D01*
X185600Y155300D01*
Y154300D01*
X208900D02*
X209900D01*
X210900Y155300D01*
X211900Y154300D01*
X212900D01*
Y155300D01*
X211900Y156300D01*
X212900Y157300D01*
Y158300D01*
X211900D01*
X210900Y157300D01*
X209900Y158300D01*
X208900D01*
Y157300D01*
X209900Y156300D01*
X208900Y155300D01*
Y154300D01*
X199388Y159000D02*
X200388D01*
X201388Y160000D01*
X202388Y159000D01*
X203388D01*
Y160000D01*
X202388Y161000D01*
X203388Y162000D01*
Y163000D01*
X202388D01*
X201388Y162000D01*
X200388Y163000D01*
X199388D01*
Y162000D01*
X200388Y161000D01*
X199388Y160000D01*
Y159000D01*
X185637Y148831D02*
X186637D01*
X187637Y149831D01*
X188637Y148831D01*
X189637D01*
Y149831D01*
X188637Y150831D01*
X189637Y151831D01*
Y152831D01*
X188637D01*
X187637Y151831D01*
X186637Y152831D01*
X185637D01*
Y151831D01*
X186637Y150831D01*
X185637Y149831D01*
Y148831D01*
X206700Y177900D02*
X207700D01*
X208700Y178900D01*
X209700Y177900D01*
X210700D01*
Y178900D01*
X209700Y179900D01*
X210700Y180900D01*
Y181900D01*
X209700D01*
X208700Y180900D01*
X207700Y181900D01*
X206700D01*
Y180900D01*
X207700Y179900D01*
X206700Y178900D01*
Y177900D01*
X201200Y177506D02*
X202200D01*
X203200Y178506D01*
X204200Y177506D01*
X205200D01*
Y178506D01*
X204200Y179506D01*
X205200Y180506D01*
Y181506D01*
X204200D01*
X203200Y180506D01*
X202200Y181506D01*
X201200D01*
Y180506D01*
X202200Y179506D01*
X201200Y178506D01*
Y177506D01*
X84926Y128586D02*
X85926D01*
X86926Y129586D01*
X87926Y128586D01*
X88926D01*
Y129586D01*
X87926Y130586D01*
X88926Y131586D01*
Y132586D01*
X87926D01*
X86926Y131586D01*
X85926Y132586D01*
X84926D01*
Y131586D01*
X85926Y130586D01*
X84926Y129586D01*
Y128586D01*
X84922Y66222D02*
X85922D01*
X86922Y67222D01*
X87922Y66222D01*
X88922D01*
Y67222D01*
X87922Y68222D01*
X88922Y69222D01*
Y70222D01*
X87922D01*
X86922Y69222D01*
X85922Y70222D01*
X84922D01*
Y69222D01*
X85922Y68222D01*
X84922Y67222D01*
Y66222D01*
X84848Y71808D02*
X85848D01*
X86848Y72808D01*
X87848Y71808D01*
X88848D01*
Y72808D01*
X87848Y73808D01*
X88848Y74808D01*
Y75808D01*
X87848D01*
X86848Y74808D01*
X85848Y75808D01*
X84848D01*
Y74808D01*
X85848Y73808D01*
X84848Y72808D01*
Y71808D01*
X85000Y123000D02*
X86000D01*
X87000Y124000D01*
X88000Y123000D01*
X89000D01*
Y124000D01*
X88000Y125000D01*
X89000Y126000D01*
Y127000D01*
X88000D01*
X87000Y126000D01*
X86000Y127000D01*
X85000D01*
Y126000D01*
X86000Y125000D01*
X85000Y124000D01*
Y123000D01*
X150200Y155900D02*
X151200D01*
X152200Y156900D01*
X153200Y155900D01*
X154200D01*
Y156900D01*
X153200Y157900D01*
X154200Y158900D01*
Y159900D01*
X153200D01*
X152200Y158900D01*
X151200Y159900D01*
X150200D01*
Y158900D01*
X151200Y157900D01*
X150200Y156900D01*
Y155900D01*
X147400D02*
X148400D01*
X149400Y156900D01*
X150400Y155900D01*
X151400D01*
Y156900D01*
X150400Y157900D01*
X151400Y158900D01*
Y159900D01*
X150400D01*
X149400Y158900D01*
X148400Y159900D01*
X147400D01*
Y158900D01*
X148400Y157900D01*
X147400Y156900D01*
Y155900D01*
X153200Y140300D02*
X154200D01*
X155200Y141300D01*
X156200Y140300D01*
X157200D01*
Y141300D01*
X156200Y142300D01*
X157200Y143300D01*
Y144300D01*
X156200D01*
X155200Y143300D01*
X154200Y144300D01*
X153200D01*
Y143300D01*
X154200Y142300D01*
X153200Y141300D01*
Y140300D01*
X150400D02*
X151400D01*
X152400Y141300D01*
X153400Y140300D01*
X154400D01*
Y141300D01*
X153400Y142300D01*
X154400Y143300D01*
Y144300D01*
X153400D01*
X152400Y143300D01*
X151400Y144300D01*
X150400D01*
Y143300D01*
X151400Y142300D01*
X150400Y141300D01*
Y140300D01*
X147600D02*
X148600D01*
X149600Y141300D01*
X150600Y140300D01*
X151600D01*
Y141300D01*
X150600Y142300D01*
X151600Y143300D01*
Y144300D01*
X150600D01*
X149600Y143300D01*
X148600Y144300D01*
X147600D01*
Y143300D01*
X148600Y142300D01*
X147600Y141300D01*
Y140300D01*
Y143100D02*
X148600D01*
X149600Y144100D01*
X150600Y143100D01*
X151600D01*
Y144100D01*
X150600Y145100D01*
X151600Y146100D01*
Y147100D01*
X150600D01*
X149600Y146100D01*
X148600Y147100D01*
X147600D01*
Y146100D01*
X148600Y145100D01*
X147600Y144100D01*
Y143100D01*
X153200D02*
X154200D01*
X155200Y144100D01*
X156200Y143100D01*
X157200D01*
Y144100D01*
X156200Y145100D01*
X157200Y146100D01*
Y147100D01*
X156200D01*
X155200Y146100D01*
X154200Y147100D01*
X153200D01*
Y146100D01*
X154200Y145100D01*
X153200Y144100D01*
Y143100D01*
X150400D02*
X151400D01*
X152400Y144100D01*
X153400Y143100D01*
X154400D01*
Y144100D01*
X153400Y145100D01*
X154400Y146100D01*
Y147100D01*
X153400D01*
X152400Y146100D01*
X151400Y147100D01*
X150400D01*
Y146100D01*
X151400Y145100D01*
X150400Y144100D01*
Y143100D01*
X144600Y155900D02*
X145600D01*
X146600Y156900D01*
X147600Y155900D01*
X148600D01*
Y156900D01*
X147600Y157900D01*
X148600Y158900D01*
Y159900D01*
X147600D01*
X146600Y158900D01*
X145600Y159900D01*
X144600D01*
Y158900D01*
X145600Y157900D01*
X144600Y156900D01*
Y155900D01*
X88300Y144200D02*
X89300D01*
X90300Y145200D01*
X91300Y144200D01*
X92300D01*
Y145200D01*
X91300Y146200D01*
X92300Y147200D01*
Y148200D01*
X91300D01*
X90300Y147200D01*
X89300Y148200D01*
X88300D01*
Y147200D01*
X89300Y146200D01*
X88300Y145200D01*
Y144200D01*
X74500Y145000D02*
X75500D01*
X76500Y146000D01*
X77500Y145000D01*
X78500D01*
Y146000D01*
X77500Y147000D01*
X78500Y148000D01*
Y149000D01*
X77500D01*
X76500Y148000D01*
X75500Y149000D01*
X74500D01*
Y148000D01*
X75500Y147000D01*
X74500Y146000D01*
Y145000D01*
X97912Y145400D02*
X98912D01*
X99912Y146400D01*
X100912Y145400D01*
X101912D01*
Y146400D01*
X100912Y147400D01*
X101912Y148400D01*
Y149400D01*
X100912D01*
X99912Y148400D01*
X98912Y149400D01*
X97912D01*
Y148400D01*
X98912Y147400D01*
X97912Y146400D01*
Y145400D01*
X88200Y147400D02*
X89200D01*
X90200Y148400D01*
X91200Y147400D01*
X92200D01*
Y148400D01*
X91200Y149400D01*
X92200Y150400D01*
Y151400D01*
X91200D01*
X90200Y150400D01*
X89200Y151400D01*
X88200D01*
Y150400D01*
X89200Y149400D01*
X88200Y148400D01*
Y147400D01*
X74500Y150000D02*
X75500D01*
X76500Y151000D01*
X77500Y150000D01*
X78500D01*
Y151000D01*
X77500Y152000D01*
X78500Y153000D01*
Y154000D01*
X77500D01*
X76500Y153000D01*
X75500Y154000D01*
X74500D01*
Y153000D01*
X75500Y152000D01*
X74500Y151000D01*
Y150000D01*
X97500Y152500D02*
X98500D01*
X99500Y153500D01*
X100500Y152500D01*
X101500D01*
Y153500D01*
X100500Y154500D01*
X101500Y155500D01*
Y156500D01*
X100500D01*
X99500Y155500D01*
X98500Y156500D01*
X97500D01*
Y155500D01*
X98500Y154500D01*
X97500Y153500D01*
Y152500D01*
X76000Y153500D02*
X77000D01*
X78000Y154500D01*
X79000Y153500D01*
X80000D01*
Y154500D01*
X79000Y155500D01*
X80000Y156500D01*
Y157500D01*
X79000D01*
X78000Y156500D01*
X77000Y157500D01*
X76000D01*
Y156500D01*
X77000Y155500D01*
X76000Y154500D01*
Y153500D01*
X97500Y156500D02*
X98500D01*
X99500Y157500D01*
X100500Y156500D01*
X101500D01*
Y157500D01*
X100500Y158500D01*
X101500Y159500D01*
Y160500D01*
X100500D01*
X99500Y159500D01*
X98500Y160500D01*
X97500D01*
Y159500D01*
X98500Y158500D01*
X97500Y157500D01*
Y156500D01*
X79000D02*
X80000D01*
X81000Y157500D01*
X82000Y156500D01*
X83000D01*
Y157500D01*
X82000Y158500D01*
X83000Y159500D01*
Y160500D01*
X82000D01*
X81000Y159500D01*
X80000Y160500D01*
X79000D01*
Y159500D01*
X80000Y158500D01*
X79000Y157500D01*
Y156500D01*
X97900Y170500D02*
X98900D01*
X99900Y171500D01*
X100900Y170500D01*
X101900D01*
Y171500D01*
X100900Y172500D01*
X101900Y173500D01*
Y174500D01*
X100900D01*
X99900Y173500D01*
X98900Y174500D01*
X97900D01*
Y173500D01*
X98900Y172500D01*
X97900Y171500D01*
Y170500D01*
X85500Y137500D02*
X86500D01*
X87500Y138500D01*
X88500Y137500D01*
X89500D01*
Y138500D01*
X88500Y139500D01*
X89500Y140500D01*
Y141500D01*
X88500D01*
X87500Y140500D01*
X86500Y141500D01*
X85500D01*
Y140500D01*
X86500Y139500D01*
X85500Y138500D01*
Y137500D01*
X115500Y138500D02*
X116500D01*
X117500Y139500D01*
X118500Y138500D01*
X119500D01*
Y139500D01*
X118500Y140500D01*
X119500Y141500D01*
Y142500D01*
X118500D01*
X117500Y141500D01*
X116500Y142500D01*
X115500D01*
Y141500D01*
X116500Y140500D01*
X115500Y139500D01*
Y138500D01*
X90500Y137500D02*
X91500D01*
X92500Y138500D01*
X93500Y137500D01*
X94500D01*
Y138500D01*
X93500Y139500D01*
X94500Y140500D01*
Y141500D01*
X93500D01*
X92500Y140500D01*
X91500Y141500D01*
X90500D01*
Y140500D01*
X91500Y139500D01*
X90500Y138500D01*
Y137500D01*
X95500D02*
X96500D01*
X97500Y138500D01*
X98500Y137500D01*
X99500D01*
Y138500D01*
X98500Y139500D01*
X99500Y140500D01*
Y141500D01*
X98500D01*
X97500Y140500D01*
X96500Y141500D01*
X95500D01*
Y140500D01*
X96500Y139500D01*
X95500Y138500D01*
Y137500D01*
X100500D02*
X101500D01*
X102500Y138500D01*
X103500Y137500D01*
X104500D01*
Y138500D01*
X103500Y139500D01*
X104500Y140500D01*
Y141500D01*
X103500D01*
X102500Y140500D01*
X101500Y141500D01*
X100500D01*
Y140500D01*
X101500Y139500D01*
X100500Y138500D01*
Y137500D01*
X120500Y138500D02*
X121500D01*
X122500Y139500D01*
X123500Y138500D01*
X124500D01*
Y139500D01*
X123500Y140500D01*
X124500Y141500D01*
Y142500D01*
X123500D01*
X122500Y141500D01*
X121500Y142500D01*
X120500D01*
Y141500D01*
X121500Y140500D01*
X120500Y139500D01*
Y138500D01*
X110500D02*
X111500D01*
X112500Y139500D01*
X113500Y138500D01*
X114500D01*
Y139500D01*
X113500Y140500D01*
X114500Y141500D01*
Y142500D01*
X113500D01*
X112500Y141500D01*
X111500Y142500D01*
X110500D01*
Y141500D01*
X111500Y140500D01*
X110500Y139500D01*
Y138500D01*
X105500D02*
X106500D01*
X107500Y139500D01*
X108500Y138500D01*
X109500D01*
Y139500D01*
X108500Y140500D01*
X109500Y141500D01*
Y142500D01*
X108500D01*
X107500Y141500D01*
X106500Y142500D01*
X105500D01*
Y141500D01*
X106500Y140500D01*
X105500Y139500D01*
Y138500D01*
X181000Y292400D02*
X182000D01*
X183000Y293400D01*
X184000Y292400D01*
X185000D01*
Y293400D01*
X184000Y294400D01*
X185000Y295400D01*
Y296400D01*
X184000D01*
X183000Y295400D01*
X182000Y296400D01*
X181000D01*
Y295400D01*
X182000Y294400D01*
X181000Y293400D01*
Y292400D01*
Y289600D02*
X182000D01*
X183000Y290600D01*
X184000Y289600D01*
X185000D01*
Y290600D01*
X184000Y291600D01*
X185000Y292600D01*
Y293600D01*
X184000D01*
X183000Y292600D01*
X182000Y293600D01*
X181000D01*
Y292600D01*
X182000Y291600D01*
X181000Y290600D01*
Y289600D01*
X182100Y307800D02*
X183100D01*
X184100Y308800D01*
X185100Y307800D01*
X186100D01*
Y308800D01*
X185100Y309800D01*
X186100Y310800D01*
Y311800D01*
X185100D01*
X184100Y310800D01*
X183100Y311800D01*
X182100D01*
Y310800D01*
X183100Y309800D01*
X182100Y308800D01*
Y307800D01*
Y302200D02*
X183100D01*
X184100Y303200D01*
X185100Y302200D01*
X186100D01*
Y303200D01*
X185100Y304200D01*
X186100Y305200D01*
Y306200D01*
X185100D01*
X184100Y305200D01*
X183100Y306200D01*
X182100D01*
Y305200D01*
X183100Y304200D01*
X182100Y303200D01*
Y302200D01*
Y305000D02*
X183100D01*
X184100Y306000D01*
X185100Y305000D01*
X186100D01*
Y306000D01*
X185100Y307000D01*
X186100Y308000D01*
Y309000D01*
X185100D01*
X184100Y308000D01*
X183100Y309000D01*
X182100D01*
Y308000D01*
X183100Y307000D01*
X182100Y306000D01*
Y305000D01*
Y310600D02*
X183100D01*
X184100Y311600D01*
X185100Y310600D01*
X186100D01*
Y311600D01*
X185100Y312600D01*
X186100Y313600D01*
Y314600D01*
X185100D01*
X184100Y313600D01*
X183100Y314600D01*
X182100D01*
Y313600D01*
X183100Y312600D01*
X182100Y311600D01*
Y310600D01*
Y313400D02*
X183100D01*
X184100Y314400D01*
X185100Y313400D01*
X186100D01*
Y314400D01*
X185100Y315400D01*
X186100Y316400D01*
Y317400D01*
X185100D01*
X184100Y316400D01*
X183100Y317400D01*
X182100D01*
Y316400D01*
X183100Y315400D01*
X182100Y314400D01*
Y313400D01*
X183800Y289600D02*
X184800D01*
X185800Y290600D01*
X186800Y289600D01*
X187800D01*
Y290600D01*
X186800Y291600D01*
X187800Y292600D01*
Y293600D01*
X186800D01*
X185800Y292600D01*
X184800Y293600D01*
X183800D01*
Y292600D01*
X184800Y291600D01*
X183800Y290600D01*
Y289600D01*
Y292400D02*
X184800D01*
X185800Y293400D01*
X186800Y292400D01*
X187800D01*
Y293400D01*
X186800Y294400D01*
X187800Y295400D01*
Y296400D01*
X186800D01*
X185800Y295400D01*
X184800Y296400D01*
X183800D01*
Y295400D01*
X184800Y294400D01*
X183800Y293400D01*
Y292400D01*
X186600Y289600D02*
X187600D01*
X188600Y290600D01*
X189600Y289600D01*
X190600D01*
Y290600D01*
X189600Y291600D01*
X190600Y292600D01*
Y293600D01*
X189600D01*
X188600Y292600D01*
X187600Y293600D01*
X186600D01*
Y292600D01*
X187600Y291600D01*
X186600Y290600D01*
Y289600D01*
Y292400D02*
X187600D01*
X188600Y293400D01*
X189600Y292400D01*
X190600D01*
Y293400D01*
X189600Y294400D01*
X190600Y295400D01*
Y296400D01*
X189600D01*
X188600Y295400D01*
X187600Y296400D01*
X186600D01*
Y295400D01*
X187600Y294400D01*
X186600Y293400D01*
Y292400D01*
X75725Y276532D02*
X76725D01*
X77725Y277532D01*
X78725Y276532D01*
X79725D01*
Y277532D01*
X78725Y278532D01*
X79725Y279532D01*
Y280532D01*
X78725D01*
X77725Y279532D01*
X76725Y280532D01*
X75725D01*
Y279532D01*
X76725Y278532D01*
X75725Y277532D01*
Y276532D01*
X44225D02*
X45225D01*
X46225Y277532D01*
X47225Y276532D01*
X48225D01*
Y277532D01*
X47225Y278532D01*
X48225Y279532D01*
Y280532D01*
X47225D01*
X46225Y279532D01*
X45225Y280532D01*
X44225D01*
Y279532D01*
X45225Y278532D01*
X44225Y277532D01*
Y276532D01*
X75400Y271100D02*
X76400D01*
X77400Y272100D01*
X78400Y271100D01*
X79400D01*
Y272100D01*
X78400Y273100D01*
X79400Y274100D01*
Y275100D01*
X78400D01*
X77400Y274100D01*
X76400Y275100D01*
X75400D01*
Y274100D01*
X76400Y273100D01*
X75400Y272100D01*
Y271100D01*
X72800Y258400D02*
X73800D01*
X74800Y259400D01*
X75800Y258400D01*
X76800D01*
Y259400D01*
X75800Y260400D01*
X76800Y261400D01*
Y262400D01*
X75800D01*
X74800Y261400D01*
X73800Y262400D01*
X72800D01*
Y261400D01*
X73800Y260400D01*
X72800Y259400D01*
Y258400D01*
X43900Y271100D02*
X44900D01*
X45900Y272100D01*
X46900Y271100D01*
X47900D01*
Y272100D01*
X46900Y273100D01*
X47900Y274100D01*
Y275100D01*
X46900D01*
X45900Y274100D01*
X44900Y275100D01*
X43900D01*
Y274100D01*
X44900Y273100D01*
X43900Y272100D01*
Y271100D01*
X60086Y276532D02*
X61086D01*
X62086Y277532D01*
X63086Y276532D01*
X64086D01*
Y277532D01*
X63086Y278532D01*
X64086Y279532D01*
Y280532D01*
X63086D01*
X62086Y279532D01*
X61086Y280532D01*
X60086D01*
Y279532D01*
X61086Y278532D01*
X60086Y277532D01*
Y276532D01*
X120500Y253500D02*
X121500D01*
X122500Y254500D01*
X123500Y253500D01*
X124500D01*
Y254500D01*
X123500Y255500D01*
X124500Y256500D01*
Y257500D01*
X123500D01*
X122500Y256500D01*
X121500Y257500D01*
X120500D01*
Y256500D01*
X121500Y255500D01*
X120500Y254500D01*
Y253500D01*
X123518Y253287D02*
X124518D01*
X125517Y254287D01*
X126517Y253287D01*
X127517D01*
Y254287D01*
X126517Y255287D01*
X127517Y256287D01*
Y257287D01*
X126517D01*
X125517Y256287D01*
X124518Y257287D01*
X123518D01*
Y256287D01*
X124518Y255287D01*
X123518Y254287D01*
Y253287D01*
X201000Y286000D02*
X202000D01*
X203000Y287000D01*
X204000Y286000D01*
X205000D01*
Y287000D01*
X204000Y288000D01*
X205000Y289000D01*
Y290000D01*
X204000D01*
X203000Y289000D01*
X202000Y290000D01*
X201000D01*
Y289000D01*
X202000Y288000D01*
X201000Y287000D01*
Y286000D01*
X105900Y319500D02*
X106900D01*
X107900Y320500D01*
X108900Y319500D01*
X109900D01*
Y320500D01*
X108900Y321500D01*
X109900Y322500D01*
Y323500D01*
X108900D01*
X107900Y322500D01*
X106900Y323500D01*
X105900D01*
Y322500D01*
X106900Y321500D01*
X105900Y320500D01*
Y319500D01*
X229427Y311027D02*
X230427D01*
X231427Y312027D01*
X232427Y311027D01*
X233427D01*
Y312027D01*
X232427Y313027D01*
X233427Y314027D01*
Y315027D01*
X232427D01*
X231427Y314027D01*
X230427Y315027D01*
X229427D01*
Y314027D01*
X230427Y313027D01*
X229427Y312027D01*
Y311027D01*
X251966Y264857D02*
X252966D01*
X253966Y265857D01*
X254966Y264857D01*
X255966D01*
Y265857D01*
X254966Y266857D01*
X255966Y267857D01*
Y268857D01*
X254966D01*
X253966Y267857D01*
X252966Y268857D01*
X251966D01*
Y267857D01*
X252966Y266857D01*
X251966Y265857D01*
Y264857D01*
X249000Y278000D02*
X250000D01*
X251000Y279000D01*
X252000Y278000D01*
X253000D01*
Y279000D01*
X252000Y280000D01*
X253000Y281000D01*
Y282000D01*
X252000D01*
X251000Y281000D01*
X250000Y282000D01*
X249000D01*
Y281000D01*
X250000Y280000D01*
X249000Y279000D01*
Y278000D01*
X28979Y271032D02*
X29979D01*
X30979Y272032D01*
X31979Y271032D01*
X32979D01*
Y272032D01*
X31979Y273032D01*
X32979Y274032D01*
Y275032D01*
X31979D01*
X30979Y274032D01*
X29979Y275032D01*
X28979D01*
Y274032D01*
X29979Y273032D01*
X28979Y272032D01*
Y271032D01*
X34600Y262900D02*
X35600D01*
X36600Y263900D01*
X37600Y262900D01*
X38600D01*
Y263900D01*
X37600Y264900D01*
X38600Y265900D01*
Y266900D01*
X37600D01*
X36600Y265900D01*
X35600Y266900D01*
X34600D01*
Y265900D01*
X35600Y264900D01*
X34600Y263900D01*
Y262900D01*
X56900Y236500D02*
X57900D01*
X58900Y237500D01*
X59900Y236500D01*
X60900D01*
Y237500D01*
X59900Y238500D01*
X60900Y239500D01*
Y240500D01*
X59900D01*
X58900Y239500D01*
X57900Y240500D01*
X56900D01*
Y239500D01*
X57900Y238500D01*
X56900Y237500D01*
Y236500D01*
X59900Y246100D02*
X60900D01*
X61900Y247100D01*
X62900Y246100D01*
X63900D01*
Y247100D01*
X62900Y248100D01*
X63900Y249100D01*
Y250100D01*
X62900D01*
X61900Y249100D01*
X60900Y250100D01*
X59900D01*
Y249100D01*
X60900Y248100D01*
X59900Y247100D01*
Y246100D01*
X36700Y241500D02*
X37700D01*
X38700Y242500D01*
X39700Y241500D01*
X40700D01*
Y242500D01*
X39700Y243500D01*
X40700Y244500D01*
Y245500D01*
X39700D01*
X38700Y244500D01*
X37700Y245500D01*
X36700D01*
Y244500D01*
X37700Y243500D01*
X36700Y242500D01*
Y241500D01*
X40200Y255000D02*
X41200D01*
X42200Y256000D01*
X43200Y255000D01*
X44200D01*
Y256000D01*
X43200Y257000D01*
X44200Y258000D01*
Y259000D01*
X43200D01*
X42200Y258000D01*
X41200Y259000D01*
X40200D01*
Y258000D01*
X41200Y257000D01*
X40200Y256000D01*
Y255000D01*
X60600Y219485D02*
X61600D01*
X62600Y220485D01*
X63600Y219485D01*
X64600D01*
Y220485D01*
X63600Y221485D01*
X64600Y222485D01*
Y223485D01*
X63600D01*
X62600Y222485D01*
X61600Y223485D01*
X60600D01*
Y222485D01*
X61600Y221485D01*
X60600Y220485D01*
Y219485D01*
X60454Y199565D02*
X61454D01*
X62454Y200565D01*
X63455Y199565D01*
X64455D01*
Y200565D01*
X63455Y201565D01*
X64455Y202565D01*
Y203565D01*
X63455D01*
X62454Y202565D01*
X61454Y203565D01*
X60454D01*
Y202565D01*
X61454Y201565D01*
X60454Y200565D01*
Y199565D01*
X74100Y191700D02*
X75100D01*
X76100Y192700D01*
X77100Y191700D01*
X78100D01*
Y192700D01*
X77100Y193700D01*
X78100Y194700D01*
Y195700D01*
X77100D01*
X76100Y194700D01*
X75100Y195700D01*
X74100D01*
Y194700D01*
X75100Y193700D01*
X74100Y192700D01*
Y191700D01*
X32000Y190500D02*
X33000D01*
X34000Y191500D01*
X35000Y190500D01*
X36000D01*
Y191500D01*
X35000Y192500D01*
X36000Y193500D01*
Y194500D01*
X35000D01*
X34000Y193500D01*
X33000Y194500D01*
X32000D01*
Y193500D01*
X33000Y192500D01*
X32000Y191500D01*
Y190500D01*
X41000D02*
X42000D01*
X43000Y191500D01*
X44000Y190500D01*
X45000D01*
Y191500D01*
X44000Y192500D01*
X45000Y193500D01*
Y194500D01*
X44000D01*
X43000Y193500D01*
X42000Y194500D01*
X41000D01*
Y193500D01*
X42000Y192500D01*
X41000Y191500D01*
Y190500D01*
X74200Y196800D02*
X75200D01*
X76200Y197800D01*
X77200Y196800D01*
X78200D01*
Y197800D01*
X77200Y198800D01*
X78200Y199800D01*
Y200800D01*
X77200D01*
X76200Y199800D01*
X75200Y200800D01*
X74200D01*
Y199800D01*
X75200Y198800D01*
X74200Y197800D01*
Y196800D01*
X60479Y271032D02*
X61479D01*
X62479Y272032D01*
X63479Y271032D01*
X64479D01*
Y272032D01*
X63479Y273032D01*
X64479Y274032D01*
Y275032D01*
X63479D01*
X62479Y274032D01*
X61479Y275032D01*
X60479D01*
Y274032D01*
X61479Y273032D01*
X60479Y272032D01*
Y271032D01*
X63000Y254400D02*
X64000D01*
X65000Y255400D01*
X66000Y254400D01*
X67000D01*
Y255400D01*
X66000Y256400D01*
X67000Y257400D01*
Y258400D01*
X66000D01*
X65000Y257400D01*
X64000Y258400D01*
X63000D01*
Y257400D01*
X64000Y256400D01*
X63000Y255400D01*
Y254400D01*
X74100Y263200D02*
X75100D01*
X76100Y264200D01*
X77100Y263200D01*
X78100D01*
Y264200D01*
X77100Y265200D01*
X78100Y266200D01*
Y267200D01*
X77100D01*
X76100Y266200D01*
X75100Y267200D01*
X74100D01*
Y266200D01*
X75100Y265200D01*
X74100Y264200D01*
Y263200D01*
X101664Y253400D02*
X102664D01*
X103664Y254400D01*
X104664Y253400D01*
X105664D01*
Y254400D01*
X104664Y255400D01*
X105664Y256400D01*
Y257400D01*
X104664D01*
X103664Y256400D01*
X102664Y257400D01*
X101664D01*
Y256400D01*
X102664Y255400D01*
X101664Y254400D01*
Y253400D01*
X75500Y242000D02*
X76500D01*
X77500Y243000D01*
X78500Y242000D01*
X79500D01*
Y243000D01*
X78500Y244000D01*
X79500Y245000D01*
Y246000D01*
X78500D01*
X77500Y245000D01*
X76500Y246000D01*
X75500D01*
Y245000D01*
X76500Y244000D01*
X75500Y243000D01*
Y242000D01*
X82800Y237900D02*
X83800D01*
X84800Y238900D01*
X85800Y237900D01*
X86800D01*
Y238900D01*
X85800Y239900D01*
X86800Y240900D01*
Y241900D01*
X85800D01*
X84800Y240900D01*
X83800Y241900D01*
X82800D01*
Y240900D01*
X83800Y239900D01*
X82800Y238900D01*
Y237900D01*
X28586Y276532D02*
X29586D01*
X30586Y277532D01*
X31586Y276532D01*
X32586D01*
Y277532D01*
X31586Y278532D01*
X32586Y279532D01*
Y280532D01*
X31586D01*
X30586Y279532D01*
X29586Y280532D01*
X28586D01*
Y279532D01*
X29586Y278532D01*
X28586Y277532D01*
Y276532D01*
X179300Y305000D02*
X180300D01*
X181300Y306000D01*
X182300Y305000D01*
X183300D01*
Y306000D01*
X182300Y307000D01*
X183300Y308000D01*
Y309000D01*
X182300D01*
X181300Y308000D01*
X180300Y309000D01*
X179300D01*
Y308000D01*
X180300Y307000D01*
X179300Y306000D01*
Y305000D01*
Y313400D02*
X180300D01*
X181300Y314400D01*
X182300Y313400D01*
X183300D01*
Y314400D01*
X182300Y315400D01*
X183300Y316400D01*
Y317400D01*
X182300D01*
X181300Y316400D01*
X180300Y317400D01*
X179300D01*
Y316400D01*
X180300Y315400D01*
X179300Y314400D01*
Y313400D01*
X178200Y292400D02*
X179200D01*
X180200Y293400D01*
X181200Y292400D01*
X182200D01*
Y293400D01*
X181200Y294400D01*
X182200Y295400D01*
Y296400D01*
X181200D01*
X180200Y295400D01*
X179200Y296400D01*
X178200D01*
Y295400D01*
X179200Y294400D01*
X178200Y293400D01*
Y292400D01*
Y289600D02*
X179200D01*
X180200Y290600D01*
X181200Y289600D01*
X182200D01*
Y290600D01*
X181200Y291600D01*
X182200Y292600D01*
Y293600D01*
X181200D01*
X180200Y292600D01*
X179200Y293600D01*
X178200D01*
Y292600D01*
X179200Y291600D01*
X178200Y290600D01*
Y289600D01*
X179300Y310600D02*
X180300D01*
X181300Y311600D01*
X182300Y310600D01*
X183300D01*
Y311600D01*
X182300Y312600D01*
X183300Y313600D01*
Y314600D01*
X182300D01*
X181300Y313600D01*
X180300Y314600D01*
X179300D01*
Y313600D01*
X180300Y312600D01*
X179300Y311600D01*
Y310600D01*
Y302200D02*
X180300D01*
X181300Y303200D01*
X182300Y302200D01*
X183300D01*
Y303200D01*
X182300Y304200D01*
X183300Y305200D01*
Y306200D01*
X182300D01*
X181300Y305200D01*
X180300Y306200D01*
X179300D01*
Y305200D01*
X180300Y304200D01*
X179300Y303200D01*
Y302200D01*
Y307800D02*
X180300D01*
X181300Y308800D01*
X182300Y307800D01*
X183300D01*
Y308800D01*
X182300Y309800D01*
X183300Y310800D01*
Y311800D01*
X182300D01*
X181300Y310800D01*
X180300Y311800D01*
X179300D01*
Y310800D01*
X180300Y309800D01*
X179300Y308800D01*
Y307800D01*
X130800Y317900D02*
X131800D01*
X132800Y318900D01*
X133800Y317900D01*
X134800D01*
Y318900D01*
X133800Y319900D01*
X134800Y320900D01*
Y321900D01*
X133800D01*
X132800Y320900D01*
X131800Y321900D01*
X130800D01*
Y320900D01*
X131800Y319900D01*
X130800Y318900D01*
Y317900D01*
X120200Y288900D02*
X121200D01*
X122200Y289900D01*
X123200Y288900D01*
X124200D01*
Y289900D01*
X123200Y290900D01*
X124200Y291900D01*
Y292900D01*
X123200D01*
X122200Y291900D01*
X121200Y292900D01*
X120200D01*
Y291900D01*
X121200Y290900D01*
X120200Y289900D01*
Y288900D01*
X131000Y309800D02*
X132000D01*
X133000Y310800D01*
X134000Y309800D01*
X135000D01*
Y310800D01*
X134000Y311800D01*
X135000Y312800D01*
Y313800D01*
X134000D01*
X133000Y312800D01*
X132000Y313800D01*
X131000D01*
Y312800D01*
X132000Y311800D01*
X131000Y310800D01*
Y309800D01*
X125300Y288800D02*
X126300D01*
X127300Y289800D01*
X128300Y288800D01*
X129300D01*
Y289800D01*
X128300Y290800D01*
X129300Y291800D01*
Y292800D01*
X128300D01*
X127300Y291800D01*
X126300Y292800D01*
X125300D01*
Y291800D01*
X126300Y290800D01*
X125300Y289800D01*
Y288800D01*
X136400Y56300D02*
X137400D01*
X138400Y57300D01*
X139400Y56300D01*
X140400D01*
Y57300D01*
X139400Y58300D01*
X140400Y59300D01*
Y60300D01*
X139400D01*
X138400Y59300D01*
X137400Y60300D01*
X136400D01*
Y59300D01*
X137400Y58300D01*
X136400Y57300D01*
Y56300D01*
X171509Y53600D02*
X172509D01*
X173509Y54600D01*
X174509Y53600D01*
X175509D01*
Y54600D01*
X174509Y55600D01*
X175509Y56600D01*
Y57600D01*
X174509D01*
X173509Y56600D01*
X172509Y57600D01*
X171509D01*
Y56600D01*
X172509Y55600D01*
X171509Y54600D01*
Y53600D01*
X171534Y50800D02*
X172534D01*
X173534Y51800D01*
X174534Y50800D01*
X175534D01*
Y51800D01*
X174534Y52800D01*
X175534Y53800D01*
Y54800D01*
X174534D01*
X173534Y53800D01*
X172534Y54800D01*
X171534D01*
Y53800D01*
X172534Y52800D01*
X171534Y51800D01*
Y50800D01*
X160000Y55300D02*
X161000D01*
X162000Y56300D01*
X163000Y55300D01*
X164000D01*
Y56300D01*
X163000Y57300D01*
X164000Y58300D01*
Y59300D01*
X163000D01*
X162000Y58300D01*
X161000Y59300D01*
X160000D01*
Y58300D01*
X161000Y57300D01*
X160000Y56300D01*
Y55300D01*
X193837Y55985D02*
X194837D01*
X195837Y56985D01*
X196837Y55985D01*
X197837D01*
Y56985D01*
X196837Y57985D01*
X197837Y58985D01*
Y59985D01*
X196837D01*
X195837Y58985D01*
X194837Y59985D01*
X193837D01*
Y58985D01*
X194837Y57985D01*
X193837Y56985D01*
Y55985D01*
X196637D02*
X197637D01*
X198637Y56985D01*
X199637Y55985D01*
X200637D01*
Y56985D01*
X199637Y57985D01*
X200637Y58985D01*
Y59985D01*
X199637D01*
X198637Y58985D01*
X197637Y59985D01*
X196637D01*
Y58985D01*
X197637Y57985D01*
X196637Y56985D01*
Y55985D01*
X139200Y56300D02*
X140200D01*
X141200Y57300D01*
X142200Y56300D01*
X143200D01*
Y57300D01*
X142200Y58300D01*
X143200Y59300D01*
Y60300D01*
X142200D01*
X141200Y59300D01*
X140200Y60300D01*
X139200D01*
Y59300D01*
X140200Y58300D01*
X139200Y57300D01*
Y56300D01*
X160000Y58800D02*
X161000D01*
X162000Y59800D01*
X163000Y58800D01*
X164000D01*
Y59800D01*
X163000Y60800D01*
X164000Y61800D01*
Y62800D01*
X163000D01*
X162000Y61800D01*
X161000Y62800D01*
X160000D01*
Y61800D01*
X161000Y60800D01*
X160000Y59800D01*
Y58800D01*
X142000Y92200D02*
X143000D01*
X144000Y93200D01*
X145000Y92200D01*
X146000D01*
Y93200D01*
X145000Y94200D01*
X146000Y95200D01*
Y96200D01*
X145000D01*
X144000Y95200D01*
X143000Y96200D01*
X142000D01*
Y95200D01*
X143000Y94200D01*
X142000Y93200D01*
Y92200D01*
X193837Y59185D02*
X194837D01*
X195837Y60185D01*
X196837Y59185D01*
X197837D01*
Y60185D01*
X196837Y61185D01*
X197837Y62185D01*
Y63185D01*
X196837D01*
X195837Y62185D01*
X194837Y63185D01*
X193837D01*
Y62185D01*
X194837Y61185D01*
X193837Y60185D01*
Y59185D01*
X196637D02*
X197637D01*
X198637Y60185D01*
X199637Y59185D01*
X200637D01*
Y60185D01*
X199637Y61185D01*
X200637Y62185D01*
Y63185D01*
X199637D01*
X198637Y62185D01*
X197637Y63185D01*
X196637D01*
Y62185D01*
X197637Y61185D01*
X196637Y60185D01*
Y59185D01*
X136400Y59500D02*
X137400D01*
X138400Y60500D01*
X139400Y59500D01*
X140400D01*
Y60500D01*
X139400Y61500D01*
X140400Y62500D01*
Y63500D01*
X139400D01*
X138400Y62500D01*
X137400Y63500D01*
X136400D01*
Y62500D01*
X137400Y61500D01*
X136400Y60500D01*
Y59500D01*
X139200D02*
X140200D01*
X141200Y60500D01*
X142200Y59500D01*
X143200D01*
Y60500D01*
X142200Y61500D01*
X143200Y62500D01*
Y63500D01*
X142200D01*
X141200Y62500D01*
X140200Y63500D01*
X139200D01*
Y62500D01*
X140200Y61500D01*
X139200Y60500D01*
Y59500D01*
X161625Y69213D02*
X162625D01*
X163625Y70213D01*
X164625Y69213D01*
X165625D01*
Y70213D01*
X164625Y71213D01*
X165625Y72212D01*
Y73212D01*
X164625D01*
X163625Y72212D01*
X162625Y73212D01*
X161625D01*
Y72212D01*
X162625Y71213D01*
X161625Y70213D01*
Y69213D01*
X164425Y69237D02*
X165425D01*
X166425Y70237D01*
X167425Y69237D01*
X168425D01*
Y70237D01*
X167425Y71237D01*
X168425Y72237D01*
Y73237D01*
X167425D01*
X166425Y72237D01*
X165425Y73237D01*
X164425D01*
Y72237D01*
X165425Y71237D01*
X164425Y70237D01*
Y69237D01*
X158000Y92200D02*
X159000D01*
X160000Y93200D01*
X161000Y92200D01*
X162000D01*
Y93200D01*
X161000Y94200D01*
X162000Y95200D01*
Y96200D01*
X161000D01*
X160000Y95200D01*
X159000Y96200D01*
X158000D01*
Y95200D01*
X159000Y94200D01*
X158000Y93200D01*
Y92200D01*
X199400Y91000D02*
X200400D01*
X201400Y92000D01*
X202400Y91000D01*
X203400D01*
Y92000D01*
X202400Y93000D01*
X203400Y94000D01*
Y95000D01*
X202400D01*
X201400Y94000D01*
X200400Y95000D01*
X199400D01*
Y94000D01*
X200400Y93000D01*
X199400Y92000D01*
Y91000D01*
X215718Y90694D02*
X216718D01*
X217718Y91694D01*
X218718Y90694D01*
X219718D01*
Y91694D01*
X218718Y92694D01*
X219718Y93694D01*
Y94694D01*
X218718D01*
X217718Y93694D01*
X216718Y94694D01*
X215718D01*
Y93694D01*
X216718Y92694D01*
X215718Y91694D01*
Y90694D01*
X163800Y56800D02*
X164800D01*
X165800Y57800D01*
X166800Y56800D01*
X167800D01*
Y57800D01*
X166800Y58800D01*
X167800Y59800D01*
Y60800D01*
X166800D01*
X165800Y59800D01*
X164800Y60800D01*
X163800D01*
Y59800D01*
X164800Y58800D01*
X163800Y57800D01*
Y56800D01*
X221237Y56485D02*
X222237D01*
X223237Y57485D01*
X224237Y56485D01*
X225237D01*
Y57485D01*
X224237Y58485D01*
X225237Y59485D01*
Y60485D01*
X224237D01*
X223237Y59485D01*
X222237Y60485D01*
X221237D01*
Y59485D01*
X222237Y58485D01*
X221237Y57485D01*
Y56485D01*
X217437Y58485D02*
X218437D01*
X219437Y59485D01*
X220437Y58485D01*
X221437D01*
Y59485D01*
X220437Y60485D01*
X221437Y61485D01*
Y62485D01*
X220437D01*
X219437Y61485D01*
X218437Y62485D01*
X217437D01*
Y61485D01*
X218437Y60485D01*
X217437Y59485D01*
Y58485D01*
X219100Y68857D02*
X220100D01*
X221100Y69857D01*
X222100Y68857D01*
X223100D01*
Y69857D01*
X222100Y70857D01*
X223100Y71857D01*
Y72857D01*
X222100D01*
X221100Y71857D01*
X220100Y72857D01*
X219100D01*
Y71857D01*
X220100Y70857D01*
X219100Y69857D01*
Y68857D01*
X221900Y68881D02*
X222900D01*
X223900Y69881D01*
X224900Y68881D01*
X225900D01*
Y69881D01*
X224900Y70881D01*
X225900Y71881D01*
Y72881D01*
X224900D01*
X223900Y71881D01*
X222900Y72881D01*
X221900D01*
Y71881D01*
X222900Y70881D01*
X221900Y69881D01*
Y68881D01*
X228984Y53300D02*
X229984D01*
X230984Y54300D01*
X231984Y53300D01*
X232984D01*
Y54300D01*
X231984Y55300D01*
X232984Y56300D01*
Y57300D01*
X231984D01*
X230984Y56300D01*
X229984Y57300D01*
X228984D01*
Y56300D01*
X229984Y55300D01*
X228984Y54300D01*
Y53300D01*
X229009Y50500D02*
X230009D01*
X231009Y51500D01*
X232009Y50500D01*
X233009D01*
Y51500D01*
X232009Y52500D01*
X233009Y53500D01*
Y54500D01*
X232009D01*
X231009Y53500D01*
X230009Y54500D01*
X229009D01*
Y53500D01*
X230009Y52500D01*
X229009Y51500D01*
Y50500D01*
X217437Y54985D02*
X218437D01*
X219437Y55985D01*
X220437Y54985D01*
X221437D01*
Y55985D01*
X220437Y56985D01*
X221437Y57985D01*
Y58985D01*
X220437D01*
X219437Y57985D01*
X218437Y58985D01*
X217437D01*
Y57985D01*
X218437Y56985D01*
X217437Y55985D01*
Y54985D01*
X201200Y190843D02*
X202200D01*
X203200Y191843D01*
X204200Y190843D01*
X205200D01*
Y191843D01*
X204200Y192843D01*
X205200Y193843D01*
Y194843D01*
X204200D01*
X203200Y193843D01*
X202200Y194843D01*
X201200D01*
Y193843D01*
X202200Y192843D01*
X201200Y191843D01*
Y190843D01*
X207400Y197700D02*
X208400D01*
X209400Y198700D01*
X210400Y197700D01*
X211400D01*
Y198700D01*
X210400Y199700D01*
X211400Y200700D01*
Y201700D01*
X210400D01*
X209400Y200700D01*
X208400Y201700D01*
X207400D01*
Y200700D01*
X208400Y199700D01*
X207400Y198700D01*
Y197700D01*
X201200Y202086D02*
X202200D01*
X203200Y203086D01*
X204200Y202086D01*
X205200D01*
Y203086D01*
X204200Y204086D01*
X205200Y205086D01*
Y206086D01*
X204200D01*
X203200Y205086D01*
X202200Y206086D01*
X201200D01*
Y205086D01*
X202200Y204086D01*
X201200Y203086D01*
Y202086D01*
X206807Y190843D02*
X207807D01*
X208807Y191843D01*
X209807Y190843D01*
X210807D01*
Y191843D01*
X209807Y192843D01*
X210807Y193843D01*
Y194843D01*
X209807D01*
X208807Y193843D01*
X207807Y194843D01*
X206807D01*
Y193843D01*
X207807Y192843D01*
X206807Y191843D01*
Y190843D01*
X206700Y202086D02*
X207700D01*
X208700Y203086D01*
X209700Y202086D01*
X210700D01*
Y203086D01*
X209700Y204086D01*
X210700Y205086D01*
Y206086D01*
X209700D01*
X208700Y205086D01*
X207700Y206086D01*
X206700D01*
Y205086D01*
X207700Y204086D01*
X206700Y203086D01*
Y202086D01*
X238500Y196174D02*
X239500D01*
X240500Y197174D01*
X241500Y196174D01*
X242500D01*
Y197174D01*
X241500Y198174D01*
X242500Y199174D01*
Y200174D01*
X241500D01*
X240500Y199174D01*
X239500Y200174D01*
X238500D01*
Y199174D01*
X239500Y198174D01*
X238500Y197174D01*
Y196174D01*
X98208Y253143D02*
X99208D01*
X100208Y254143D01*
X101208Y253143D01*
X102208D01*
Y254143D01*
X101208Y255143D01*
X102208Y256143D01*
Y257143D01*
X101208D01*
X100208Y256143D01*
X99208Y257143D01*
X98208D01*
Y256143D01*
X99208Y255143D01*
X98208Y254143D01*
Y253143D01*
X201200Y241272D02*
X202200D01*
X203200Y242272D01*
X204200Y241272D01*
X205200D01*
Y242272D01*
X204200Y243272D01*
X205200Y244272D01*
Y245272D01*
X204200D01*
X203200Y244272D01*
X202200Y245272D01*
X201200D01*
Y244272D01*
X202200Y243272D01*
X201200Y242272D01*
Y241272D01*
X201056Y228000D02*
X202056D01*
X203056Y229000D01*
X204056Y228000D01*
X205056D01*
Y229000D01*
X204056Y230000D01*
X205056Y231000D01*
Y232000D01*
X204056D01*
X203056Y231000D01*
X202056Y232000D01*
X201056D01*
Y231000D01*
X202056Y230000D01*
X201056Y229000D01*
Y228000D01*
X206807Y241272D02*
X207807D01*
X208807Y242272D01*
X209807Y241272D01*
X210807D01*
Y242272D01*
X209807Y243272D01*
X210807Y244272D01*
Y245272D01*
X209807D01*
X208807Y244272D01*
X207807Y245272D01*
X206807D01*
Y244272D01*
X207807Y243272D01*
X206807Y242272D01*
Y241272D01*
Y214843D02*
X207807D01*
X208807Y215843D01*
X209807Y214843D01*
X210807D01*
Y215843D01*
X209807Y216843D01*
X210807Y217843D01*
Y218843D01*
X209807D01*
X208807Y217843D01*
X207807Y218843D01*
X206807D01*
Y217843D01*
X207807Y216843D01*
X206807Y215843D01*
Y214843D01*
X206700Y228000D02*
X207700D01*
X208700Y229000D01*
X209700Y228000D01*
X210700D01*
Y229000D01*
X209700Y230000D01*
X210700Y231000D01*
Y232000D01*
X209700D01*
X208700Y231000D01*
X207700Y232000D01*
X206700D01*
Y231000D01*
X207700Y230000D01*
X206700Y229000D01*
Y228000D01*
X215600Y236086D02*
X216600D01*
X217600Y237086D01*
X218600Y236086D01*
X219600D01*
Y237086D01*
X218600Y238086D01*
X219600Y239086D01*
Y240086D01*
X218600D01*
X217600Y239086D01*
X216600Y240086D01*
X215600D01*
Y239086D01*
X216600Y238086D01*
X215600Y237086D01*
Y236086D01*
X201200Y214843D02*
X202200D01*
X203200Y215843D01*
X204200Y214843D01*
X205200D01*
Y215843D01*
X204200Y216843D01*
X205200Y217843D01*
Y218843D01*
X204200D01*
X203200Y217843D01*
X202200Y218843D01*
X201200D01*
Y217843D01*
X202200Y216843D01*
X201200Y215843D01*
Y214843D01*
X223136Y239136D02*
X224136D01*
X225136Y240136D01*
X226136Y239136D01*
X227136D01*
Y240136D01*
X226136Y241136D01*
X227136Y242136D01*
Y243136D01*
X226136D01*
X225136Y242136D01*
X224136Y243136D01*
X223136D01*
Y242136D01*
X224136Y241136D01*
X223136Y240136D01*
Y239136D01*
X238500Y222626D02*
X239500D01*
X240500Y223626D01*
X241500Y222626D01*
X242500D01*
Y223626D01*
X241500Y224626D01*
X242500Y225626D01*
Y226626D01*
X241500D01*
X240500Y225626D01*
X239500Y226626D01*
X238500D01*
Y225626D01*
X239500Y224626D01*
X238500Y223626D01*
Y222626D01*
X239500Y249500D02*
X240500D01*
X241500Y250500D01*
X242500Y249500D01*
X243500D01*
Y250500D01*
X242500Y251500D01*
X243500Y252500D01*
Y253500D01*
X242500D01*
X241500Y252500D01*
X240500Y253500D01*
X239500D01*
Y252500D01*
X240500Y251500D01*
X239500Y250500D01*
Y249500D01*
X60767Y196135D02*
X61767D01*
X62767Y197135D01*
X63767Y196135D01*
X64767D01*
Y197135D01*
X63767Y198135D01*
X64767Y199135D01*
Y200135D01*
X63767D01*
X62767Y199135D01*
X61767Y200135D01*
X60767D01*
Y199135D01*
X61767Y198135D01*
X60767Y197135D01*
Y196135D01*
X60600Y215685D02*
X61600D01*
X62600Y216685D01*
X63600Y215685D01*
X64600D01*
Y216685D01*
X63600Y217685D01*
X64600Y218685D01*
Y219685D01*
X63600D01*
X62600Y218685D01*
X61600Y219685D01*
X60600D01*
Y218685D01*
X61600Y217685D01*
X60600Y216685D01*
Y215685D01*
X166365Y239145D02*
X167365D01*
X168365Y240145D01*
X169365Y239145D01*
X170365D01*
Y240145D01*
X169365Y241145D01*
X170365Y242145D01*
Y243145D01*
X169365D01*
X168365Y242145D01*
X167365Y243145D01*
X166365D01*
Y242145D01*
X167365Y241145D01*
X166365Y240145D01*
Y239145D01*
X155400Y221300D02*
X156400D01*
X157400Y222300D01*
X158400Y221300D01*
X159400D01*
Y222300D01*
X158400Y223300D01*
X159400Y224300D01*
Y225300D01*
X158400D01*
X157400Y224300D01*
X156400Y225300D01*
X155400D01*
Y224300D01*
X156400Y223300D01*
X155400Y222300D01*
Y221300D01*
X157300Y251100D02*
X158300D01*
X159300Y252100D01*
X160300Y251100D01*
X161300D01*
Y252100D01*
X160300Y253100D01*
X161300Y254100D01*
Y255100D01*
X160300D01*
X159300Y254100D01*
X158300Y255100D01*
X157300D01*
Y254100D01*
X158300Y253100D01*
X157300Y252100D01*
Y251100D01*
X163000D02*
X164000D01*
X165000Y252100D01*
X166000Y251100D01*
X167000D01*
Y252100D01*
X166000Y253100D01*
X167000Y254100D01*
Y255100D01*
X166000D01*
X165000Y254100D01*
X164000Y255100D01*
X163000D01*
Y254100D01*
X164000Y253100D01*
X163000Y252100D01*
Y251100D01*
X174400Y252000D02*
X175400D01*
X176400Y253000D01*
X177400Y252000D01*
X178400D01*
Y253000D01*
X177400Y254000D01*
X178400Y255000D01*
Y256000D01*
X177400D01*
X176400Y255000D01*
X175400Y256000D01*
X174400D01*
Y255000D01*
X175400Y254000D01*
X174400Y253000D01*
Y252000D01*
X155549Y216575D02*
X156549D01*
X157549Y217575D01*
X158549Y216575D01*
X159549D01*
Y217575D01*
X158549Y218575D01*
X159549Y219575D01*
Y220575D01*
X158549D01*
X157549Y219575D01*
X156549Y220575D01*
X155549D01*
Y219575D01*
X156549Y218575D01*
X155549Y217575D01*
Y216575D01*
X178200Y220000D02*
X179200D01*
X180200Y221000D01*
X181200Y220000D01*
X182200D01*
Y221000D01*
X181200Y222000D01*
X182200Y223000D01*
Y224000D01*
X181200D01*
X180200Y223000D01*
X179200Y224000D01*
X178200D01*
Y223000D01*
X179200Y222000D01*
X178200Y221000D01*
Y220000D01*
X177938Y194000D02*
X178938D01*
X179938Y195000D01*
X180938Y194000D01*
X181938D01*
Y195000D01*
X180938Y196000D01*
X181938Y197000D01*
Y198000D01*
X180938D01*
X179938Y197000D01*
X178938Y198000D01*
X177938D01*
Y197000D01*
X178938Y196000D01*
X177938Y195000D01*
Y194000D01*
X141300Y213596D02*
X142300D01*
X143300Y214596D01*
X144300Y213596D01*
X145300D01*
Y214596D01*
X144300Y215596D01*
X145300Y216596D01*
Y217596D01*
X144300D01*
X143300Y216596D01*
X142300Y217596D01*
X141300D01*
Y216596D01*
X142300Y215596D01*
X141300Y214596D01*
Y213596D01*
X121080Y37300D02*
X123080Y39300D01*
X125080Y37300D01*
X123080Y35300D01*
X121080Y37300D01*
Y42100D02*
X123080Y44100D01*
X125080Y42100D01*
X123080Y40100D01*
X121080Y42100D01*
X178216Y37300D02*
X180216Y39300D01*
X182216Y37300D01*
X180216Y35300D01*
X178216Y37300D01*
Y42100D02*
X180216Y44100D01*
X182216Y42100D01*
X180216Y40100D01*
X178216Y42100D01*
X236400Y37300D02*
X238400Y39300D01*
X240400Y37300D01*
X238400Y35300D01*
X236400Y37300D01*
Y42100D02*
X238400Y44100D01*
X240400Y42100D01*
X238400Y40100D01*
X236400Y42100D01*
X120600Y136800D02*
X122600Y138800D01*
X124600Y136800D01*
X122600Y134800D01*
X120600Y136800D01*
X1500Y257000D02*
X3500Y259000D01*
X5500Y257000D01*
X3500Y255000D01*
X1500Y257000D01*
X263000Y300000D02*
X265000Y302000D01*
X267000Y300000D01*
X265000Y298000D01*
X263000Y300000D01*
X259000D02*
X261000Y302000D01*
X263000Y300000D01*
X261000Y298000D01*
X259000Y300000D01*
X255000D02*
X257000Y302000D01*
X259000Y300000D01*
X257000Y298000D01*
X255000Y300000D01*
X251000D02*
X253000Y302000D01*
X255000Y300000D01*
X253000Y298000D01*
X251000Y300000D01*
Y304000D02*
X253000Y306000D01*
X255000Y304000D01*
X253000Y302000D01*
X251000Y304000D01*
X255000D02*
X257000Y306000D01*
X259000Y304000D01*
X257000Y302000D01*
X255000Y304000D01*
X263000D02*
X265000Y306000D01*
X267000Y304000D01*
X265000Y302000D01*
X263000Y304000D01*
X259000D02*
X261000Y306000D01*
X263000Y304000D01*
X261000Y302000D01*
X259000Y304000D01*
X255000Y308000D02*
X257000Y310000D01*
X259000Y308000D01*
X257000Y306000D01*
X255000Y308000D01*
X259000D02*
X261000Y310000D01*
X263000Y308000D01*
X261000Y306000D01*
X259000Y308000D01*
X263000D02*
X265000Y310000D01*
X267000Y308000D01*
X265000Y306000D01*
X263000Y308000D01*
X251000D02*
X253000Y310000D01*
X255000Y308000D01*
X253000Y306000D01*
X251000Y308000D01*
X263000Y312000D02*
X265000Y314000D01*
X267000Y312000D01*
X265000Y310000D01*
X263000Y312000D01*
X255000D02*
X257000Y314000D01*
X259000Y312000D01*
X257000Y310000D01*
X255000Y312000D01*
X251000D02*
X253000Y314000D01*
X255000Y312000D01*
X253000Y310000D01*
X251000Y312000D01*
X259000D02*
X261000Y314000D01*
X263000Y312000D01*
X261000Y310000D01*
X259000Y312000D01*
X88000Y135500D02*
X90000Y137500D01*
X92000Y135500D01*
X90000Y133500D01*
X88000Y135500D01*
X1500Y242000D02*
X3500Y244000D01*
X5500Y242000D01*
X3500Y240000D01*
X1500Y242000D01*
Y250000D02*
X3500Y252000D01*
X5500Y250000D01*
X3500Y248000D01*
X1500Y250000D01*
X156000Y309000D02*
X158000Y311000D01*
X160000Y309000D01*
X158000Y307000D01*
X156000Y309000D01*
X144000D02*
X146000Y311000D01*
X148000Y309000D01*
X146000Y307000D01*
X144000Y309000D01*
Y314000D02*
X146000Y316000D01*
X148000Y314000D01*
X146000Y312000D01*
X144000Y314000D01*
X156000D02*
X158000Y316000D01*
X160000Y314000D01*
X158000Y312000D01*
X156000Y314000D01*
X157998Y320379D02*
X159998Y322379D01*
X161998Y320379D01*
X159998Y318379D01*
X157998Y320379D01*
X168002D02*
X170002Y322379D01*
X172002Y320379D01*
X170002Y318379D01*
X168002Y320379D01*
X178002Y320459D02*
X180002Y322459D01*
X182002Y320459D01*
X180002Y318459D01*
X178002Y320459D01*
X187998D02*
X189998Y322459D01*
X191998Y320459D01*
X189998Y318459D01*
X187998Y320459D01*
D114*
X117000Y347520D02*
G03*
X117000Y347520I-2000J0D01*
G01*
X127000D02*
G03*
X127000Y347520I-2000J0D01*
G01*
X217000Y327520D02*
G03*
X217000Y327520I-2000J0D01*
G01*
Y337520D02*
G03*
X217000Y337520I-2000J0D01*
G01*
X57000Y327520D02*
G03*
X57000Y327520I-2000J0D01*
G01*
Y337520D02*
G03*
X57000Y337520I-2000J0D01*
G01*
X67000Y327520D02*
G03*
X67000Y327520I-2000J0D01*
G01*
Y337520D02*
G03*
X67000Y337520I-2000J0D01*
G01*
X77000Y327520D02*
G03*
X77000Y327520I-2000J0D01*
G01*
Y337520D02*
G03*
X77000Y337520I-2000J0D01*
G01*
X87000Y327520D02*
G03*
X87000Y327520I-2000J0D01*
G01*
Y337520D02*
G03*
X87000Y337520I-2000J0D01*
G01*
X97000Y327520D02*
G03*
X97000Y327520I-2000J0D01*
G01*
Y337520D02*
G03*
X97000Y337520I-2000J0D01*
G01*
X107000Y327520D02*
G03*
X107000Y327520I-2000J0D01*
G01*
Y337520D02*
G03*
X107000Y337520I-2000J0D01*
G01*
X117000Y327520D02*
G03*
X117000Y327520I-2000J0D01*
G01*
Y337520D02*
G03*
X117000Y337520I-2000J0D01*
G01*
X127000Y327520D02*
G03*
X127000Y327520I-2000J0D01*
G01*
Y337520D02*
G03*
X127000Y337520I-2000J0D01*
G01*
X137000Y327520D02*
G03*
X137000Y327520I-2000J0D01*
G01*
Y337520D02*
G03*
X137000Y337520I-2000J0D01*
G01*
X147000Y327520D02*
G03*
X147000Y327520I-2000J0D01*
G01*
Y337520D02*
G03*
X147000Y337520I-2000J0D01*
G01*
X157000Y327520D02*
G03*
X157000Y327520I-2000J0D01*
G01*
Y337520D02*
G03*
X157000Y337520I-2000J0D01*
G01*
X167000Y327520D02*
G03*
X167000Y327520I-2000J0D01*
G01*
Y337520D02*
G03*
X167000Y337520I-2000J0D01*
G01*
X177000Y327520D02*
G03*
X177000Y327520I-2000J0D01*
G01*
Y337520D02*
G03*
X177000Y337520I-2000J0D01*
G01*
X187000Y327520D02*
G03*
X187000Y327520I-2000J0D01*
G01*
Y337520D02*
G03*
X187000Y337520I-2000J0D01*
G01*
X197000Y327520D02*
G03*
X197000Y327520I-2000J0D01*
G01*
Y337520D02*
G03*
X197000Y337520I-2000J0D01*
G01*
X207000Y327520D02*
G03*
X207000Y327520I-2000J0D01*
G01*
Y337520D02*
G03*
X207000Y337520I-2000J0D01*
G01*
X227000Y327520D02*
G03*
X227000Y327520I-2000J0D01*
G01*
Y337520D02*
G03*
X227000Y337520I-2000J0D01*
G01*
X237000Y327520D02*
G03*
X237000Y327520I-2000J0D01*
G01*
Y337520D02*
G03*
X237000Y337520I-2000J0D01*
G01*
X247000Y327520D02*
G03*
X247000Y327520I-2000J0D01*
G01*
Y337520D02*
G03*
X247000Y337520I-2000J0D01*
G01*
X257000Y327520D02*
G03*
X257000Y327520I-2000J0D01*
G01*
Y337520D02*
G03*
X257000Y337520I-2000J0D01*
G01*
X267000Y327520D02*
G03*
X267000Y327520I-2000J0D01*
G01*
Y337520D02*
G03*
X267000Y337520I-2000J0D01*
G01*
X277000Y327520D02*
G03*
X277000Y327520I-2000J0D01*
G01*
Y337520D02*
G03*
X277000Y337520I-2000J0D01*
G01*
X287000Y327520D02*
G03*
X287000Y327520I-2000J0D01*
G01*
Y337520D02*
G03*
X287000Y337520I-2000J0D01*
G01*
X297000Y327520D02*
G03*
X297000Y327520I-2000J0D01*
G01*
Y337520D02*
G03*
X297000Y337520I-2000J0D01*
G01*
X307000Y327520D02*
G03*
X307000Y327520I-2000J0D01*
G01*
Y337520D02*
G03*
X307000Y337520I-2000J0D01*
G01*
X207000Y347520D02*
G03*
X207000Y347520I-2000J0D01*
G01*
Y357520D02*
G03*
X207000Y357520I-2000J0D01*
G01*
X197000Y347520D02*
G03*
X197000Y347520I-2000J0D01*
G01*
Y357520D02*
G03*
X197000Y357520I-2000J0D01*
G01*
X307000D02*
G03*
X307000Y357520I-2000J0D01*
G01*
Y347520D02*
G03*
X307000Y347520I-2000J0D01*
G01*
X297000Y357520D02*
G03*
X297000Y357520I-2000J0D01*
G01*
Y347520D02*
G03*
X297000Y347520I-2000J0D01*
G01*
X287000Y357520D02*
G03*
X287000Y357520I-2000J0D01*
G01*
Y347520D02*
G03*
X287000Y347520I-2000J0D01*
G01*
X277000Y357520D02*
G03*
X277000Y357520I-2000J0D01*
G01*
Y347520D02*
G03*
X277000Y347520I-2000J0D01*
G01*
X267000Y357520D02*
G03*
X267000Y357520I-2000J0D01*
G01*
Y347520D02*
G03*
X267000Y347520I-2000J0D01*
G01*
X257000Y357520D02*
G03*
X257000Y357520I-2000J0D01*
G01*
Y347520D02*
G03*
X257000Y347520I-2000J0D01*
G01*
X247000Y357520D02*
G03*
X247000Y357520I-2000J0D01*
G01*
Y347520D02*
G03*
X247000Y347520I-2000J0D01*
G01*
X237000Y357520D02*
G03*
X237000Y357520I-2000J0D01*
G01*
Y347520D02*
G03*
X237000Y347520I-2000J0D01*
G01*
X227000Y357520D02*
G03*
X227000Y357520I-2000J0D01*
G01*
Y347520D02*
G03*
X227000Y347520I-2000J0D01*
G01*
X217000Y357520D02*
G03*
X217000Y357520I-2000J0D01*
G01*
Y347520D02*
G03*
X217000Y347520I-2000J0D01*
G01*
X187000Y357520D02*
G03*
X187000Y357520I-2000J0D01*
G01*
Y347520D02*
G03*
X187000Y347520I-2000J0D01*
G01*
X177000Y357520D02*
G03*
X177000Y357520I-2000J0D01*
G01*
Y347520D02*
G03*
X177000Y347520I-2000J0D01*
G01*
X167000Y357520D02*
G03*
X167000Y357520I-2000J0D01*
G01*
Y347520D02*
G03*
X167000Y347520I-2000J0D01*
G01*
X157000Y357520D02*
G03*
X157000Y357520I-2000J0D01*
G01*
Y347520D02*
G03*
X157000Y347520I-2000J0D01*
G01*
X147000Y357520D02*
G03*
X147000Y357520I-2000J0D01*
G01*
Y347520D02*
G03*
X147000Y347520I-2000J0D01*
G01*
X137000Y357520D02*
G03*
X137000Y357520I-2000J0D01*
G01*
Y347520D02*
G03*
X137000Y347520I-2000J0D01*
G01*
X127000Y357520D02*
G03*
X127000Y357520I-2000J0D01*
G01*
X117000D02*
G03*
X117000Y357520I-2000J0D01*
G01*
X107000D02*
G03*
X107000Y357520I-2000J0D01*
G01*
Y347520D02*
G03*
X107000Y347520I-2000J0D01*
G01*
X97000Y357520D02*
G03*
X97000Y357520I-2000J0D01*
G01*
Y347520D02*
G03*
X97000Y347520I-2000J0D01*
G01*
X87000Y357520D02*
G03*
X87000Y357520I-2000J0D01*
G01*
Y347520D02*
G03*
X87000Y347520I-2000J0D01*
G01*
X77000Y357520D02*
G03*
X77000Y357520I-2000J0D01*
G01*
Y347520D02*
G03*
X77000Y347520I-2000J0D01*
G01*
X67000Y357520D02*
G03*
X67000Y357520I-2000J0D01*
G01*
X57000D02*
G03*
X57000Y357520I-2000J0D01*
G01*
Y347520D02*
G03*
X57000Y347520I-2000J0D01*
G01*
X67000D02*
G03*
X67000Y347520I-2000J0D01*
G01*
M02*
